#VRML V2.0 utf8
# 3D model generated by easyeda2kicad.py (https://github.com/uPesy/easyeda2kicad.py)

Shape{
    appearance Appearance {
        material  Material 	{
            diffuseColor 0.20784313725490197 0.20784313725490197 0.20784313725490197
            specularColor 0.01568627450980392 0.01568627450980392 0.01568627450980392
            ambientIntensity 0.2
            transparency 0
            shininess 0.5
        }
    }
    geometry IndexedFaceSet {
        ccw TRUE
        solid FALSE
        coord DEF co Coordinate {
            point [
                0.1032 0.6299 0.0, 0.1224 -0.0647 0.0, 0.1032 -0.0977 0.0, 0.1224 -0.0863 0.0, 0.1434 -0.095 0.0, 0.8272 0.6299 0.0, 0.5118 0.5906 0.0, 0.8272 0.5906 0.0, 0.1224 0.0685 0.0, 0.1446 0.078 0.0, 0.126 -0.0667 0.0, 0.1685 0.0811 0.0, 0.1879 0.0789 0.0, 0.9449 0.4728 0.0, 0.9843 0.4728 0.0, 0.9449 0.2756 0.0, 0.9843 -0.0977 0.0, 0.5118 0.2756 0.0, 0.2475 0.0662 0.0, 0.2026 0.0736 0.0, 0.2163 0.0645 0.0, 0.2282 0.0514 0.0, 0.2425 -0.0002 0.0, 0.2405 -0.0215 0.0, 0.2351 -0.0385 0.0, 0.1914 -0.0752 0.0, 0.173 -0.0773 0.0, 0.2058 -0.0699 0.0, 0.2179 -0.0618 0.0, 0.2269 -0.0521 0.0, 0.1468 -0.0744 0.0, 0.2363 0.0362 0.0, 0.2415 0.0151 0.0, 0.1688 0.1027 0.0, 0.1452 0.1011 0.0, 0.1224 0.0949 0.0, 0.3865 -0.0965 0.0, 0.1882 -0.0977 0.0, 0.2857 -0.0965 0.0, 0.2009 -0.0964 0.0, 0.22 -0.0898 0.0, 0.3865 0.1003 0.0, 0.3601 0.1003 0.0, 0.2359 -0.0797 0.0, 0.2506 -0.0641 0.0, 0.2857 -0.0749 0.0, 0.2611 -0.0453 0.0, 0.3601 -0.0749 0.0, 0.23 0.0834 0.0, 0.2113 0.0944 0.0, 0.1894 0.1009 0.0, 0.267 -0.0245 0.0, 0.2689 -0.0018 0.0, 0.2663 0.0248 0.0, 0.2589 0.0476 0.0, 0.9843 -0.4728 0.0, 0.9449 -0.2756 0.0, 0.9449 -0.4728 0.0, 0.5118 -0.2756 0.0, 0.1633 -0.0977 0.0, 0.1712 -0.0989 0.0, 0.1032 -0.6299 0.0, 0.8272 -0.5906 0.0, 0.8272 -0.6299 0.0, 0.5118 -0.5906 0.0, 0.1766 -0.0989 0.0, -0.2329 -0.0965 0.0, -0.2088 -0.0422 0.0, -0.1976 -0.0598 0.0, -0.8272 0.5906 0.0, -0.8272 0.6299 0.0, -0.5118 0.5906 0.0, -0.1815 -0.0754 0.0, -0.1611 -0.0874 0.0, -0.1384 -0.0943 0.0, -0.9843 -0.0977 0.0, -0.9843 0.4728 0.0, -0.9449 0.2756 0.0, -0.9449 0.4728 0.0, 0.0576 0.0787 0.0, 0.0576 0.0139 0.0, -0.0168 0.0787 0.0, -0.012 0.0139 0.0, 0.0576 -0.0077 0.0, 0.0576 -0.0749 0.0, -0.012 -0.0077 0.0, -0.0216 -0.0749 0.0, -0.06 0.1003 0.0, -0.0216 -0.0965 0.0, -0.06 -0.0965 0.0, -0.1135 -0.0965 0.0, -0.3073 0.1003 0.0, -0.2077 0.0509 0.0, -0.2152 0.0316 0.0, 0.084 -0.0965 0.0, 0.084 0.1003 0.0, -0.0168 0.1003 0.0, -0.3817 -0.0965 0.0, -0.4105 -0.0965 0.0, -0.5118 0.2756 0.0, -0.1658 0.0898 0.0, -0.1427 0.0976 0.0, -0.1156 0.1003 0.0, -0.3618 -0.0413 0.0, -0.2805 -0.0413 0.0, -0.2617 -0.0965 0.0, -0.1856 0.0772 0.0, -0.1965 0.0668 0.0, -0.2183 0.0106 0.0, -0.2185 0.0044 0.0, -0.2158 -0.0215 0.0, -0.3337 0.1003 0.0, -0.5118 -0.5906 0.0, -0.8272 -0.6299 0.0, -0.8272 -0.5906 0.0, -0.9449 -0.4728 0.0, -0.9843 -0.4728 0.0, -0.9449 -0.2756 0.0, -0.6299 -0.2756 0.0, -0.5118 -0.3937 0.0, 0.8661 -0.6299 0.1378, 0.8661 -0.6299 0.1374, 0.8702 -0.5994 0.1378, 0.8702 -0.5994 0.1374, 0.882 -0.5709 0.1378, 0.882 -0.5709 0.1374, 0.9007 -0.5464 0.1378, 0.9007 -0.5464 0.1374, 0.9252 -0.5276 0.1378, 0.9252 -0.5276 0.1374, 0.9537 -0.5158 0.1378, 0.9537 -0.5158 0.1374, 0.9843 -0.5118 0.1378, 0.9843 -0.5118 0.1374, -0.9843 -0.5118 0.1378, -0.9843 -0.5118 0.1374, -0.9537 -0.5158 0.1378, -0.9537 -0.5158 0.1374, -0.9252 -0.5276 0.1378, -0.9252 -0.5276 0.1374, -0.9007 -0.5464 0.1378, -0.9007 -0.5464 0.1374, -0.882 -0.5709 0.1378, -0.882 -0.5709 0.1374, -0.8702 -0.5994 0.1378, -0.8702 -0.5994 0.1374, -0.8661 -0.6299 0.1378, -0.8661 -0.6299 0.1374, -0.8661 0.6299 0.1378, -0.8661 0.6299 0.1374, -0.8702 0.5994 0.1378, -0.8702 0.5994 0.1374, -0.882 0.5709 0.1378, -0.882 0.5709 0.1374, -0.9007 0.5464 0.1378, -0.9007 0.5464 0.1374, -0.9252 0.5276 0.1378, -0.9252 0.5276 0.1374, -0.9537 0.5158 0.1378, -0.9537 0.5158 0.1374, -0.9843 0.5118 0.1378, -0.9843 0.5118 0.1374, 0.9843 0.5118 0.1378, 0.9843 0.5118 0.1374, 0.9537 0.5158 0.1378, 0.9537 0.5158 0.1374, 0.9252 0.5276 0.1378, 0.9252 0.5276 0.1374, 0.9007 0.5464 0.1378, 0.9007 0.5464 0.1374, 0.882 0.5709 0.1378, 0.882 0.5709 0.1374, 0.8702 0.5994 0.1378, 0.8702 0.5994 0.1374, 0.8661 0.6299 0.1378, 0.8661 0.6299 0.1374, 0.8272 -0.6299 -0.0004, 0.8665 -0.6299 -0.0004, -0.9055 -0.6299 0.1772, -0.9055 -0.6299 0.1378, 0.9055 -0.6299 0.1378, 0.9055 -0.6299 0.1772, -0.8665 -0.6299 -0.0004, -0.8272 -0.6299 -0.0004, -0.8665 -0.6299 0.1374, 0.8665 -0.6299 0.1374, 0.9843 0.4728 -0.0004, 0.9843 0.5122 -0.0004, 0.9843 0.5512 0.1772, 0.9843 -0.5512 0.1772, 0.9843 -0.5512 0.1378, 0.9843 -0.5122 -0.0004, 0.9843 -0.4728 -0.0004, 0.9843 0.5512 0.1378, 0.9843 0.5122 0.1374, 0.9843 -0.5122 0.1374, 0.9639 -0.5539 0.1378, 0.9639 -0.5539 0.1772, 0.9449 -0.5617 0.1378, 0.9449 -0.5617 0.1772, 0.9286 -0.5742 0.1378, 0.9286 -0.5742 0.1772, 0.9161 -0.5906 0.1378, 0.9161 -0.5906 0.1772, 0.9082 -0.6095 0.1378, 0.9082 -0.6095 0.1772, -0.9082 -0.6095 0.1378, -0.9082 -0.6095 0.1772, -0.9161 -0.5906 0.1378, -0.9161 -0.5906 0.1772, -0.9286 -0.5742 0.1378, -0.9286 -0.5742 0.1772, -0.9449 -0.5617 0.1378, -0.9449 -0.5617 0.1772, -0.9639 -0.5539 0.1378, -0.9639 -0.5539 0.1772, -0.9843 -0.5512 0.1378, -0.9843 -0.5512 0.1772, -0.9843 -0.4728 -0.0004, -0.9843 -0.5122 -0.0004, -0.9843 -0.5122 0.1374, -0.9843 0.5512 0.1772, -0.9843 0.5512 0.1378, -0.9843 0.5122 -0.0004, -0.9843 0.4728 -0.0004, -0.9843 0.5122 0.1374, -0.8272 0.6299 -0.0004, -0.8665 0.6299 -0.0004, 0.9055 0.6299 0.1772, 0.9055 0.6299 0.1378, -0.9055 0.6299 0.1378, -0.9055 0.6299 0.1772, 0.8665 0.6299 -0.0004, 0.8272 0.6299 -0.0004, 0.8665 0.6299 0.1374, -0.8665 0.6299 0.1374, -0.9639 0.5539 0.1378, -0.9639 0.5539 0.1772, -0.9449 0.5617 0.1378, -0.9449 0.5617 0.1772, -0.9286 0.5742 0.1378, -0.9286 0.5742 0.1772, -0.9161 0.5906 0.1378, -0.9161 0.5906 0.1772, -0.9082 0.6095 0.1378, -0.9082 0.6095 0.1772, 0.9082 0.6095 0.1378, 0.9082 0.6095 0.1772, 0.9161 0.5906 0.1378, 0.9161 0.5906 0.1772, 0.9286 0.5742 0.1378, 0.9286 0.5742 0.1772, 0.9449 0.5617 0.1378, 0.9449 0.5617 0.1772, 0.9639 0.5539 0.1378, 0.9639 0.5539 0.1772, 0.9528 0.5118 0.1772, 0.9201 0.5795 0.1772, 0.9339 0.5658 0.1772, 0.9442 0.5494 0.1772, 0.9506 0.5311 0.1772, -0.8661 0.5984 0.1772, -0.9528 -0.5118 0.1772, 0.8661 0.5984 0.1772, 0.8854 0.5963 0.1772, 0.9037 0.5898 0.1772, -0.9339 0.5658 0.1772, -0.9201 0.5795 0.1772, -0.9037 0.5898 0.1772, -0.8854 0.5963 0.1772, -0.9201 -0.5795 0.1772, -0.9339 -0.5658 0.1772, -0.9442 -0.5494 0.1772, -0.9506 -0.5311 0.1772, -0.9528 0.5118 0.1772, -0.9506 0.5311 0.1772, -0.9442 0.5494 0.1772, 0.8661 -0.5984 0.1772, 0.9528 -0.5118 0.1772, 0.9506 -0.5311 0.1772, 0.9442 -0.5494 0.1772, 0.9339 -0.5658 0.1772, 0.9201 -0.5795 0.1772, 0.9037 -0.5898 0.1772, 0.8854 -0.5963 0.1772, -0.8661 -0.5984 0.1772, -0.8854 -0.5963 0.1772, -0.9037 -0.5898 0.1772, -0.9037 -0.5898 0.1772
            ]
        }
        coordIndex [
            0,1,2,-1,2,1,3,-1,2,3,4,-1,0,5,6,-1,6,5,7,-1,0,8,1,-1,1,8,9,-1,1,9,10,-1,10,9,11,-1,10,11,12,-1,13,14,15,-1,15,14,16,-1,6,17,18,-1,12,19,10,-1,10,19,20,-1,10,20,21,-1,22,23,10,-1,10,23,24,-1,25,26,27,-1,27,26,28,-1,24,29,10,-1,10,29,28,-1,10,28,30,-1,30,28,26,-1,21,31,10,-1,10,31,32,-1,10,32,22,-1,33,34,0,-1,0,34,35,-1,0,35,8,-1,36,37,38,-1,38,37,39,-1,38,39,40,-1,36,41,17,-1,17,41,42,-1,40,43,38,-1,38,43,44,-1,38,44,45,-1,45,44,46,-1,45,46,47,-1,18,48,6,-1,6,48,49,-1,6,49,0,-1,0,49,50,-1,0,50,33,-1,46,51,47,-1,47,51,52,-1,47,52,42,-1,42,52,53,-1,42,53,17,-1,17,53,54,-1,17,54,18,-1,16,55,56,-1,56,55,57,-1,17,15,36,-1,36,15,16,-1,36,16,37,-1,37,16,56,-1,37,56,58,-1,59,60,61,-1,62,63,64,-1,64,63,61,-1,58,64,37,-1,37,64,61,-1,37,61,65,-1,65,61,60,-1,66,67,68,-1,69,70,71,-1,71,70,0,-1,68,72,66,-1,66,72,73,-1,66,73,74,-1,75,76,77,-1,77,76,78,-1,79,80,81,-1,81,80,82,-1,83,84,85,-1,85,84,86,-1,85,86,87,-1,87,86,88,-1,87,88,89,-1,89,88,2,-1,89,2,90,-1,91,92,93,-1,88,94,2,-1,2,94,95,-1,2,95,0,-1,0,95,96,-1,0,96,71,-1,71,96,81,-1,71,81,87,-1,87,81,82,-1,87,82,85,-1,97,2,98,-1,98,2,75,-1,98,75,99,-1,99,75,77,-1,100,91,101,-1,101,91,102,-1,103,104,97,-1,97,104,105,-1,97,105,2,-1,2,105,66,-1,2,66,90,-1,90,66,74,-1,100,106,91,-1,91,106,107,-1,91,107,92,-1,93,108,91,-1,91,108,109,-1,91,109,66,-1,66,109,110,-1,66,110,67,-1,87,102,71,-1,71,102,91,-1,71,91,99,-1,99,91,111,-1,99,111,98,-1,4,59,2,-1,2,59,61,-1,2,61,112,-1,112,61,113,-1,112,113,114,-1,115,116,117,-1,117,116,75,-1,117,75,118,-1,118,75,2,-1,118,2,119,-1,119,2,112,-1,120,121,122,-1,122,121,123,-1,122,123,124,-1,124,123,125,-1,124,125,126,-1,126,125,127,-1,126,127,128,-1,128,127,129,-1,128,129,130,-1,130,129,131,-1,130,131,132,-1,132,131,133,-1,134,135,136,-1,136,135,137,-1,136,137,138,-1,138,137,139,-1,138,139,140,-1,140,139,141,-1,140,141,142,-1,142,141,143,-1,142,143,144,-1,144,143,145,-1,144,145,146,-1,146,145,147,-1,148,149,150,-1,150,149,151,-1,150,151,152,-1,152,151,153,-1,152,153,154,-1,154,153,155,-1,154,155,156,-1,156,155,157,-1,156,157,158,-1,158,157,159,-1,158,159,160,-1,160,159,161,-1,162,163,164,-1,164,163,165,-1,164,165,166,-1,166,165,167,-1,166,167,168,-1,168,167,169,-1,168,169,170,-1,170,169,171,-1,170,171,172,-1,172,171,173,-1,172,173,174,-1,174,173,175,-1,63,176,177,-1,178,179,146,-1,180,181,120,-1,120,181,178,-1,120,178,121,-1,182,183,113,-1,178,146,121,-1,121,146,147,-1,121,147,113,-1,113,147,184,-1,113,184,182,-1,177,185,63,-1,63,185,121,-1,63,121,61,-1,61,121,113,-1,14,186,187,-1,188,189,132,-1,132,189,190,-1,191,192,55,-1,133,163,132,-1,132,163,162,-1,132,162,188,-1,188,162,193,-1,187,194,14,-1,14,194,163,-1,14,163,16,-1,16,163,133,-1,16,133,55,-1,55,133,195,-1,55,195,191,-1,190,189,196,-1,196,189,197,-1,196,197,198,-1,198,197,199,-1,198,199,200,-1,200,199,201,-1,200,201,202,-1,202,201,203,-1,202,203,204,-1,204,203,205,-1,204,205,180,-1,180,205,181,-1,179,178,206,-1,206,178,207,-1,206,207,208,-1,208,207,209,-1,208,209,210,-1,210,209,211,-1,210,211,212,-1,212,211,213,-1,212,213,214,-1,214,213,215,-1,214,215,216,-1,216,215,217,-1,218,219,116,-1,116,219,220,-1,116,220,75,-1,75,220,135,-1,221,222,160,-1,223,224,76,-1,134,160,161,-1,221,160,217,-1,217,160,134,-1,217,134,216,-1,135,134,75,-1,75,134,161,-1,75,161,76,-1,76,161,225,-1,76,225,223,-1,70,226,227,-1,228,229,174,-1,230,231,148,-1,148,231,228,-1,148,228,149,-1,232,233,5,-1,228,174,149,-1,149,174,175,-1,149,175,5,-1,5,175,234,-1,5,234,232,-1,227,235,70,-1,70,235,149,-1,70,149,0,-1,0,149,5,-1,222,221,236,-1,236,221,237,-1,236,237,238,-1,238,237,239,-1,238,239,240,-1,240,239,241,-1,240,241,242,-1,242,241,243,-1,242,243,244,-1,244,243,245,-1,244,245,230,-1,230,245,231,-1,229,228,246,-1,246,228,247,-1,246,247,248,-1,248,247,249,-1,248,249,250,-1,250,249,251,-1,250,251,252,-1,252,251,253,-1,252,253,254,-1,254,253,255,-1,254,255,193,-1,193,255,188,-1,256,188,255,-1,249,257,251,-1,251,257,258,-1,251,258,253,-1,253,258,259,-1,253,259,255,-1,255,259,260,-1,255,260,256,-1,231,245,261,-1,217,215,262,-1,231,261,228,-1,228,261,263,-1,228,263,247,-1,247,263,264,-1,247,264,249,-1,249,264,265,-1,249,265,257,-1,239,266,241,-1,241,266,267,-1,241,267,243,-1,243,267,268,-1,243,268,245,-1,245,268,269,-1,245,269,261,-1,209,270,211,-1,211,270,271,-1,211,271,213,-1,213,271,272,-1,213,272,215,-1,215,272,273,-1,215,273,262,-1,217,262,221,-1,221,262,274,-1,221,274,237,-1,237,274,275,-1,237,275,239,-1,239,275,276,-1,239,276,266,-1,181,205,277,-1,188,256,189,-1,189,256,278,-1,189,278,197,-1,197,278,279,-1,197,279,199,-1,279,280,199,-1,199,280,281,-1,199,281,201,-1,201,281,282,-1,201,282,203,-1,203,282,283,-1,203,283,205,-1,205,283,284,-1,205,284,277,-1,181,277,178,-1,178,277,285,-1,178,285,207,-1,207,285,286,-1,207,286,209,-1,209,286,287,-1,209,287,270,-1,
        ]
    }
}
Shape{
    appearance Appearance {
        material  Material 	{
            diffuseColor 0.8274509803921568 0.6666666666666666 0.12941176470588237
            specularColor 0.8274509803921568 0.6666666666666666 0.12941176470588237
            ambientIntensity 0.2
            transparency 0
            shininess 0.5
        }
    }
    geometry IndexedFaceSet {
        ccw TRUE
        solid FALSE
        coord DEF co Coordinate {
            point [
                -0.9449 -0.5118 0.185, -0.9429 -0.5293 0.185, -0.9449 -0.5118 0.2756, -0.9422 -0.5322 0.2756, -0.9419 -0.5321 0.185, -0.9371 -0.546 0.185, -0.9343 -0.5512 0.2756, -0.934 -0.5509 0.185, -0.9277 -0.5609 0.185, -0.9218 -0.5675 0.2756, -0.9215 -0.5671 0.185, -0.9152 -0.5734 0.185, -0.9055 -0.58 0.2756, -0.9053 -0.5796 0.185, -0.9003 -0.5828 0.185, -0.8865 -0.5879 0.2756, -0.8661 -0.5906 0.185, -0.8661 -0.5906 0.2756, -0.8837 -0.5886 0.185, -0.8864 -0.5876 0.185, 0.8661 -0.5906 0.185, 0.8661 -0.5906 0.2756, 0.8837 -0.5886 0.185, 0.8865 -0.5879 0.2756, 0.8864 -0.5876 0.185, 0.9003 -0.5828 0.185, 0.9055 -0.58 0.2756, 0.9053 -0.5796 0.185, 0.9152 -0.5734 0.185, 0.9218 -0.5675 0.2756, 0.9215 -0.5671 0.185, 0.9277 -0.5609 0.185, 0.9343 -0.5512 0.2756, 0.934 -0.5509 0.185, 0.9371 -0.546 0.185, 0.9422 -0.5322 0.2756, 0.9449 -0.5118 0.185, 0.9449 -0.5118 0.2756, 0.9429 -0.5293 0.185, 0.9419 -0.5321 0.185, 0.9449 0.5118 0.185, 0.9449 0.5118 0.2756, 0.9429 0.5293 0.185, 0.9422 0.5322 0.2756, 0.9419 0.5321 0.185, 0.9371 0.546 0.185, 0.9343 0.5512 0.2756, 0.934 0.5509 0.185, 0.9277 0.5609 0.185, 0.9218 0.5675 0.2756, 0.9215 0.5671 0.185, 0.9152 0.5734 0.185, 0.9055 0.58 0.2756, 0.9053 0.5796 0.185, 0.9003 0.5828 0.185, 0.8865 0.5879 0.2756, 0.8661 0.5906 0.185, 0.8661 0.5906 0.2756, 0.8837 0.5886 0.185, 0.8864 0.5876 0.185, -0.8661 0.5906 0.185, -0.8661 0.5906 0.2756, -0.8837 0.5886 0.185, -0.8865 0.5879 0.2756, -0.8864 0.5876 0.185, -0.9003 0.5828 0.185, -0.9055 0.58 0.2756, -0.9053 0.5796 0.185, -0.9152 0.5734 0.185, -0.9218 0.5675 0.2756, -0.9215 0.5671 0.185, -0.9277 0.5609 0.185, -0.9343 0.5512 0.2756, -0.934 0.5509 0.185, -0.9371 0.546 0.185, -0.9422 0.5322 0.2756, -0.9449 0.5118 0.185, -0.9449 0.5118 0.2756, -0.9429 0.5293 0.185, -0.9419 0.5321 0.185, -0.9419 0.5321 0.185
            ]
        }
        coordIndex [
            0,1,2,-1,2,1,3,-1,1,4,3,-1,3,4,5,-1,3,5,6,-1,5,7,6,-1,6,7,8,-1,6,8,9,-1,8,10,9,-1,9,10,11,-1,9,11,12,-1,11,13,12,-1,12,13,14,-1,12,14,15,-1,16,17,18,-1,18,17,15,-1,18,15,19,-1,19,15,14,-1,20,21,16,-1,16,21,17,-1,20,22,21,-1,21,22,23,-1,22,24,23,-1,23,24,25,-1,23,25,26,-1,25,27,26,-1,26,27,28,-1,26,28,29,-1,28,30,29,-1,29,30,31,-1,29,31,32,-1,31,33,32,-1,32,33,34,-1,32,34,35,-1,36,37,38,-1,38,37,35,-1,38,35,39,-1,39,35,34,-1,40,41,36,-1,36,41,37,-1,40,42,41,-1,41,42,43,-1,42,44,43,-1,43,44,45,-1,43,45,46,-1,45,47,46,-1,46,47,48,-1,46,48,49,-1,48,50,49,-1,49,50,51,-1,49,51,52,-1,51,53,52,-1,52,53,54,-1,52,54,55,-1,56,57,58,-1,58,57,55,-1,58,55,59,-1,59,55,54,-1,60,61,56,-1,56,61,57,-1,60,62,61,-1,61,62,63,-1,62,64,63,-1,63,64,65,-1,63,65,66,-1,65,67,66,-1,66,67,68,-1,66,68,69,-1,68,70,69,-1,69,70,71,-1,69,71,72,-1,71,73,72,-1,72,73,74,-1,72,74,75,-1,76,77,78,-1,78,77,75,-1,78,75,79,-1,79,75,74,-1,0,2,76,-1,76,2,77,-1,
        ]
    }
}
Shape{
    appearance Appearance {
        material  Material 	{
            diffuseColor 0.6666666666666666 0.6666666666666666 0.6666666666666666
            specularColor 0.4666666666666667 0.4666666666666667 0.4666666666666667
            ambientIntensity 0.2
            transparency 0
            shininess 0.5
        }
    }
    geometry IndexedFaceSet {
        ccw TRUE
        solid FALSE
        coord DEF co Coordinate {
            point [
                0.894 -0.5396 0.315, 0.9002 -0.5315 0.315, 0.9042 -0.522 0.315, -0.8661 -0.5512 0.315, -0.9055 -0.5118 0.315, -0.9042 -0.522 0.315, 0.8858 -0.5459 0.315, -0.9002 0.5315 0.315, -0.9042 0.522 0.315, -0.894 0.5396 0.315, -0.9055 0.5118 0.315, -0.8858 0.5459 0.315, -0.9002 -0.5315 0.315, -0.894 -0.5396 0.315, 0.9055 -0.5118 0.315, 0.8661 -0.5512 0.315, 0.8763 -0.5498 0.315, 0.8661 0.5512 0.315, -0.8661 0.5512 0.315, -0.8763 0.5498 0.315, -0.8858 -0.5459 0.315, -0.8763 -0.5498 0.315, 0.8858 0.5459 0.315, 0.9042 0.522 0.315, 0.894 0.5396 0.315, 0.9002 0.5315 0.315, 0.9055 0.5118 0.315, 0.8763 0.5498 0.315, 0.8661 0.5563 0.3143, 0.8776 0.5548 0.3143, 0.8661 0.561 0.3123, 0.8789 0.5593 0.3123, 0.8661 0.5651 0.3092, 0.8799 0.5633 0.3092, 0.8661 0.5682 0.3051, 0.8807 0.5663 0.3051, 0.8661 0.5702 0.3004, 0.8813 0.5682 0.3004, 0.8661 0.5709 0.2953, 0.8814 0.5689 0.2953, 0.8884 0.5503 0.3143, 0.8907 0.5544 0.3123, 0.8928 0.558 0.3092, 0.8944 0.5607 0.3051, 0.8953 0.5624 0.3004, 0.8957 0.563 0.2953, 0.8976 0.5433 0.3143, 0.9009 0.5466 0.3123, 0.9038 0.5495 0.3092, 0.906 0.5517 0.3051, 0.9074 0.5531 0.3004, 0.9079 0.5536 0.2953, 0.9046 0.534 0.3143, 0.9088 0.5364 0.3123, 0.9123 0.5385 0.3092, 0.915 0.54 0.3051, 0.9167 0.541 0.3004, 0.9173 0.5413 0.2953, 0.9091 0.5233 0.3143, 0.9137 0.5245 0.3123, 0.9176 0.5256 0.3092, 0.9206 0.5264 0.3051, 0.9225 0.5269 0.3004, 0.9232 0.5271 0.2953, 0.9106 0.5118 0.3143, 0.9154 0.5118 0.3123, 0.9194 0.5118 0.3092, 0.9226 0.5118 0.3051, 0.9245 0.5118 0.3004, 0.9252 0.5118 0.2953, -0.8661 0.5563 0.3143, -0.8661 0.561 0.3123, -0.8661 0.5651 0.3092, -0.8661 0.5682 0.3051, -0.8661 0.5702 0.3004, -0.8661 0.5709 0.2953, 0.9106 -0.5118 0.3143, 0.9154 -0.5118 0.3123, 0.9194 -0.5118 0.3092, 0.9226 -0.5118 0.3051, 0.9245 -0.5118 0.3004, 0.9252 -0.5118 0.2953, 0.9252 -0.5118 0.2953
            ]
        }
        coordIndex [
            0,1,2,-1,3,4,5,-1,0,2,6,-1,7,8,9,-1,9,8,10,-1,9,10,11,-1,5,12,13,-1,4,3,14,-1,14,3,15,-1,14,15,2,-1,2,15,16,-1,2,16,6,-1,14,17,4,-1,4,17,18,-1,4,18,10,-1,10,18,19,-1,10,19,11,-1,13,20,5,-1,5,20,21,-1,5,21,3,-1,22,23,24,-1,24,23,25,-1,14,26,17,-1,17,26,23,-1,17,23,27,-1,27,23,22,-1,17,27,28,-1,28,27,29,-1,28,29,30,-1,30,29,31,-1,30,31,32,-1,32,31,33,-1,32,33,34,-1,34,33,35,-1,34,35,36,-1,36,35,37,-1,36,37,38,-1,38,37,39,-1,27,22,29,-1,29,22,40,-1,29,40,31,-1,31,40,41,-1,31,41,33,-1,33,41,42,-1,33,42,35,-1,35,42,43,-1,35,43,37,-1,37,43,44,-1,37,44,39,-1,39,44,45,-1,22,24,40,-1,40,24,46,-1,40,46,41,-1,41,46,47,-1,41,47,42,-1,42,47,48,-1,42,48,43,-1,43,48,49,-1,43,49,44,-1,44,49,50,-1,44,50,45,-1,45,50,51,-1,24,25,46,-1,46,25,52,-1,46,52,47,-1,47,52,53,-1,47,53,48,-1,48,53,54,-1,48,54,49,-1,49,54,55,-1,49,55,50,-1,50,55,56,-1,50,56,51,-1,51,56,57,-1,25,23,52,-1,52,23,58,-1,52,58,53,-1,53,58,59,-1,53,59,54,-1,54,59,60,-1,54,60,55,-1,55,60,61,-1,55,61,56,-1,56,61,62,-1,56,62,57,-1,57,62,63,-1,23,26,58,-1,58,26,64,-1,58,64,59,-1,59,64,65,-1,59,65,60,-1,60,65,66,-1,60,66,61,-1,61,66,67,-1,61,67,62,-1,62,67,68,-1,62,68,63,-1,63,68,69,-1,18,17,28,-1,18,28,70,-1,70,28,30,-1,70,30,71,-1,71,30,32,-1,71,32,72,-1,72,32,34,-1,72,34,73,-1,73,34,36,-1,73,36,74,-1,74,36,38,-1,74,38,75,-1,26,14,76,-1,26,76,64,-1,64,76,77,-1,64,77,65,-1,65,77,78,-1,65,78,66,-1,66,78,79,-1,66,79,67,-1,67,79,80,-1,67,80,68,-1,68,80,81,-1,68,81,69,-1,
        ]
    }
}
Shape{
    appearance Appearance {
        material  Material 	{
            diffuseColor 0.8274509803921568 0.6666666666666666 0.12941176470588237
            specularColor 0.8274509803921568 0.6666666666666666 0.12941176470588237
            ambientIntensity 0.2
            transparency 0
            shininess 0.5
        }
    }
    geometry IndexedFaceSet {
        ccw TRUE
        solid FALSE
        coord DEF co Coordinate {
            point [
                0.8661 0.5906 0.2756, 0.8661 0.5855 0.2763, 0.8865 0.5879 0.2756, 0.8852 0.5829 0.2763, 0.9055 0.58 0.2756, 0.903 0.5756 0.2763, 0.9218 0.5675 0.2756, 0.9182 0.5639 0.2763, 0.9343 0.5512 0.2756, 0.9299 0.5486 0.2763, 0.9422 0.5322 0.2756, 0.9373 0.5309 0.2763, 0.9449 0.5118 0.2756, 0.9398 0.5118 0.2763, 0.8661 0.5807 0.2782, 0.884 0.5784 0.2782, 0.9006 0.5715 0.2782, 0.9149 0.5605 0.2782, 0.9258 0.5463 0.2782, 0.9327 0.5296 0.2782, 0.935 0.5118 0.2782, 0.8661 0.5766 0.2814, 0.8829 0.5744 0.2814, 0.8986 0.5679 0.2814, 0.912 0.5576 0.2814, 0.9223 0.5442 0.2814, 0.9288 0.5286 0.2814, 0.931 0.5118 0.2814, 0.8661 0.5735 0.2854, 0.8821 0.5714 0.2854, 0.897 0.5652 0.2854, 0.9098 0.5554 0.2854, 0.9196 0.5427 0.2854, 0.9257 0.5278 0.2854, 0.9278 0.5118 0.2854, 0.8661 0.5715 0.2902, 0.8816 0.5695 0.2902, 0.896 0.5635 0.2902, 0.9084 0.554 0.2902, 0.9179 0.5417 0.2902, 0.9238 0.5273 0.2902, 0.9259 0.5118 0.2902, 0.8661 0.5709 0.2953, 0.8814 0.5689 0.2953, 0.8957 0.563 0.2953, 0.9079 0.5536 0.2953, 0.9173 0.5413 0.2953, 0.9232 0.5271 0.2953, 0.9252 0.5118 0.2953, -0.8661 0.5709 0.2953, -0.8661 0.5715 0.2902, -0.8661 0.5735 0.2854, -0.8661 0.5766 0.2814, -0.8661 0.5807 0.2782, -0.8661 0.5855 0.2763, -0.8661 0.5906 0.2756, -0.8661 0.5906 0.2756
            ]
        }
        coordIndex [
            0,1,2,-1,2,1,3,-1,2,3,4,-1,4,3,5,-1,4,5,6,-1,6,5,7,-1,6,7,8,-1,8,7,9,-1,8,9,10,-1,10,9,11,-1,10,11,12,-1,12,11,13,-1,1,14,3,-1,3,14,15,-1,3,15,5,-1,5,15,16,-1,5,16,7,-1,7,16,17,-1,7,17,9,-1,9,17,18,-1,9,18,11,-1,11,18,19,-1,11,19,13,-1,13,19,20,-1,14,21,15,-1,15,21,22,-1,15,22,16,-1,16,22,23,-1,16,23,17,-1,17,23,24,-1,17,24,18,-1,18,24,25,-1,18,25,19,-1,19,25,26,-1,19,26,20,-1,20,26,27,-1,21,28,22,-1,22,28,29,-1,22,29,23,-1,23,29,30,-1,23,30,24,-1,24,30,31,-1,24,31,25,-1,25,31,32,-1,25,32,26,-1,26,32,33,-1,26,33,27,-1,27,33,34,-1,28,35,29,-1,29,35,36,-1,29,36,30,-1,30,36,37,-1,30,37,31,-1,31,37,38,-1,31,38,32,-1,32,38,39,-1,32,39,33,-1,33,39,40,-1,33,40,34,-1,34,40,41,-1,35,42,36,-1,36,42,43,-1,36,43,37,-1,37,43,44,-1,37,44,38,-1,38,44,45,-1,38,45,39,-1,39,45,46,-1,39,46,40,-1,40,46,47,-1,40,47,41,-1,41,47,48,-1,49,42,50,-1,50,42,35,-1,50,35,51,-1,51,35,28,-1,51,28,52,-1,52,28,21,-1,52,21,53,-1,53,21,14,-1,53,14,54,-1,54,14,1,-1,54,1,55,-1,55,1,0,-1,
        ]
    }
}
Shape{
    appearance Appearance {
        material  Material 	{
            diffuseColor 0.6666666666666666 0.6666666666666666 0.6666666666666666
            specularColor 0.4666666666666667 0.4666666666666667 0.4666666666666667
            ambientIntensity 0.2
            transparency 0
            shininess 0.5
        }
    }
    geometry IndexedFaceSet {
        ccw TRUE
        solid FALSE
        coord DEF co Coordinate {
            point [
                -0.9055 0.5118 0.315, -0.9042 0.522 0.315, -0.9106 0.5118 0.3143, -0.9091 0.5233 0.3143, -0.9154 0.5118 0.3123, -0.9137 0.5245 0.3123, -0.9194 0.5118 0.3092, -0.9176 0.5256 0.3092, -0.9226 0.5118 0.3051, -0.9206 0.5264 0.3051, -0.9245 0.5118 0.3004, -0.9225 0.5269 0.3004, -0.9252 0.5118 0.2953, -0.9232 0.5271 0.2953, -0.9002 0.5315 0.315, -0.9046 0.534 0.3143, -0.9088 0.5364 0.3123, -0.9123 0.5385 0.3092, -0.915 0.54 0.3051, -0.9167 0.541 0.3004, -0.9173 0.5413 0.2953, -0.894 0.5396 0.315, -0.8976 0.5433 0.3143, -0.9009 0.5466 0.3123, -0.9038 0.5495 0.3092, -0.906 0.5517 0.3051, -0.9074 0.5531 0.3004, -0.9079 0.5536 0.2953, -0.8858 0.5459 0.315, -0.8884 0.5503 0.3143, -0.8907 0.5544 0.3123, -0.8928 0.558 0.3092, -0.8944 0.5607 0.3051, -0.8953 0.5624 0.3004, -0.8957 0.563 0.2953, -0.8763 0.5498 0.315, -0.8776 0.5548 0.3143, -0.8789 0.5593 0.3123, -0.8799 0.5633 0.3092, -0.8807 0.5663 0.3051, -0.8813 0.5682 0.3004, -0.8814 0.5689 0.2953, -0.8661 0.5512 0.315, -0.8661 0.5563 0.3143, -0.8661 0.561 0.3123, -0.8661 0.5651 0.3092, -0.8661 0.5682 0.3051, -0.8661 0.5702 0.3004, -0.8661 0.5709 0.2953, 0.9055 -0.5118 0.315, 0.9042 -0.522 0.315, 0.9106 -0.5118 0.3143, 0.9091 -0.5233 0.3143, 0.9154 -0.5118 0.3123, 0.9137 -0.5245 0.3123, 0.9194 -0.5118 0.3092, 0.9176 -0.5256 0.3092, 0.9226 -0.5118 0.3051, 0.9206 -0.5264 0.3051, 0.9245 -0.5118 0.3004, 0.9225 -0.5269 0.3004, 0.9252 -0.5118 0.2953, 0.9232 -0.5271 0.2953, 0.9002 -0.5315 0.315, 0.9046 -0.534 0.3143, 0.9088 -0.5364 0.3123, 0.9123 -0.5385 0.3092, 0.915 -0.54 0.3051, 0.9167 -0.541 0.3004, 0.9173 -0.5413 0.2953, 0.894 -0.5396 0.315, 0.8976 -0.5433 0.3143, 0.9009 -0.5466 0.3123, 0.9038 -0.5495 0.3092, 0.906 -0.5517 0.3051, 0.9074 -0.5531 0.3004, 0.9079 -0.5536 0.2953, 0.8858 -0.5459 0.315, 0.8884 -0.5503 0.3143, 0.8907 -0.5544 0.3123, 0.8928 -0.558 0.3092, 0.8944 -0.5607 0.3051, 0.8953 -0.5624 0.3004, 0.8957 -0.563 0.2953, 0.8763 -0.5498 0.315, 0.8776 -0.5548 0.3143, 0.8789 -0.5593 0.3123, 0.8799 -0.5633 0.3092, 0.8807 -0.5663 0.3051, 0.8813 -0.5682 0.3004, 0.8814 -0.5689 0.2953, 0.8661 -0.5512 0.315, 0.8661 -0.5563 0.3143, 0.8661 -0.561 0.3123, 0.8661 -0.5651 0.3092, 0.8661 -0.5682 0.3051, 0.8661 -0.5702 0.3004, 0.8661 -0.5709 0.2953, 0.8661 -0.5709 0.2953
            ]
        }
        coordIndex [
            0,1,2,-1,2,1,3,-1,2,3,4,-1,4,3,5,-1,4,5,6,-1,6,5,7,-1,6,7,8,-1,8,7,9,-1,8,9,10,-1,10,9,11,-1,10,11,12,-1,12,11,13,-1,1,14,3,-1,3,14,15,-1,3,15,5,-1,5,15,16,-1,5,16,7,-1,7,16,17,-1,7,17,9,-1,9,17,18,-1,9,18,11,-1,11,18,19,-1,11,19,13,-1,13,19,20,-1,14,21,15,-1,15,21,22,-1,15,22,16,-1,16,22,23,-1,16,23,17,-1,17,23,24,-1,17,24,18,-1,18,24,25,-1,18,25,19,-1,19,25,26,-1,19,26,20,-1,20,26,27,-1,21,28,22,-1,22,28,29,-1,22,29,23,-1,23,29,30,-1,23,30,24,-1,24,30,31,-1,24,31,25,-1,25,31,32,-1,25,32,26,-1,26,32,33,-1,26,33,27,-1,27,33,34,-1,28,35,29,-1,29,35,36,-1,29,36,30,-1,30,36,37,-1,30,37,31,-1,31,37,38,-1,31,38,32,-1,32,38,39,-1,32,39,33,-1,33,39,40,-1,33,40,34,-1,34,40,41,-1,35,42,36,-1,36,42,43,-1,36,43,37,-1,37,43,44,-1,37,44,38,-1,38,44,45,-1,38,45,39,-1,39,45,46,-1,39,46,40,-1,40,46,47,-1,40,47,41,-1,41,47,48,-1,49,50,51,-1,51,50,52,-1,51,52,53,-1,53,52,54,-1,53,54,55,-1,55,54,56,-1,55,56,57,-1,57,56,58,-1,57,58,59,-1,59,58,60,-1,59,60,61,-1,61,60,62,-1,50,63,52,-1,52,63,64,-1,52,64,54,-1,54,64,65,-1,54,65,56,-1,56,65,66,-1,56,66,58,-1,58,66,67,-1,58,67,60,-1,60,67,68,-1,60,68,62,-1,62,68,69,-1,63,70,64,-1,64,70,71,-1,64,71,65,-1,65,71,72,-1,65,72,66,-1,66,72,73,-1,66,73,67,-1,67,73,74,-1,67,74,68,-1,68,74,75,-1,68,75,69,-1,69,75,76,-1,70,77,71,-1,71,77,78,-1,71,78,72,-1,72,78,79,-1,72,79,73,-1,73,79,80,-1,73,80,74,-1,74,80,81,-1,74,81,75,-1,75,81,82,-1,75,82,76,-1,76,82,83,-1,77,84,78,-1,78,84,85,-1,78,85,79,-1,79,85,86,-1,79,86,80,-1,80,86,87,-1,80,87,81,-1,81,87,88,-1,81,88,82,-1,82,88,89,-1,82,89,83,-1,83,89,90,-1,84,91,85,-1,85,91,92,-1,85,92,86,-1,86,92,93,-1,86,93,87,-1,87,93,94,-1,87,94,88,-1,88,94,95,-1,88,95,89,-1,89,95,96,-1,89,96,90,-1,90,96,97,-1,
        ]
    }
}
Shape{
    appearance Appearance {
        material  Material 	{
            diffuseColor 0.8274509803921568 0.6666666666666666 0.12941176470588237
            specularColor 0.8274509803921568 0.6666666666666666 0.12941176470588237
            ambientIntensity 0.2
            transparency 0
            shininess 0.5
        }
    }
    geometry IndexedFaceSet {
        ccw TRUE
        solid FALSE
        coord DEF co Coordinate {
            point [
                0.9252 0.5118 0.2953, 0.9252 -0.5118 0.2953, 0.9259 0.5118 0.2902, 0.9259 -0.5118 0.2902, 0.9278 0.5118 0.2854, 0.9278 -0.5118 0.2854, 0.931 0.5118 0.2814, 0.931 -0.5118 0.2814, 0.935 0.5118 0.2782, 0.935 -0.5118 0.2782, 0.9398 0.5118 0.2763, 0.9398 -0.5118 0.2763, 0.9449 0.5118 0.2756, 0.9449 -0.5118 0.2756, -0.9449 0.5118 0.2756, -0.9398 0.5118 0.2763, -0.9422 0.5322 0.2756, -0.9373 0.5309 0.2763, -0.9343 0.5512 0.2756, -0.9299 0.5486 0.2763, -0.9218 0.5675 0.2756, -0.9182 0.5639 0.2763, -0.9055 0.58 0.2756, -0.903 0.5756 0.2763, -0.8865 0.5879 0.2756, -0.8852 0.5829 0.2763, -0.8661 0.5906 0.2756, -0.8661 0.5855 0.2763, -0.935 0.5118 0.2782, -0.9327 0.5296 0.2782, -0.9258 0.5463 0.2782, -0.9149 0.5605 0.2782, -0.9006 0.5715 0.2782, -0.884 0.5784 0.2782, -0.8661 0.5807 0.2782, -0.931 0.5118 0.2814, -0.9288 0.5286 0.2814, -0.9223 0.5442 0.2814, -0.912 0.5576 0.2814, -0.8986 0.5679 0.2814, -0.8829 0.5744 0.2814, -0.8661 0.5766 0.2814, -0.9278 0.5118 0.2854, -0.9257 0.5278 0.2854, -0.9196 0.5427 0.2854, -0.9098 0.5554 0.2854, -0.897 0.5652 0.2854, -0.8821 0.5714 0.2854, -0.8661 0.5735 0.2854, -0.9259 0.5118 0.2902, -0.9238 0.5273 0.2902, -0.9179 0.5417 0.2902, -0.9084 0.554 0.2902, -0.896 0.5635 0.2902, -0.8816 0.5695 0.2902, -0.8661 0.5715 0.2902, -0.9252 0.5118 0.2953, -0.9232 0.5271 0.2953, -0.9173 0.5413 0.2953, -0.9079 0.5536 0.2953, -0.8957 0.563 0.2953, -0.8814 0.5689 0.2953, -0.8661 0.5709 0.2953, -0.8661 0.5709 0.2953
            ]
        }
        coordIndex [
            0,1,2,-1,2,1,3,-1,2,3,4,-1,4,3,5,-1,4,5,6,-1,6,5,7,-1,6,7,8,-1,8,7,9,-1,8,9,10,-1,10,9,11,-1,10,11,12,-1,12,11,13,-1,14,15,16,-1,16,15,17,-1,16,17,18,-1,18,17,19,-1,18,19,20,-1,20,19,21,-1,20,21,22,-1,22,21,23,-1,22,23,24,-1,24,23,25,-1,24,25,26,-1,26,25,27,-1,15,28,17,-1,17,28,29,-1,17,29,19,-1,19,29,30,-1,19,30,21,-1,21,30,31,-1,21,31,23,-1,23,31,32,-1,23,32,25,-1,25,32,33,-1,25,33,27,-1,27,33,34,-1,28,35,29,-1,29,35,36,-1,29,36,30,-1,30,36,37,-1,30,37,31,-1,31,37,38,-1,31,38,32,-1,32,38,39,-1,32,39,33,-1,33,39,40,-1,33,40,34,-1,34,40,41,-1,35,42,36,-1,36,42,43,-1,36,43,37,-1,37,43,44,-1,37,44,38,-1,38,44,45,-1,38,45,39,-1,39,45,46,-1,39,46,40,-1,40,46,47,-1,40,47,41,-1,41,47,48,-1,42,49,43,-1,43,49,50,-1,43,50,44,-1,44,50,51,-1,44,51,45,-1,45,51,52,-1,45,52,46,-1,46,52,53,-1,46,53,47,-1,47,53,54,-1,47,54,48,-1,48,54,55,-1,49,56,50,-1,50,56,57,-1,50,57,51,-1,51,57,58,-1,51,58,52,-1,52,58,59,-1,52,59,53,-1,53,59,60,-1,53,60,54,-1,54,60,61,-1,54,61,55,-1,55,61,62,-1,
        ]
    }
}
Shape{
    appearance Appearance {
        material  Material 	{
            diffuseColor 0.6666666666666666 0.6666666666666666 0.6666666666666666
            specularColor 0.4666666666666667 0.4666666666666667 0.4666666666666667
            ambientIntensity 0.2
            transparency 0
            shininess 0.5
        }
    }
    geometry IndexedFaceSet {
        ccw TRUE
        solid FALSE
        coord DEF co Coordinate {
            point [
                -0.9055 -0.5118 0.315, -0.9055 0.5118 0.315, -0.9106 0.5118 0.3143, -0.9106 -0.5118 0.3143, -0.9154 0.5118 0.3123, -0.9154 -0.5118 0.3123, -0.9194 0.5118 0.3092, -0.9194 -0.5118 0.3092, -0.9226 0.5118 0.3051, -0.9226 -0.5118 0.3051, -0.9245 0.5118 0.3004, -0.9245 -0.5118 0.3004, -0.9252 0.5118 0.2953, -0.9252 -0.5118 0.2953, 0.8661 -0.5512 0.315, -0.8661 -0.5512 0.315, -0.8661 -0.5563 0.3143, 0.8661 -0.5563 0.3143, -0.8661 -0.561 0.3123, 0.8661 -0.561 0.3123, -0.8661 -0.5651 0.3092, 0.8661 -0.5651 0.3092, -0.8661 -0.5682 0.3051, 0.8661 -0.5682 0.3051, -0.8661 -0.5702 0.3004, 0.8661 -0.5702 0.3004, -0.8661 -0.5709 0.2953, 0.8661 -0.5709 0.2953, 0.8661 -0.5709 0.2953
            ]
        }
        coordIndex [
            0,1,2,-1,0,2,3,-1,3,2,4,-1,3,4,5,-1,5,4,6,-1,5,6,7,-1,7,6,8,-1,7,8,9,-1,9,8,10,-1,9,10,11,-1,11,10,12,-1,11,12,13,-1,14,15,16,-1,14,16,17,-1,17,16,18,-1,17,18,19,-1,19,18,20,-1,19,20,21,-1,21,20,22,-1,21,22,23,-1,23,22,24,-1,23,24,25,-1,25,24,26,-1,25,26,27,-1,
        ]
    }
}
Shape{
    appearance Appearance {
        material  Material 	{
            diffuseColor 0.8274509803921568 0.6666666666666666 0.12941176470588237
            specularColor 0.8274509803921568 0.6666666666666666 0.12941176470588237
            ambientIntensity 0.2
            transparency 0
            shininess 0.5
        }
    }
    geometry IndexedFaceSet {
        ccw TRUE
        solid FALSE
        coord DEF co Coordinate {
            point [
                0.9449 -0.5118 0.2756, 0.9398 -0.5118 0.2763, 0.9422 -0.5322 0.2756, 0.9373 -0.5309 0.2763, 0.9343 -0.5512 0.2756, 0.9299 -0.5486 0.2763, 0.9218 -0.5675 0.2756, 0.9182 -0.5639 0.2763, 0.9055 -0.58 0.2756, 0.903 -0.5756 0.2763, 0.8865 -0.5879 0.2756, 0.8852 -0.5829 0.2763, 0.8661 -0.5906 0.2756, 0.8661 -0.5855 0.2763, 0.935 -0.5118 0.2782, 0.9327 -0.5296 0.2782, 0.9258 -0.5463 0.2782, 0.9149 -0.5605 0.2782, 0.9006 -0.5715 0.2782, 0.884 -0.5784 0.2782, 0.8661 -0.5807 0.2782, 0.931 -0.5118 0.2814, 0.9288 -0.5286 0.2814, 0.9223 -0.5442 0.2814, 0.912 -0.5576 0.2814, 0.8986 -0.5679 0.2814, 0.8829 -0.5744 0.2814, 0.8661 -0.5766 0.2814, 0.9278 -0.5118 0.2854, 0.9257 -0.5278 0.2854, 0.9196 -0.5427 0.2854, 0.9098 -0.5554 0.2854, 0.897 -0.5652 0.2854, 0.8821 -0.5714 0.2854, 0.8661 -0.5735 0.2854, 0.9259 -0.5118 0.2902, 0.9238 -0.5273 0.2902, 0.9179 -0.5417 0.2902, 0.9084 -0.554 0.2902, 0.896 -0.5635 0.2902, 0.8816 -0.5695 0.2902, 0.8661 -0.5715 0.2902, 0.9252 -0.5118 0.2953, 0.9232 -0.5271 0.2953, 0.9173 -0.5413 0.2953, 0.9079 -0.5536 0.2953, 0.8957 -0.563 0.2953, 0.8814 -0.5689 0.2953, 0.8661 -0.5709 0.2953, -0.9252 -0.5118 0.2953, -0.9252 0.5118 0.2953, -0.9259 -0.5118 0.2902, -0.9259 0.5118 0.2902, -0.9278 -0.5118 0.2854, -0.9278 0.5118 0.2854, -0.931 -0.5118 0.2814, -0.931 0.5118 0.2814, -0.935 -0.5118 0.2782, -0.935 0.5118 0.2782, -0.9398 -0.5118 0.2763, -0.9398 0.5118 0.2763, -0.9449 -0.5118 0.2756, -0.9449 0.5118 0.2756, -0.9449 0.5118 0.2756
            ]
        }
        coordIndex [
            0,1,2,-1,2,1,3,-1,2,3,4,-1,4,3,5,-1,4,5,6,-1,6,5,7,-1,6,7,8,-1,8,7,9,-1,8,9,10,-1,10,9,11,-1,10,11,12,-1,12,11,13,-1,1,14,3,-1,3,14,15,-1,3,15,5,-1,5,15,16,-1,5,16,7,-1,7,16,17,-1,7,17,9,-1,9,17,18,-1,9,18,11,-1,11,18,19,-1,11,19,13,-1,13,19,20,-1,14,21,15,-1,15,21,22,-1,15,22,16,-1,16,22,23,-1,16,23,17,-1,17,23,24,-1,17,24,18,-1,18,24,25,-1,18,25,19,-1,19,25,26,-1,19,26,20,-1,20,26,27,-1,21,28,22,-1,22,28,29,-1,22,29,23,-1,23,29,30,-1,23,30,24,-1,24,30,31,-1,24,31,25,-1,25,31,32,-1,25,32,26,-1,26,32,33,-1,26,33,27,-1,27,33,34,-1,28,35,29,-1,29,35,36,-1,29,36,30,-1,30,36,37,-1,30,37,31,-1,31,37,38,-1,31,38,32,-1,32,38,39,-1,32,39,33,-1,33,39,40,-1,33,40,34,-1,34,40,41,-1,35,42,36,-1,36,42,43,-1,36,43,37,-1,37,43,44,-1,37,44,38,-1,38,44,45,-1,38,45,39,-1,39,45,46,-1,39,46,40,-1,40,46,47,-1,40,47,41,-1,41,47,48,-1,49,50,51,-1,51,50,52,-1,51,52,53,-1,53,52,54,-1,53,54,55,-1,55,54,56,-1,55,56,57,-1,57,56,58,-1,57,58,59,-1,59,58,60,-1,59,60,61,-1,61,60,62,-1,
        ]
    }
}
Shape{
    appearance Appearance {
        material  Material 	{
            diffuseColor 0.6666666666666666 0.6666666666666666 0.6666666666666666
            specularColor 0.4666666666666667 0.4666666666666667 0.4666666666666667
            ambientIntensity 0.2
            transparency 0
            shininess 0.5
        }
    }
    geometry IndexedFaceSet {
        ccw TRUE
        solid FALSE
        coord DEF co Coordinate {
            point [
                -0.8661 -0.5512 0.315, -0.8763 -0.5498 0.315, -0.8661 -0.5563 0.3143, -0.8776 -0.5548 0.3143, -0.8661 -0.561 0.3123, -0.8789 -0.5593 0.3123, -0.8661 -0.5651 0.3092, -0.8799 -0.5633 0.3092, -0.8661 -0.5682 0.3051, -0.8807 -0.5663 0.3051, -0.8661 -0.5702 0.3004, -0.8813 -0.5682 0.3004, -0.8661 -0.5709 0.2953, -0.8814 -0.5689 0.2953, -0.8858 -0.5459 0.315, -0.8884 -0.5503 0.3143, -0.8907 -0.5544 0.3123, -0.8928 -0.558 0.3092, -0.8944 -0.5607 0.3051, -0.8953 -0.5624 0.3004, -0.8957 -0.563 0.2953, -0.894 -0.5396 0.315, -0.8976 -0.5433 0.3143, -0.9009 -0.5466 0.3123, -0.9038 -0.5495 0.3092, -0.906 -0.5517 0.3051, -0.9074 -0.5531 0.3004, -0.9079 -0.5536 0.2953, -0.9002 -0.5315 0.315, -0.9046 -0.534 0.3143, -0.9088 -0.5364 0.3123, -0.9123 -0.5385 0.3092, -0.915 -0.54 0.3051, -0.9167 -0.541 0.3004, -0.9173 -0.5413 0.2953, -0.9042 -0.522 0.315, -0.9091 -0.5233 0.3143, -0.9137 -0.5245 0.3123, -0.9176 -0.5256 0.3092, -0.9206 -0.5264 0.3051, -0.9225 -0.5269 0.3004, -0.9232 -0.5271 0.2953, -0.9055 -0.5118 0.315, -0.9106 -0.5118 0.3143, -0.9154 -0.5118 0.3123, -0.9194 -0.5118 0.3092, -0.9226 -0.5118 0.3051, -0.9245 -0.5118 0.3004, -0.9252 -0.5118 0.2953, -0.9252 -0.5118 0.2953
            ]
        }
        coordIndex [
            0,1,2,-1,2,1,3,-1,2,3,4,-1,4,3,5,-1,4,5,6,-1,6,5,7,-1,6,7,8,-1,8,7,9,-1,8,9,10,-1,10,9,11,-1,10,11,12,-1,12,11,13,-1,1,14,3,-1,3,14,15,-1,3,15,5,-1,5,15,16,-1,5,16,7,-1,7,16,17,-1,7,17,9,-1,9,17,18,-1,9,18,11,-1,11,18,19,-1,11,19,13,-1,13,19,20,-1,14,21,15,-1,15,21,22,-1,15,22,16,-1,16,22,23,-1,16,23,17,-1,17,23,24,-1,17,24,18,-1,18,24,25,-1,18,25,19,-1,19,25,26,-1,19,26,20,-1,20,26,27,-1,21,28,22,-1,22,28,29,-1,22,29,23,-1,23,29,30,-1,23,30,24,-1,24,30,31,-1,24,31,25,-1,25,31,32,-1,25,32,26,-1,26,32,33,-1,26,33,27,-1,27,33,34,-1,28,35,29,-1,29,35,36,-1,29,36,30,-1,30,36,37,-1,30,37,31,-1,31,37,38,-1,31,38,32,-1,32,38,39,-1,32,39,33,-1,33,39,40,-1,33,40,34,-1,34,40,41,-1,35,42,36,-1,36,42,43,-1,36,43,37,-1,37,43,44,-1,37,44,38,-1,38,44,45,-1,38,45,39,-1,39,45,46,-1,39,46,40,-1,40,46,47,-1,40,47,41,-1,41,47,48,-1,
        ]
    }
}
Shape{
    appearance Appearance {
        material  Material 	{
            diffuseColor 0.8274509803921568 0.6666666666666666 0.12941176470588237
            specularColor 0.8274509803921568 0.6666666666666666 0.12941176470588237
            ambientIntensity 0.2
            transparency 0
            shininess 0.5
        }
    }
    geometry IndexedFaceSet {
        ccw TRUE
        solid FALSE
        coord DEF co Coordinate {
            point [
                0.8661 -0.5709 0.2953, -0.8661 -0.5709 0.2953, 0.8661 -0.5715 0.2902, -0.8661 -0.5715 0.2902, 0.8661 -0.5735 0.2854, -0.8661 -0.5735 0.2854, 0.8661 -0.5766 0.2814, -0.8661 -0.5766 0.2814, 0.8661 -0.5807 0.2782, -0.8661 -0.5807 0.2782, 0.8661 -0.5855 0.2763, -0.8661 -0.5855 0.2763, 0.8661 -0.5906 0.2756, -0.8661 -0.5906 0.2756, -0.8865 -0.5879 0.2756, -0.8852 -0.5829 0.2763, -0.9055 -0.58 0.2756, -0.903 -0.5756 0.2763, -0.9218 -0.5675 0.2756, -0.9182 -0.5639 0.2763, -0.9343 -0.5512 0.2756, -0.9299 -0.5486 0.2763, -0.9422 -0.5322 0.2756, -0.9373 -0.5309 0.2763, -0.9449 -0.5118 0.2756, -0.9398 -0.5118 0.2763, -0.884 -0.5784 0.2782, -0.9006 -0.5715 0.2782, -0.9149 -0.5605 0.2782, -0.9258 -0.5463 0.2782, -0.9327 -0.5296 0.2782, -0.935 -0.5118 0.2782, -0.8829 -0.5744 0.2814, -0.8986 -0.5679 0.2814, -0.912 -0.5576 0.2814, -0.9223 -0.5442 0.2814, -0.9288 -0.5286 0.2814, -0.931 -0.5118 0.2814, -0.8821 -0.5714 0.2854, -0.897 -0.5652 0.2854, -0.9098 -0.5554 0.2854, -0.9196 -0.5427 0.2854, -0.9257 -0.5278 0.2854, -0.9278 -0.5118 0.2854, -0.8816 -0.5695 0.2902, -0.896 -0.5635 0.2902, -0.9084 -0.554 0.2902, -0.9179 -0.5417 0.2902, -0.9238 -0.5273 0.2902, -0.9259 -0.5118 0.2902, -0.8814 -0.5689 0.2953, -0.8957 -0.563 0.2953, -0.9079 -0.5536 0.2953, -0.9173 -0.5413 0.2953, -0.9232 -0.5271 0.2953, -0.9252 -0.5118 0.2953, 0.8854 0.5963 0.1772, 0.8661 0.5984 0.1772, 0.8661 0.5964 0.1774, 0.9037 0.5898 0.1772, 0.885 0.5943 0.1774, 0.9201 0.5795 0.1772, 0.9028 0.588 0.1774, 0.9467 0.5302 0.1782, 0.9507 0.5118 0.1774, 0.9486 0.5306 0.1774, 0.9528 0.5118 0.1772, 0.9506 0.5311 0.1772, 0.9392 0.547 0.1795, 0.9406 0.5477 0.1782, 0.9423 0.5485 0.1774, 0.9442 0.5494 0.1772, 0.9285 0.5616 0.1811, 0.9295 0.5623 0.1795, 0.9308 0.5634 0.1782, 0.9323 0.5645 0.1774, 0.9339 0.5658 0.1772, 0.9154 0.5736 0.183, 0.9159 0.5742 0.1811, 0.9167 0.5752 0.1795, 0.9177 0.5765 0.1782, 0.9189 0.5779 0.1774, 0.9373 0.5461 0.183, 0.9432 0.5294 0.183, 0.9439 0.5296 0.1811, 0.9472 0.5118 0.1795, 0.9459 0.5118 0.1811, 0.9452 0.5118 0.183, 0.9429 0.5293 0.185, 0.9449 0.5118 0.185, 0.9215 0.5671 0.185, 0.9277 0.5609 0.185, 0.9279 0.5611 0.183, 0.938 0.5464 0.1811, 0.9452 0.5298 0.1795, 0.9488 0.5118 0.1782, 0.934 0.5509 0.185, 0.9371 0.546 0.185, 0.9419 0.5321 0.185, 0.9152 0.5734 0.185, 0.9004 0.583 0.183, 0.9003 0.5828 0.185, 0.9053 0.5796 0.185, 0.902 0.5863 0.1782, 0.9013 0.5848 0.1795, 0.9008 0.5837 0.1811, 0.8837 0.5888 0.183, 0.8837 0.5886 0.185, 0.8864 0.5876 0.185, 0.8845 0.5924 0.1782, 0.8842 0.5908 0.1795, 0.8839 0.5896 0.1811, 0.8661 0.5945 0.1782, 0.8661 0.5929 0.1795, 0.8661 0.5916 0.1811, 0.8661 0.5908 0.183, 0.8661 0.5906 0.185, -0.8661 0.5906 0.185, -0.8661 0.5908 0.183, -0.8661 0.5916 0.1811, -0.8661 0.5929 0.1795, -0.8661 0.5945 0.1782, -0.8661 0.5964 0.1774, -0.8661 0.5984 0.1772, 0.9449 -0.5118 0.185, 0.9452 -0.5118 0.183, 0.9459 -0.5118 0.1811, 0.9472 -0.5118 0.1795, 0.9488 -0.5118 0.1782, 0.9507 -0.5118 0.1774, 0.9528 -0.5118 0.1772, -0.9053 0.5796 0.185, -0.9003 0.5828 0.185, -0.9004 0.583 0.183, -0.8864 0.5876 0.185, -0.8837 0.5886 0.185, -0.8837 0.5888 0.183, -0.9506 0.5311 0.1772, -0.9528 0.5118 0.1772, -0.9507 0.5118 0.1774, -0.9442 0.5494 0.1772, -0.9486 0.5306 0.1774, -0.9339 0.5658 0.1772, -0.9423 0.5485 0.1774, -0.9201 0.5795 0.1772, -0.9323 0.5645 0.1774, -0.9037 0.5898 0.1772, -0.9189 0.5779 0.1774, -0.8854 0.5963 0.1772, -0.9028 0.588 0.1774, -0.885 0.5943 0.1774, -0.8845 0.5924 0.1782, -0.8842 0.5908 0.1795, -0.8839 0.5896 0.1811, -0.902 0.5863 0.1782, -0.9013 0.5848 0.1795, -0.9008 0.5837 0.1811, -0.9177 0.5765 0.1782, -0.9167 0.5752 0.1795, -0.9159 0.5742 0.1811, -0.9154 0.5736 0.183, -0.9152 0.5734 0.185, -0.9279 0.5611 0.183, -0.9277 0.5609 0.185, -0.9215 0.5671 0.185, -0.9308 0.5634 0.1782, -0.9295 0.5623 0.1795, -0.9285 0.5616 0.1811, -0.9373 0.5461 0.183, -0.9371 0.546 0.185, -0.934 0.5509 0.185, -0.9406 0.5477 0.1782, -0.9392 0.547 0.1795, -0.938 0.5464 0.1811, -0.9432 0.5294 0.183, -0.9429 0.5293 0.185, -0.9419 0.5321 0.185, -0.9467 0.5302 0.1782, -0.9452 0.5298 0.1795, -0.9439 0.5296 0.1811, -0.9488 0.5118 0.1782, -0.9472 0.5118 0.1795, -0.9459 0.5118 0.1811, -0.9452 0.5118 0.183, -0.9449 0.5118 0.185, 0.9053 -0.5796 0.185, 0.9003 -0.5828 0.185, 0.9004 -0.583 0.183, 0.8864 -0.5876 0.185, 0.8837 -0.5886 0.185, 0.8837 -0.5888 0.183, 0.9506 -0.5311 0.1772, 0.9442 -0.5494 0.1772, 0.9486 -0.5306 0.1774, 0.9339 -0.5658 0.1772, 0.9423 -0.5485 0.1774, 0.9201 -0.5795 0.1772, 0.9323 -0.5645 0.1774, 0.9037 -0.5898 0.1772, 0.9189 -0.5779 0.1774, 0.8854 -0.5963 0.1772, 0.9028 -0.588 0.1774, 0.8661 -0.5984 0.1772, 0.885 -0.5943 0.1774, 0.8661 -0.5964 0.1774, 0.8845 -0.5924 0.1782, 0.8661 -0.5945 0.1782, 0.8842 -0.5908 0.1795, 0.8661 -0.5929 0.1795, 0.8839 -0.5896 0.1811, 0.8661 -0.5916 0.1811, 0.8661 -0.5908 0.183, 0.8661 -0.5906 0.185, 0.902 -0.5863 0.1782, 0.9013 -0.5848 0.1795, 0.9008 -0.5837 0.1811, 0.9177 -0.5765 0.1782, 0.9167 -0.5752 0.1795, 0.9159 -0.5742 0.1811, 0.9154 -0.5736 0.183, 0.9152 -0.5734 0.185, 0.9279 -0.5611 0.183, 0.9277 -0.5609 0.185, 0.9215 -0.5671 0.185, 0.9308 -0.5634 0.1782, 0.9295 -0.5623 0.1795, 0.9285 -0.5616 0.1811, 0.9373 -0.5461 0.183, 0.9371 -0.546 0.185, 0.934 -0.5509 0.185, 0.9406 -0.5477 0.1782, 0.9392 -0.547 0.1795, 0.938 -0.5464 0.1811, 0.9432 -0.5294 0.183, 0.9429 -0.5293 0.185, 0.9419 -0.5321 0.185, 0.9467 -0.5302 0.1782, 0.9452 -0.5298 0.1795, 0.9439 -0.5296 0.1811, -0.9451 -0.5118 0.1833, -0.9449 -0.5118 0.185, -0.9452 -0.5118 0.183, -0.9457 -0.5118 0.1816, -0.946 -0.5118 0.1811, -0.9466 -0.5118 0.1801, -0.9472 -0.5118 0.1795, -0.9478 -0.5118 0.1789, -0.9488 -0.5118 0.1783, -0.9493 -0.5118 0.1779, -0.9507 -0.5118 0.1775, -0.951 -0.5118 0.1774, -0.9528 -0.5118 0.1772, -0.8661 -0.5906 0.185, -0.8661 -0.5907 0.1833, -0.8661 -0.5908 0.183, -0.8661 -0.5913 0.1816, -0.8661 -0.5916 0.1811, -0.8661 -0.5923 0.1801, -0.8661 -0.5929 0.1795, -0.8661 -0.5935 0.1789, -0.8661 -0.5945 0.1783, -0.8661 -0.595 0.1779, -0.8661 -0.5964 0.1775, -0.8661 -0.5967 0.1774, -0.8661 -0.5984 0.1772, -0.934 -0.5509 0.185, -0.9371 -0.546 0.185, -0.9373 -0.5461 0.1833, -0.8854 -0.5963 0.1772, -0.9037 -0.5898 0.1772, -0.885 -0.5945 0.1774, -0.9201 -0.5795 0.1772, -0.903 -0.5883 0.1774, -0.9339 -0.5658 0.1772, -0.9191 -0.5782 0.1774, -0.9506 -0.5311 0.1772, -0.9489 -0.5307 0.1774, -0.9473 -0.5303 0.1779, -0.8847 -0.5929 0.1779, -0.9458 -0.53 0.1789, -0.8843 -0.5915 0.1789, -0.9446 -0.5297 0.1801, -0.9378 -0.5463 0.1816, -0.9386 -0.5467 0.1801, -0.9398 -0.5473 0.1789, -0.9411 -0.5479 0.1779, -0.9426 -0.5486 0.1774, -0.9442 -0.5494 0.1772, -0.884 -0.5903 0.1801, -0.9437 -0.5295 0.1816, -0.9279 -0.561 0.1833, -0.9283 -0.5614 0.1816, -0.929 -0.562 0.1801, -0.93 -0.5628 0.1789, -0.9312 -0.5637 0.1779, -0.9325 -0.5647 0.1774, -0.8838 -0.5893 0.1816, -0.9431 -0.5294 0.1833, -0.9022 -0.5868 0.1779, -0.9016 -0.5854 0.1789, -0.9011 -0.5843 0.1801, -0.9006 -0.5835 0.1816, -0.8837 -0.5888 0.1833, -0.9004 -0.5829 0.1833, -0.9429 -0.5293 0.185, -0.9419 -0.5321 0.185, -0.9277 -0.5609 0.185, -0.9154 -0.5735 0.1833, -0.9152 -0.5734 0.185, -0.9215 -0.5671 0.185, -0.918 -0.5769 0.1779, -0.9171 -0.5757 0.1789, -0.9163 -0.5747 0.1801, -0.9157 -0.574 0.1816, -0.9053 -0.5796 0.185, -0.8837 -0.5886 0.185, -0.8864 -0.5876 0.185, -0.9003 -0.5828 0.185, -0.9003 -0.5828 0.185
            ]
        }
        coordIndex [
            0,1,2,-1,2,1,3,-1,2,3,4,-1,4,3,5,-1,4,5,6,-1,6,5,7,-1,6,7,8,-1,8,7,9,-1,8,9,10,-1,10,9,11,-1,10,11,12,-1,12,11,13,-1,13,11,14,-1,14,11,15,-1,14,15,16,-1,16,15,17,-1,16,17,18,-1,18,17,19,-1,18,19,20,-1,20,19,21,-1,20,21,22,-1,22,21,23,-1,22,23,24,-1,24,23,25,-1,11,9,15,-1,15,9,26,-1,15,26,17,-1,17,26,27,-1,17,27,19,-1,19,27,28,-1,19,28,21,-1,21,28,29,-1,21,29,23,-1,23,29,30,-1,23,30,25,-1,25,30,31,-1,9,7,26,-1,26,7,32,-1,26,32,27,-1,27,32,33,-1,27,33,28,-1,28,33,34,-1,28,34,29,-1,29,34,35,-1,29,35,30,-1,30,35,36,-1,30,36,31,-1,31,36,37,-1,7,5,32,-1,32,5,38,-1,32,38,33,-1,33,38,39,-1,33,39,34,-1,34,39,40,-1,34,40,35,-1,35,40,41,-1,35,41,36,-1,36,41,42,-1,36,42,37,-1,37,42,43,-1,5,3,38,-1,38,3,44,-1,38,44,39,-1,39,44,45,-1,39,45,40,-1,40,45,46,-1,40,46,41,-1,41,46,47,-1,41,47,42,-1,42,47,48,-1,42,48,43,-1,43,48,49,-1,3,1,44,-1,44,1,50,-1,44,50,45,-1,45,50,51,-1,45,51,46,-1,46,51,52,-1,46,52,47,-1,47,52,53,-1,47,53,48,-1,48,53,54,-1,48,54,49,-1,49,54,55,-1,56,57,58,-1,59,56,60,-1,61,59,62,-1,63,64,65,-1,65,64,66,-1,65,66,67,-1,68,63,69,-1,69,63,65,-1,69,65,70,-1,70,65,67,-1,70,67,71,-1,72,68,73,-1,73,68,69,-1,73,69,74,-1,74,69,70,-1,74,70,75,-1,75,70,71,-1,75,71,76,-1,77,72,78,-1,78,72,73,-1,78,73,79,-1,79,73,74,-1,79,74,80,-1,80,74,75,-1,80,75,81,-1,81,75,76,-1,81,76,61,-1,82,83,84,-1,85,84,86,-1,86,84,83,-1,86,83,87,-1,87,83,88,-1,87,88,89,-1,90,91,92,-1,92,91,82,-1,92,82,93,-1,93,82,84,-1,93,84,94,-1,94,84,85,-1,94,85,95,-1,91,96,82,-1,82,96,97,-1,82,97,83,-1,83,97,98,-1,83,98,88,-1,99,90,77,-1,77,90,92,-1,77,92,72,-1,72,92,93,-1,72,93,68,-1,68,93,94,-1,68,94,63,-1,63,94,95,-1,63,95,64,-1,100,101,102,-1,61,62,81,-1,81,62,103,-1,81,103,80,-1,80,103,104,-1,80,104,79,-1,79,104,105,-1,79,105,78,-1,78,105,100,-1,78,100,77,-1,77,100,102,-1,77,102,99,-1,106,107,108,-1,59,60,62,-1,62,60,109,-1,62,109,103,-1,103,109,110,-1,103,110,104,-1,104,110,111,-1,104,111,105,-1,105,111,106,-1,105,106,100,-1,100,106,108,-1,100,108,101,-1,56,58,60,-1,60,58,112,-1,60,112,109,-1,109,112,113,-1,109,113,110,-1,110,113,114,-1,110,114,111,-1,111,114,115,-1,111,115,106,-1,106,115,116,-1,106,116,107,-1,117,116,118,-1,118,116,115,-1,118,115,119,-1,119,115,114,-1,119,114,120,-1,120,114,113,-1,120,113,121,-1,121,113,112,-1,121,112,122,-1,122,112,58,-1,122,58,123,-1,123,58,57,-1,89,124,87,-1,87,124,125,-1,87,125,86,-1,86,125,126,-1,86,126,85,-1,85,126,127,-1,85,127,95,-1,95,127,128,-1,95,128,64,-1,64,128,129,-1,64,129,66,-1,66,129,130,-1,131,132,133,-1,134,135,136,-1,137,138,139,-1,140,137,141,-1,142,140,143,-1,144,142,145,-1,146,144,147,-1,148,146,149,-1,123,148,150,-1,123,150,122,-1,122,150,151,-1,122,151,121,-1,121,151,152,-1,121,152,120,-1,120,152,153,-1,120,153,119,-1,119,153,136,-1,119,136,118,-1,118,136,135,-1,118,135,117,-1,148,149,150,-1,150,149,154,-1,150,154,151,-1,151,154,155,-1,151,155,152,-1,152,155,156,-1,152,156,153,-1,153,156,133,-1,153,133,136,-1,136,133,132,-1,136,132,134,-1,146,147,149,-1,149,147,157,-1,149,157,154,-1,154,157,158,-1,154,158,155,-1,155,158,159,-1,155,159,156,-1,156,159,160,-1,156,160,133,-1,133,160,161,-1,133,161,131,-1,162,163,164,-1,144,145,147,-1,147,145,165,-1,147,165,157,-1,157,165,166,-1,157,166,158,-1,158,166,167,-1,158,167,159,-1,159,167,162,-1,159,162,160,-1,160,162,164,-1,160,164,161,-1,168,169,170,-1,142,143,145,-1,145,143,171,-1,145,171,165,-1,165,171,172,-1,165,172,166,-1,166,172,173,-1,166,173,167,-1,167,173,168,-1,167,168,162,-1,162,168,170,-1,162,170,163,-1,174,175,176,-1,140,141,143,-1,143,141,177,-1,143,177,171,-1,171,177,178,-1,171,178,172,-1,172,178,179,-1,172,179,173,-1,173,179,174,-1,173,174,168,-1,168,174,176,-1,168,176,169,-1,137,139,141,-1,141,139,180,-1,141,180,177,-1,177,180,181,-1,177,181,178,-1,178,181,182,-1,178,182,179,-1,179,182,183,-1,179,183,174,-1,174,183,184,-1,174,184,175,-1,185,186,187,-1,188,189,190,-1,191,130,129,-1,192,191,193,-1,194,192,195,-1,196,194,197,-1,198,196,199,-1,200,198,201,-1,202,200,203,-1,202,203,204,-1,204,203,205,-1,204,205,206,-1,206,205,207,-1,206,207,208,-1,208,207,209,-1,208,209,210,-1,210,209,190,-1,210,190,211,-1,211,190,189,-1,211,189,212,-1,200,201,203,-1,203,201,213,-1,203,213,205,-1,205,213,214,-1,205,214,207,-1,207,214,215,-1,207,215,209,-1,209,215,187,-1,209,187,190,-1,190,187,186,-1,190,186,188,-1,198,199,201,-1,201,199,216,-1,201,216,213,-1,213,216,217,-1,213,217,214,-1,214,217,218,-1,214,218,215,-1,215,218,219,-1,215,219,187,-1,187,219,220,-1,187,220,185,-1,221,222,223,-1,196,197,199,-1,199,197,224,-1,199,224,216,-1,216,224,225,-1,216,225,217,-1,217,225,226,-1,217,226,218,-1,218,226,221,-1,218,221,219,-1,219,221,223,-1,219,223,220,-1,227,228,229,-1,194,195,197,-1,197,195,230,-1,197,230,224,-1,224,230,231,-1,224,231,225,-1,225,231,232,-1,225,232,226,-1,226,232,227,-1,226,227,221,-1,221,227,229,-1,221,229,222,-1,233,234,235,-1,192,193,195,-1,195,193,236,-1,195,236,230,-1,230,236,237,-1,230,237,231,-1,231,237,238,-1,231,238,232,-1,232,238,233,-1,232,233,227,-1,227,233,235,-1,227,235,228,-1,191,129,193,-1,193,129,128,-1,193,128,236,-1,236,128,127,-1,236,127,237,-1,237,127,126,-1,237,126,238,-1,238,126,125,-1,238,125,233,-1,233,125,124,-1,233,124,234,-1,239,240,184,-1,239,184,241,-1,241,184,183,-1,241,183,242,-1,242,183,243,-1,243,183,182,-1,243,182,244,-1,244,182,245,-1,245,182,181,-1,245,181,246,-1,246,181,180,-1,246,180,247,-1,247,180,248,-1,248,180,139,-1,248,139,249,-1,249,139,250,-1,250,139,138,-1,250,138,251,-1,252,253,212,-1,212,253,211,-1,253,254,211,-1,211,254,255,-1,211,255,210,-1,255,256,210,-1,210,256,257,-1,210,257,208,-1,208,257,258,-1,208,258,206,-1,258,259,206,-1,206,259,260,-1,206,260,204,-1,260,261,204,-1,204,261,262,-1,204,262,202,-1,202,262,263,-1,202,263,264,-1,265,266,267,-1,268,264,263,-1,269,268,270,-1,271,269,272,-1,273,271,274,-1,275,276,251,-1,251,276,250,-1,250,276,249,-1,249,276,277,-1,249,277,248,-1,268,263,270,-1,270,263,262,-1,270,262,278,-1,248,277,247,-1,247,277,279,-1,247,279,246,-1,262,261,278,-1,278,261,260,-1,278,260,280,-1,246,279,245,-1,245,279,281,-1,245,281,244,-1,282,281,283,-1,283,281,279,-1,283,279,284,-1,284,279,277,-1,284,277,285,-1,285,277,276,-1,285,276,286,-1,286,276,275,-1,286,275,287,-1,260,259,280,-1,280,259,258,-1,280,258,288,-1,289,242,243,-1,290,282,291,-1,291,282,283,-1,291,283,292,-1,292,283,284,-1,292,284,293,-1,293,284,285,-1,293,285,294,-1,294,285,286,-1,294,286,295,-1,295,286,287,-1,295,287,273,-1,258,257,288,-1,288,257,256,-1,288,256,296,-1,267,297,289,-1,269,270,272,-1,272,270,278,-1,272,278,298,-1,298,278,280,-1,298,280,299,-1,299,280,288,-1,299,288,300,-1,300,288,296,-1,300,296,301,-1,301,296,302,-1,301,302,303,-1,256,255,296,-1,296,255,254,-1,296,254,302,-1,302,254,253,-1,302,253,252,-1,242,289,241,-1,241,289,297,-1,241,297,239,-1,239,297,304,-1,239,304,240,-1,267,266,297,-1,297,266,305,-1,297,305,304,-1,306,265,290,-1,290,265,267,-1,290,267,282,-1,282,267,289,-1,282,289,281,-1,281,289,243,-1,281,243,244,-1,307,308,309,-1,273,274,295,-1,295,274,310,-1,295,310,294,-1,294,310,311,-1,294,311,293,-1,293,311,312,-1,293,312,292,-1,292,312,313,-1,292,313,291,-1,291,313,307,-1,291,307,290,-1,290,307,309,-1,290,309,306,-1,271,272,274,-1,274,272,298,-1,274,298,310,-1,310,298,299,-1,310,299,311,-1,311,299,300,-1,311,300,312,-1,312,300,301,-1,312,301,313,-1,313,301,303,-1,313,303,307,-1,307,303,314,-1,307,314,308,-1,252,315,302,-1,302,315,316,-1,302,316,303,-1,303,316,317,-1,303,317,314,-1,
        ]
    }
}
Shape{
    appearance Appearance {
        material  Material 	{
            diffuseColor 0.20784313725490197 0.20784313725490197 0.20784313725490197
            specularColor 0.01568627450980392 0.01568627450980392 0.01568627450980392
            ambientIntensity 0.2
            transparency 0
            shininess 0.5
        }
    }
    geometry IndexedFaceSet {
        ccw TRUE
        solid FALSE
        coord DEF co Coordinate {
            point [
                0.9843 0.5512 0.1378, 0.9843 0.5118 0.1378, 0.9639 0.5539 0.1378, 0.9537 0.5158 0.1378, 0.9449 0.5617 0.1378, 0.9252 0.5276 0.1378, 0.9286 0.5742 0.1378, 0.9007 0.5464 0.1378, 0.9161 0.5906 0.1378, 0.882 0.5709 0.1378, 0.9082 0.6095 0.1378, 0.8702 0.5994 0.1378, 0.9055 0.6299 0.1378, 0.8661 0.6299 0.1378, -0.9055 0.6299 0.1378, -0.8661 0.6299 0.1378, -0.9082 0.6095 0.1378, -0.8702 0.5994 0.1378, -0.9161 0.5906 0.1378, -0.882 0.5709 0.1378, -0.9286 0.5742 0.1378, -0.9007 0.5464 0.1378, -0.9449 0.5617 0.1378, -0.9252 0.5276 0.1378, -0.9639 0.5539 0.1378, -0.9537 0.5158 0.1378, -0.9843 0.5512 0.1378, -0.9843 0.5118 0.1378, -0.9843 -0.5512 0.1378, -0.9843 -0.5118 0.1378, -0.9639 -0.5539 0.1378, -0.9537 -0.5158 0.1378, -0.9449 -0.5617 0.1378, -0.9252 -0.5276 0.1378, -0.9286 -0.5742 0.1378, -0.9007 -0.5464 0.1378, -0.9161 -0.5906 0.1378, -0.882 -0.5709 0.1378, -0.9082 -0.6095 0.1378, -0.8702 -0.5994 0.1378, -0.9055 -0.6299 0.1378, -0.8661 -0.6299 0.1378, 0.9055 -0.6299 0.1378, 0.8661 -0.6299 0.1378, 0.9082 -0.6095 0.1378, 0.8702 -0.5994 0.1378, 0.9161 -0.5906 0.1378, 0.882 -0.5709 0.1378, 0.9286 -0.5742 0.1378, 0.9007 -0.5464 0.1378, 0.9449 -0.5617 0.1378, 0.9252 -0.5276 0.1378, 0.9639 -0.5539 0.1378, 0.9537 -0.5158 0.1378, 0.9843 -0.5512 0.1378, 0.9843 -0.5118 0.1378, 0.9843 -0.5118 0.1378
            ]
        }
        coordIndex [
            0,1,2,-1,2,1,3,-1,2,3,4,-1,4,3,5,-1,4,5,6,-1,6,5,7,-1,6,7,8,-1,8,7,9,-1,8,9,10,-1,10,9,11,-1,10,11,12,-1,12,11,13,-1,14,15,16,-1,16,15,17,-1,16,17,18,-1,18,17,19,-1,18,19,20,-1,20,19,21,-1,20,21,22,-1,22,21,23,-1,22,23,24,-1,24,23,25,-1,24,25,26,-1,26,25,27,-1,28,29,30,-1,30,29,31,-1,30,31,32,-1,32,31,33,-1,32,33,34,-1,34,33,35,-1,34,35,36,-1,36,35,37,-1,36,37,38,-1,38,37,39,-1,38,39,40,-1,40,39,41,-1,42,43,44,-1,44,43,45,-1,44,45,46,-1,46,45,47,-1,46,47,48,-1,48,47,49,-1,48,49,50,-1,50,49,51,-1,50,51,52,-1,52,51,53,-1,52,53,54,-1,54,53,55,-1,
        ]
    }
}
Shape{
    appearance Appearance {
        material  Material 	{
            diffuseColor 0.8274509803921568 0.6666666666666666 0.12941176470588237
            specularColor 0.8274509803921568 0.6666666666666666 0.12941176470588237
            ambientIntensity 0.2
            transparency 0
            shininess 0.5
        }
    }
    geometry IndexedFaceSet {
        ccw TRUE
        solid FALSE
        coord DEF co Coordinate {
            point [
                0.8665 0.6299 0.1374, 0.8661 0.6299 0.1374, 0.8705 0.5995 0.1374, 0.8702 0.5994 0.1374, 0.8823 0.5711 0.1374, 0.882 0.5709 0.1374, 0.901 0.5467 0.1374, 0.9007 0.5464 0.1374, 0.9254 0.528 0.1374, 0.9252 0.5276 0.1374, 0.9538 0.5162 0.1374, 0.9537 0.5158 0.1374, 0.9843 0.5122 0.1374, 0.9843 0.5118 0.1374, 0.9449 0.2756 0.0, 0.9449 0.2756 -0.0004, 0.9449 0.4728 0.0, 0.9449 0.4728 -0.0004, 0.9843 0.4728 0.0, 0.9843 0.4728 -0.0004, 0.9843 0.5122 -0.0004, 0.9538 0.5162 -0.0004, 0.9254 0.528 -0.0004, 0.901 0.5467 -0.0004, 0.8823 0.5711 -0.0004, 0.8705 0.5995 -0.0004, 0.8665 0.6299 -0.0004, 0.8272 0.6299 0.0, 0.8272 0.6299 -0.0004, 0.8272 0.5906 0.0, 0.8272 0.5906 -0.0004, 0.5118 0.5906 0.0, 0.5118 0.5906 -0.0004, 0.5118 0.2756 0.0, 0.5118 0.2756 -0.0004, -0.9843 0.5122 0.1374, -0.9843 0.5118 0.1374, -0.9538 0.5162 0.1374, -0.9537 0.5158 0.1374, -0.9254 0.528 0.1374, -0.9252 0.5276 0.1374, -0.901 0.5467 0.1374, -0.9007 0.5464 0.1374, -0.8823 0.5711 0.1374, -0.882 0.5709 0.1374, -0.8705 0.5995 0.1374, -0.8702 0.5994 0.1374, -0.8665 0.6299 0.1374, -0.8661 0.6299 0.1374, -0.9449 0.4728 -0.0004, -0.9449 0.2756 -0.0004, -0.9449 0.4728 0.0, -0.9449 0.2756 0.0, -0.5118 0.2756 -0.0004, -0.5118 0.2756 0.0, -0.5118 0.5906 -0.0004, -0.5118 0.5906 0.0, -0.8272 0.5906 -0.0004, -0.8272 0.5906 0.0, -0.8272 0.6299 -0.0004, -0.8272 0.6299 0.0, -0.8665 0.6299 -0.0004, -0.8705 0.5995 -0.0004, -0.8823 0.5711 -0.0004, -0.901 0.5467 -0.0004, -0.9254 0.528 -0.0004, -0.9538 0.5162 -0.0004, -0.9843 0.5122 -0.0004, -0.9843 0.4728 -0.0004, -0.9843 0.4728 0.0, -0.8665 -0.6299 0.1374, -0.8661 -0.6299 0.1374, -0.8705 -0.5995 0.1374, -0.8702 -0.5994 0.1374, -0.8823 -0.5711 0.1374, -0.882 -0.5709 0.1374, -0.901 -0.5467 0.1374, -0.9007 -0.5464 0.1374, -0.9254 -0.528 0.1374, -0.9252 -0.5276 0.1374, -0.9538 -0.5162 0.1374, -0.9537 -0.5158 0.1374, -0.9843 -0.5122 0.1374, -0.9843 -0.5118 0.1374, -0.9449 -0.2756 0.0, -0.9449 -0.2756 -0.0004, -0.9449 -0.4728 0.0, -0.9449 -0.4728 -0.0004, -0.9843 -0.4728 0.0, -0.9843 -0.4728 -0.0004, -0.9843 -0.5122 -0.0004, -0.9538 -0.5162 -0.0004, -0.9254 -0.528 -0.0004, -0.901 -0.5467 -0.0004, -0.8823 -0.5711 -0.0004, -0.8705 -0.5995 -0.0004, -0.8665 -0.6299 -0.0004, -0.8272 -0.6299 0.0, -0.8272 -0.6299 -0.0004, -0.8272 -0.5906 0.0, -0.8272 -0.5906 -0.0004, -0.5118 -0.5906 0.0, -0.5118 -0.5906 -0.0004, -0.5118 -0.3937 0.0, -0.5118 -0.3937 -0.0004, -0.6299 -0.2756 -0.0004, -0.6299 -0.2756 0.0, 0.9843 -0.5122 0.1374, 0.9843 -0.5118 0.1374, 0.9538 -0.5162 0.1374, 0.9537 -0.5158 0.1374, 0.9254 -0.528 0.1374, 0.9252 -0.5276 0.1374, 0.901 -0.5467 0.1374, 0.9007 -0.5464 0.1374, 0.8823 -0.5711 0.1374, 0.882 -0.5709 0.1374, 0.8705 -0.5995 0.1374, 0.8702 -0.5994 0.1374, 0.8665 -0.6299 0.1374, 0.8661 -0.6299 0.1374, 0.9449 -0.4728 -0.0004, 0.9449 -0.2756 -0.0004, 0.9449 -0.4728 0.0, 0.9449 -0.2756 0.0, 0.5118 -0.2756 -0.0004, 0.5118 -0.2756 0.0, 0.5118 -0.5906 -0.0004, 0.5118 -0.5906 0.0, 0.8272 -0.5906 -0.0004, 0.8272 -0.5906 0.0, 0.8272 -0.6299 -0.0004, 0.8272 -0.6299 0.0, 0.8665 -0.6299 -0.0004, 0.8705 -0.5995 -0.0004, 0.8823 -0.5711 -0.0004, 0.901 -0.5467 -0.0004, 0.9254 -0.528 -0.0004, 0.9538 -0.5162 -0.0004, 0.9843 -0.5122 -0.0004, 0.9843 -0.4728 -0.0004, 0.9843 -0.4728 0.0, 0.9843 -0.4728 0.0
            ]
        }
        coordIndex [
            0,1,2,-1,2,1,3,-1,2,3,4,-1,4,3,5,-1,4,5,6,-1,6,5,7,-1,6,7,8,-1,8,7,9,-1,8,9,10,-1,10,9,11,-1,10,11,12,-1,12,11,13,-1,14,15,16,-1,16,15,17,-1,16,17,18,-1,18,17,19,-1,12,20,10,-1,10,20,21,-1,10,21,8,-1,8,21,22,-1,8,22,6,-1,6,22,23,-1,6,23,4,-1,4,23,24,-1,4,24,2,-1,2,24,25,-1,2,25,0,-1,0,25,26,-1,27,28,29,-1,29,28,30,-1,29,30,31,-1,31,30,32,-1,31,32,33,-1,33,32,34,-1,33,34,14,-1,14,34,15,-1,34,32,30,-1,34,30,15,-1,28,26,30,-1,30,26,25,-1,30,25,24,-1,24,23,30,-1,30,23,17,-1,30,17,15,-1,20,19,21,-1,21,19,17,-1,21,17,22,-1,22,17,23,-1,35,36,37,-1,37,36,38,-1,37,38,39,-1,39,38,40,-1,39,40,41,-1,41,40,42,-1,41,42,43,-1,43,42,44,-1,43,44,45,-1,45,44,46,-1,45,46,47,-1,47,46,48,-1,49,50,51,-1,51,50,52,-1,50,53,52,-1,52,53,54,-1,53,55,54,-1,54,55,56,-1,55,57,56,-1,56,57,58,-1,57,59,58,-1,58,59,60,-1,47,61,45,-1,45,61,62,-1,45,62,43,-1,43,62,63,-1,43,63,41,-1,41,63,64,-1,41,64,39,-1,39,64,65,-1,39,65,37,-1,37,65,66,-1,37,66,35,-1,35,66,67,-1,68,49,69,-1,69,49,51,-1,50,49,53,-1,53,49,57,-1,53,57,55,-1,61,59,62,-1,62,59,57,-1,68,67,49,-1,49,67,66,-1,66,65,49,-1,49,65,64,-1,49,64,57,-1,57,64,63,-1,57,63,62,-1,70,71,72,-1,72,71,73,-1,72,73,74,-1,74,73,75,-1,74,75,76,-1,76,75,77,-1,76,77,78,-1,78,77,79,-1,78,79,80,-1,80,79,81,-1,80,81,82,-1,82,81,83,-1,84,85,86,-1,86,85,87,-1,86,87,88,-1,88,87,89,-1,82,90,80,-1,80,90,91,-1,80,91,78,-1,78,91,92,-1,78,92,76,-1,76,92,93,-1,76,93,74,-1,74,93,94,-1,74,94,72,-1,72,94,95,-1,72,95,70,-1,70,95,96,-1,97,98,99,-1,99,98,100,-1,99,100,101,-1,101,100,102,-1,103,101,104,-1,104,101,102,-1,105,85,106,-1,106,85,84,-1,104,102,100,-1,87,85,105,-1,98,96,100,-1,100,96,95,-1,100,95,94,-1,94,93,100,-1,100,93,87,-1,100,87,104,-1,104,87,105,-1,90,89,91,-1,91,89,87,-1,91,87,92,-1,92,87,93,-1,107,108,109,-1,109,108,110,-1,109,110,111,-1,111,110,112,-1,111,112,113,-1,113,112,114,-1,113,114,115,-1,115,114,116,-1,115,116,117,-1,117,116,118,-1,117,118,119,-1,119,118,120,-1,121,122,123,-1,123,122,124,-1,122,125,124,-1,124,125,126,-1,125,127,126,-1,126,127,128,-1,127,129,128,-1,128,129,130,-1,129,131,130,-1,130,131,132,-1,119,133,117,-1,117,133,134,-1,117,134,115,-1,115,134,135,-1,115,135,113,-1,113,135,136,-1,113,136,111,-1,111,136,137,-1,111,137,109,-1,109,137,138,-1,109,138,107,-1,107,138,139,-1,140,121,141,-1,141,121,123,-1,122,121,125,-1,125,121,129,-1,125,129,127,-1,133,131,134,-1,134,131,129,-1,140,139,121,-1,121,139,138,-1,138,137,121,-1,121,137,136,-1,121,136,129,-1,129,136,135,-1,129,135,134,-1,104,105,103,-1,103,105,106,-1,
        ]
    }
}
Shape{
    appearance Appearance {
        material  Material 	{
            diffuseColor 1.0 1.0 1.0
            specularColor 0.8784313725490196 0.8784313725490196 0.8784313725490196
            ambientIntensity 0.2
            transparency 0
            shininess 0.5
        }
    }
    geometry IndexedFaceSet {
        ccw TRUE
        solid FALSE
        coord DEF co Coordinate {
            point [
                -0.3337 0.1003 0.0079, -0.4105 -0.0965 0.0079, -0.3337 0.1003 0.0, -0.4105 -0.0965 0.0, -0.3817 -0.0965 0.0079, -0.3817 -0.0965 0.0, -0.3618 -0.0413 0.0079, -0.3618 -0.0413 0.0, -0.2805 -0.0413 0.0079, -0.2805 -0.0413 0.0, -0.2617 -0.0965 0.0079, -0.2617 -0.0965 0.0, -0.2329 -0.0965 0.0079, -0.2329 -0.0965 0.0, -0.3073 0.1003 0.0079, -0.3073 0.1003 0.0, -0.2871 -0.0197 0.0079, -0.3529 -0.0197 0.0079, -0.3165 0.0625 0.0079, -0.3184 0.0693 0.0079, -0.3196 0.0763 0.0079, -0.3203 0.0763 0.0079, -0.3215 0.0693 0.0079, -0.3233 0.0625 0.0079, -0.2871 -0.0197 0.0, -0.3529 -0.0197 0.0, -0.3165 0.0625 0.0, -0.3184 0.0693 0.0, -0.3196 0.0763 0.0, -0.3203 0.0763 0.0, -0.3215 0.0693 0.0, -0.3233 0.0625 0.0, -0.1135 -0.0965 0.0079, -0.06 -0.0965 0.0079, -0.1135 -0.0965 0.0, -0.06 -0.0965 0.0, -0.06 0.1003 0.0079, -0.06 0.1003 0.0, -0.1156 0.1003 0.0079, -0.1156 0.1003 0.0, -0.2185 0.0044 0.0079, -0.2185 0.0044 0.0, -0.2183 0.0106 0.0, -0.2183 0.0106 0.0079, -0.2152 0.0316 0.0, -0.2152 0.0316 0.0079, -0.2077 0.0509 0.0, -0.2077 0.0509 0.0079, -0.1965 0.0668 0.0, -0.1965 0.0668 0.0079, -0.1856 0.0772 0.0, -0.1856 0.0772 0.0079, -0.1658 0.0898 0.0, -0.1658 0.0898 0.0079, -0.1427 0.0976 0.0, -0.1427 0.0976 0.0079, -0.1384 -0.0943 0.0, -0.1384 -0.0943 0.0079, -0.1611 -0.0874 0.0, -0.1611 -0.0874 0.0079, -0.1815 -0.0754 0.0, -0.1815 -0.0754 0.0079, -0.1976 -0.0598 0.0, -0.1976 -0.0598 0.0079, -0.2088 -0.0422 0.0, -0.2088 -0.0422 0.0079, -0.2158 -0.0215 0.0, -0.2158 -0.0215 0.0079, -0.192 0.0038 0.0079, -0.1904 0.0234 0.0079, -0.1857 0.0391 0.0079, -0.1789 0.0512 0.0079, -0.1693 0.0613 0.0079, -0.1549 0.0706 0.0079, -0.1386 0.0762 0.0079, -0.1155 0.0787 0.0079, -0.0864 0.0787 0.0079, -0.0864 -0.0749 0.0079, -0.1144 -0.0749 0.0079, -0.1351 -0.073 0.0079, -0.1518 -0.0678 0.0079, -0.1652 -0.0598 0.0079, -0.1762 -0.0489 0.0079, -0.1845 -0.0353 0.0079, -0.1903 -0.0168 0.0079, -0.1155 0.0787 0.0, -0.0864 0.0787 0.0, -0.1386 0.0762 0.0, -0.1549 0.0706 0.0, -0.1693 0.0613 0.0, -0.1789 0.0512 0.0, -0.1857 0.0391 0.0, -0.1904 0.0234 0.0, -0.192 0.0038 0.0, -0.1903 -0.0168 0.0, -0.1845 -0.0353 0.0, -0.1762 -0.0489 0.0, -0.1652 -0.0598 0.0, -0.1518 -0.0678 0.0, -0.1351 -0.073 0.0, -0.1144 -0.0749 0.0, -0.0864 -0.0749 0.0, -0.0216 -0.0749 0.0079, -0.0216 -0.0965 0.0079, -0.0216 -0.0749 0.0, -0.0216 -0.0965 0.0, 0.084 -0.0965 0.0079, 0.084 -0.0965 0.0, 0.084 0.1003 0.0079, 0.084 0.1003 0.0, -0.0168 0.1003 0.0079, -0.0168 0.1003 0.0, -0.0168 0.0787 0.0079, -0.0168 0.0787 0.0, 0.0576 0.0787 0.0079, 0.0576 0.0787 0.0, 0.0576 0.0139 0.0079, 0.0576 0.0139 0.0, -0.012 0.0139 0.0079, -0.012 0.0139 0.0, -0.012 -0.0077 0.0079, -0.012 -0.0077 0.0, 0.0576 -0.0077 0.0079, 0.0576 -0.0077 0.0, 0.0576 -0.0749 0.0079, 0.0576 -0.0749 0.0, 0.1224 -0.0647 0.0079, 0.1224 -0.0863 0.0079, 0.1224 -0.0647 0.0, 0.1224 -0.0863 0.0, 0.1434 -0.095 0.0079, 0.1766 -0.0989 0.0079, 0.1766 -0.0989 0.0, 0.1712 -0.0989 0.0, 0.1712 -0.0989 0.0079, 0.1633 -0.0977 0.0, 0.1434 -0.095 0.0, 0.2689 -0.0018 0.0079, 0.2689 -0.0018 0.0, 0.267 -0.0245 0.0, 0.267 -0.0245 0.0079, 0.2611 -0.0453 0.0, 0.2611 -0.0453 0.0079, 0.2506 -0.0641 0.0, 0.2506 -0.0641 0.0079, 0.2359 -0.0797 0.0, 0.2359 -0.0797 0.0079, 0.22 -0.0898 0.0, 0.22 -0.0898 0.0079, 0.2009 -0.0964 0.0, 0.2009 -0.0964 0.0079, 0.1882 -0.0977 0.0, 0.1688 0.1027 0.0079, 0.1688 0.1027 0.0, 0.1894 0.1009 0.0, 0.1894 0.1009 0.0079, 0.2113 0.0944 0.0, 0.2113 0.0944 0.0079, 0.23 0.0834 0.0, 0.23 0.0834 0.0079, 0.2475 0.0662 0.0, 0.2475 0.0662 0.0079, 0.2589 0.0476 0.0, 0.2589 0.0476 0.0079, 0.2663 0.0248 0.0, 0.2663 0.0248 0.0079, 0.1224 0.0949 0.0079, 0.1224 0.0949 0.0, 0.1452 0.1011 0.0, 0.1452 0.1011 0.0079, 0.1224 0.0685 0.0079, 0.1224 0.0685 0.0, 0.1685 0.0811 0.0079, 0.1685 0.0811 0.0, 0.1446 0.078 0.0, 0.1446 0.078 0.0079, 0.2425 -0.0002 0.0079, 0.2425 -0.0002 0.0, 0.2415 0.0151 0.0, 0.2415 0.0151 0.0079, 0.2363 0.0362 0.0, 0.2363 0.0362 0.0079, 0.2282 0.0514 0.0, 0.2282 0.0514 0.0079, 0.2163 0.0645 0.0, 0.2163 0.0645 0.0079, 0.2026 0.0736 0.0, 0.2026 0.0736 0.0079, 0.1879 0.0789 0.0, 0.1879 0.0789 0.0079, 0.173 -0.0773 0.0079, 0.173 -0.0773 0.0, 0.1914 -0.0752 0.0, 0.1914 -0.0752 0.0079, 0.2058 -0.0699 0.0, 0.2058 -0.0699 0.0079, 0.2179 -0.0618 0.0, 0.2179 -0.0618 0.0079, 0.2269 -0.0521 0.0, 0.2269 -0.0521 0.0079, 0.2351 -0.0385 0.0, 0.2351 -0.0385 0.0079, 0.2405 -0.0215 0.0, 0.2405 -0.0215 0.0079, 0.126 -0.0667 0.0, 0.126 -0.0667 0.0079, 0.1468 -0.0744 0.0, 0.1468 -0.0744 0.0079, 0.2857 -0.0749 0.0079, 0.2857 -0.0965 0.0079, 0.2857 -0.0749 0.0, 0.2857 -0.0965 0.0, 0.3865 -0.0965 0.0079, 0.3865 -0.0965 0.0, 0.3865 0.1003 0.0079, 0.3865 0.1003 0.0, 0.3601 0.1003 0.0079, 0.3601 0.1003 0.0, 0.3601 -0.0749 0.0079, 0.3601 -0.0749 0.0, 0.3601 -0.0749 0.0
            ]
        }
        coordIndex [
            0,1,2,-1,2,1,3,-1,1,4,3,-1,3,4,5,-1,4,6,5,-1,5,6,7,-1,6,8,7,-1,7,8,9,-1,8,10,9,-1,9,10,11,-1,10,12,11,-1,11,12,13,-1,12,14,13,-1,13,14,15,-1,14,0,15,-1,15,0,2,-1,16,8,17,-1,17,8,6,-1,18,14,16,-1,16,14,12,-1,16,12,8,-1,8,12,10,-1,18,19,14,-1,14,19,20,-1,14,20,0,-1,0,20,21,-1,0,21,22,-1,22,23,0,-1,0,23,17,-1,0,17,1,-1,1,17,6,-1,1,6,4,-1,16,17,24,-1,24,17,25,-1,18,16,26,-1,26,16,24,-1,18,26,27,-1,18,27,19,-1,19,27,28,-1,19,28,20,-1,21,20,29,-1,29,20,28,-1,21,29,30,-1,21,30,22,-1,22,30,31,-1,22,31,23,-1,17,23,25,-1,25,23,31,-1,32,33,34,-1,34,33,35,-1,33,36,35,-1,35,36,37,-1,36,38,37,-1,37,38,39,-1,40,41,42,-1,40,42,43,-1,43,42,44,-1,43,44,45,-1,45,44,46,-1,45,46,47,-1,47,46,48,-1,47,48,49,-1,49,48,50,-1,49,50,51,-1,51,50,52,-1,51,52,53,-1,53,52,54,-1,53,54,55,-1,55,54,39,-1,55,39,38,-1,32,34,56,-1,32,56,57,-1,57,56,58,-1,57,58,59,-1,59,58,60,-1,59,60,61,-1,61,60,62,-1,61,62,63,-1,63,62,64,-1,63,64,65,-1,65,64,66,-1,65,66,67,-1,67,66,41,-1,67,41,40,-1,67,40,68,-1,68,40,43,-1,68,43,69,-1,69,43,45,-1,69,45,70,-1,70,45,47,-1,70,47,71,-1,71,47,49,-1,71,49,72,-1,72,49,51,-1,72,51,73,-1,73,51,53,-1,73,53,74,-1,74,53,55,-1,74,55,75,-1,75,55,38,-1,75,38,76,-1,76,38,36,-1,76,36,77,-1,77,36,33,-1,77,33,78,-1,78,33,32,-1,78,32,79,-1,79,32,57,-1,79,57,80,-1,80,57,59,-1,80,59,81,-1,81,59,61,-1,81,61,82,-1,82,61,63,-1,82,63,83,-1,83,63,65,-1,83,65,84,-1,84,65,67,-1,84,67,68,-1,75,76,85,-1,85,76,86,-1,75,85,87,-1,75,87,74,-1,74,87,88,-1,74,88,73,-1,73,88,89,-1,73,89,72,-1,72,89,90,-1,72,90,71,-1,71,90,91,-1,71,91,70,-1,70,91,92,-1,70,92,69,-1,69,92,93,-1,69,93,68,-1,68,93,94,-1,68,94,84,-1,84,94,95,-1,84,95,83,-1,83,95,96,-1,83,96,82,-1,82,96,97,-1,82,97,81,-1,81,97,98,-1,81,98,80,-1,80,98,99,-1,80,99,79,-1,79,99,100,-1,79,100,78,-1,77,78,101,-1,101,78,100,-1,76,77,86,-1,86,77,101,-1,102,103,104,-1,104,103,105,-1,103,106,105,-1,105,106,107,-1,106,108,107,-1,107,108,109,-1,108,110,109,-1,109,110,111,-1,110,112,111,-1,111,112,113,-1,112,114,113,-1,113,114,115,-1,114,116,115,-1,115,116,117,-1,116,118,117,-1,117,118,119,-1,118,120,119,-1,119,120,121,-1,120,122,121,-1,121,122,123,-1,122,124,123,-1,123,124,125,-1,124,102,125,-1,125,102,104,-1,106,103,102,-1,102,124,106,-1,106,124,122,-1,106,122,108,-1,112,110,114,-1,114,110,108,-1,114,108,116,-1,116,108,122,-1,116,122,118,-1,118,122,120,-1,126,127,128,-1,128,127,129,-1,129,127,130,-1,131,132,133,-1,131,133,134,-1,134,133,135,-1,134,135,130,-1,130,135,136,-1,130,136,129,-1,137,138,139,-1,137,139,140,-1,140,139,141,-1,140,141,142,-1,142,141,143,-1,142,143,144,-1,144,143,145,-1,144,145,146,-1,146,145,147,-1,146,147,148,-1,148,147,149,-1,148,149,150,-1,150,149,131,-1,131,149,151,-1,131,151,132,-1,152,153,154,-1,152,154,155,-1,155,154,156,-1,155,156,157,-1,157,156,158,-1,157,158,159,-1,159,158,160,-1,159,160,161,-1,161,160,162,-1,161,162,163,-1,163,162,164,-1,163,164,165,-1,165,164,138,-1,165,138,137,-1,166,167,168,-1,166,168,169,-1,169,168,153,-1,169,153,152,-1,166,170,167,-1,167,170,171,-1,172,173,174,-1,172,174,175,-1,175,174,171,-1,175,171,170,-1,176,177,178,-1,176,178,179,-1,179,178,180,-1,179,180,181,-1,181,180,182,-1,181,182,183,-1,183,182,184,-1,183,184,185,-1,185,184,186,-1,185,186,187,-1,187,186,188,-1,187,188,189,-1,189,188,173,-1,189,173,172,-1,190,191,192,-1,190,192,193,-1,193,192,194,-1,193,194,195,-1,195,194,196,-1,195,196,197,-1,197,196,198,-1,197,198,199,-1,199,198,200,-1,199,200,201,-1,201,200,202,-1,201,202,203,-1,203,202,177,-1,203,177,176,-1,126,128,204,-1,126,204,205,-1,205,204,206,-1,205,206,207,-1,207,206,191,-1,207,191,190,-1,193,131,190,-1,190,131,134,-1,190,134,207,-1,207,134,130,-1,207,130,205,-1,205,130,127,-1,205,127,126,-1,170,166,175,-1,175,166,169,-1,175,169,172,-1,172,169,152,-1,172,152,189,-1,189,152,155,-1,189,155,187,-1,187,155,157,-1,187,157,185,-1,185,157,159,-1,185,159,183,-1,183,159,161,-1,183,161,181,-1,181,161,163,-1,181,163,179,-1,179,163,165,-1,179,165,176,-1,176,165,137,-1,176,137,203,-1,203,137,140,-1,203,140,201,-1,201,140,142,-1,201,142,199,-1,199,142,144,-1,199,144,197,-1,197,144,146,-1,197,146,195,-1,195,146,148,-1,195,148,193,-1,193,148,150,-1,193,150,131,-1,208,209,210,-1,210,209,211,-1,209,212,211,-1,211,212,213,-1,212,214,213,-1,213,214,215,-1,214,216,215,-1,215,216,217,-1,216,218,217,-1,217,218,219,-1,218,208,219,-1,219,208,210,-1,216,214,218,-1,218,214,212,-1,218,212,208,-1,208,212,209,-1,
        ]
    }
}
Shape{
    appearance Appearance {
        material  Material 	{
            diffuseColor 0.20784313725490197 0.20784313725490197 0.20784313725490197
            specularColor 0.01568627450980392 0.01568627450980392 0.01568627450980392
            ambientIntensity 0.2
            transparency 0
            shininess 0.5
        }
    }
    geometry IndexedFaceSet {
        ccw TRUE
        solid FALSE
        coord DEF co Coordinate {
            point [
                -0.2871 -0.0197 0.0, -0.3529 -0.0197 0.0, -0.3165 0.0625 0.0, -0.3233 0.0625 0.0, -0.3184 0.0693 0.0, -0.3215 0.0693 0.0, -0.3196 0.0763 0.0, -0.3203 0.0763 0.0, -0.0864 0.0787 0.0, -0.0864 -0.0749 0.0, -0.1155 0.0787 0.0, -0.1144 -0.0749 0.0, -0.1351 -0.073 0.0, -0.192 0.0038 0.0, -0.1904 0.0234 0.0, -0.1857 0.0391 0.0, -0.1386 0.0762 0.0, -0.1518 -0.0678 0.0, -0.1652 -0.0598 0.0, -0.1762 -0.0489 0.0, -0.1845 -0.0353 0.0, -0.1903 -0.0168 0.0, -0.1789 0.0512 0.0, -0.1693 0.0613 0.0, -0.1549 0.0706 0.0, -0.1549 0.0706 0.0
            ]
        }
        coordIndex [
            0,1,2,-1,2,1,3,-1,2,3,4,-1,4,3,5,-1,4,5,6,-1,6,5,7,-1,8,9,10,-1,10,9,11,-1,10,11,12,-1,13,14,10,-1,10,14,15,-1,10,15,16,-1,12,17,10,-1,10,17,18,-1,10,18,19,-1,19,20,10,-1,10,20,21,-1,10,21,13,-1,22,23,15,-1,15,23,24,-1,15,24,16,-1,
        ]
    }
}