#VRML V2.0 utf8
# 3D model generated by easyeda2kicad.py (https://github.com/uPesy/easyeda2kicad.py)

Shape{
    appearance Appearance {
        material  Material 	{
            diffuseColor 0.2235294117647059 0.2235294117647059 0.2235294117647059
            specularColor 0.11372549019607843 0.11372549019607843 0.11372549019607843
            ambientIntensity 0.2
            transparency 0
            shininess 0.5
        }
    }
    geometry IndexedFaceSet {
        ccw TRUE
        solid FALSE
        coord DEF co Coordinate {
            point [
                -0.3148 -0.2927 0.2165, -0.2777 -0.2927 0.2165, -0.2671 -0.2892 0.2165, -0.315 -0.226 0.2165, -0.3151 -0.2251 0.2165, -0.3151 -0.2341 0.2165, -0.2195 -0.2625 0.2165, -0.2198 -0.2632 0.2165, 0.3937 -0.2632 0.2165, -0.2573 0.3086 0.2165, -0.2563 0.3062 0.2165, -0.2563 0.3937 0.2165, -0.2561 -0.2073 0.2165, -0.2563 -0.2049 0.2165, -0.2563 -0.2172 0.2165, -0.2563 0.1462 0.2165, -0.2563 0.0317 0.2165, -0.2511 0.0294 0.2165, -0.2101 -0.0674 0.2165, -0.2148 -0.0806 0.2165, 0.3937 -0.1479 0.2165, -0.2227 -0.0924 0.2165, -0.2327 -0.1011 0.2165, -0.2413 0.0213 0.2165, -0.2354 0.0129 0.2165, 0.3937 0.1462 0.2165, -0.2435 -0.1066 0.2165, -0.2439 -0.1078 0.2165, -0.2478 -0.1157 0.2165, -0.2429 0.0231 0.2165, -0.2245 -0.0187 0.2165, -0.2192 -0.0249 0.2165, -0.2153 -0.0313 0.2165, -0.2106 -0.0435 0.2165, -0.209 -0.0565 0.2165, -0.2316 0.0032 0.2165, -0.2303 -0.0073 0.2165, -0.2305 -0.0103 0.2165, -0.2308 -0.0133 0.2165, -0.3087 0.0162 0.2165, -0.3017 0.0244 0.2165, -0.3151 0.1462 0.2165, -0.3134 0.0067 0.2165, -0.2932 0.0304 0.2165, -0.2834 0.0342 0.2165, -0.2671 0.1462 0.2165, -0.273 0.0354 0.2165, -0.2705 0.0354 0.2165, -0.2671 0.0348 0.2165, -0.2606 0.0336 0.2165, -0.3144 0.0033 0.2165, -0.3151 0.003 0.2165, -0.3197 0.0008 0.2165, -0.3244 0.1462 0.2165, -0.3312 -0.0141 0.2165, -0.3286 -0.0081 0.2165, -0.3937 0.1462 0.2165, -0.3246 -0.003 0.2165, -0.3244 -0.0029 0.2165, -0.3244 -0.0403 0.2165, -0.3259 -0.0389 0.2165, -0.3937 -0.1479 0.2165, -0.3295 -0.0336 0.2165, -0.3316 -0.0277 0.2165, -0.3323 -0.0218 0.2165, -0.3323 -0.0203 0.2165, -0.3151 -0.0464 0.2165, -0.3152 -0.0464 0.2165, -0.3244 -0.1479 0.2165, -0.3211 -0.0433 0.2165, -0.2693 -0.1315 0.2165, -0.278 -0.1327 0.2165, -0.2671 -0.1479 0.2165, -0.2995 -0.0802 0.2165, -0.2988 -0.082 0.2165, -0.2838 -0.085 0.2165, -0.303 -0.123 0.2165, -0.3091 -0.1158 0.2165, -0.3151 -0.1479 0.2165, -0.2832 0.0165 0.2165, -0.2888 0.0131 0.2165, -0.2907 -0.0002 0.2165, -0.2936 0.0083 0.2165, -0.2967 0.003 0.2165, -0.2883 -0.0415 0.2165, -0.2698 -0.0768 0.2165, -0.2843 -0.0372 0.2165, -0.2812 -0.0316 0.2165, -0.276 -0.1162 0.2165, -0.271 -0.115 0.2165, -0.2671 -0.113 0.2165, -0.2671 0.0182 0.2165, -0.3006 -0.0785 0.2165, -0.2957 -0.1282 0.2165, -0.2986 -0.084 0.2165, -0.2986 -0.0842 0.2165, -0.2988 -0.085 0.2165, -0.2874 -0.1315 0.2165, -0.2821 -0.01 0.2165, -0.2858 -0.0046 0.2165, -0.2725 0.0188 0.2165, -0.2767 0.0185 0.2165, -0.313 -0.1078 0.2165, -0.3149 -0.099 0.2165, -0.3149 -0.0834 0.2165, -0.3147 -0.0821 0.2165, -0.314 -0.0803 0.2165, -0.3129 -0.0786 0.2165, -0.3121 -0.0778 0.2165, -0.2922 -0.111 0.2165, -0.2881 -0.1139 0.2165, -0.2834 -0.1157 0.2165, -0.2783 -0.1164 0.2165, -0.28 -0.0159 0.2165, -0.2793 -0.0218 0.2165, -0.2796 -0.0253 0.2165, -0.3067 -0.0758 0.2165, -0.3059 -0.0758 0.2165, -0.3033 -0.0481 0.2165, -0.3039 -0.0763 0.2165, -0.3021 -0.0773 0.2165, -0.2988 -0.0855 0.2165, -0.2988 -0.0974 0.2165, -0.2979 -0.1021 0.2165, -0.3104 -0.0767 0.2165, -0.3086 -0.076 0.2165, -0.3087 -0.048 0.2165, -0.3059 -0.0481 0.2165, -0.2958 -0.1067 0.2165, -0.2926 -0.1106 0.2165, -0.2607 0.016 0.2165, -0.2666 0.0182 0.2165, -0.2577 -0.0937 0.2165, -0.2577 -0.0958 0.2165, -0.2664 -0.1126 0.2165, -0.2629 -0.1095 0.2165, -0.2601 -0.1054 0.2165, -0.2583 -0.1008 0.2165, -0.2417 -0.0879 0.2165, -0.2347 -0.082 0.2165, -0.2501 -0.0215 0.2165, -0.2342 -0.0815 0.2165, -0.2291 -0.0741 0.2165, -0.2417 -0.0255 0.2165, -0.2563 0.0131 0.2165, -0.2488 -0.0191 0.2165, -0.2563 -0.0934 0.2165, -0.2502 -0.092 0.2165, -0.2468 -0.0132 0.2165, -0.2461 -0.0075 0.2165, -0.2463 -0.0048 0.2165, -0.2346 -0.0315 0.2165, -0.2259 -0.0658 0.2165, -0.2295 -0.0385 0.2165, -0.2248 -0.0568 0.2165, -0.226 -0.0471 0.2165, -0.2478 0.0017 0.2165, -0.2509 0.0076 0.2165, -0.2553 0.0125 0.2165, -0.2538 -0.1229 0.2165, -0.2563 -0.1246 0.2165, -0.2563 -0.1479 0.2165, -0.2613 -0.1283 0.2165, -0.2671 -0.1306 0.2165, -0.2458 -0.2892 0.2165, -0.2458 -0.2873 0.2165, -0.2563 -0.2892 0.2165, -0.256 -0.2838 0.2165, -0.2563 -0.2775 0.2165, -0.256 -0.2785 0.2165, -0.2279 -0.2892 0.2165, -0.2393 -0.2241 0.2165, -0.2517 -0.2241 0.2165, -0.2517 -0.2341 0.2165, -0.2517 -0.2392 0.2165, -0.256 -0.2392 0.2165, -0.2563 -0.2427 0.2165, -0.235 -0.2341 0.2165, -0.235 -0.2373 0.2165, -0.2232 -0.2384 0.2165, -0.2563 -0.2341 0.2165, -0.2393 -0.2373 0.2165, -0.2393 -0.2341 0.2165, -0.2232 -0.2341 0.2165, -0.2232 -0.2241 0.2165, -0.235 -0.2241 0.2165, -0.256 -0.2341 0.2165, -0.256 -0.2193 0.2165, -0.2189 -0.2193 0.2165, -0.2187 -0.2081 0.2165, -0.2198 -0.2119 0.2165, 0.3937 -0.2172 0.2165, -0.2189 -0.2384 0.2165, 0.3937 -0.2427 0.2165, -0.2189 -0.2341 0.2165, 0.3937 -0.2341 0.2165, -0.2248 -0.2119 0.2165, -0.2547 -0.2113 0.2165, -0.2523 -0.2041 0.2165, -0.2515 -0.2083 0.2165, -0.2498 -0.2119 0.2165, -0.2544 -0.2119 0.2165, -0.2272 -0.1868 0.2165, -0.2237 -0.1895 0.2165, 0.3937 -0.1858 0.2165, -0.2229 -0.1903 0.2165, -0.2205 -0.1938 0.2165, -0.2189 -0.1977 0.2165, -0.2183 -0.2031 0.2165, -0.2183 -0.2033 0.2165, -0.2459 -0.191 0.2165, -0.2484 -0.1928 0.2165, -0.2491 -0.1935 0.2165, -0.2508 -0.1959 0.2165, -0.2519 -0.1985 0.2165, -0.2523 -0.2023 0.2165, -0.2231 -0.2077 0.2165, -0.2272 -0.1926 0.2165, -0.2246 -0.2115 0.2165, -0.2299 -0.1908 0.2165, -0.2332 -0.1897 0.2165, -0.2226 -0.2032 0.2165, -0.2226 -0.2017 0.2165, -0.2267 -0.193 0.2165, -0.2233 -0.1985 0.2165, -0.2246 -0.1956 0.2165, -0.2378 -0.1892 0.2165, -0.2392 -0.1892 0.2165, -0.2429 -0.1898 0.2165, -0.2466 -0.1858 0.2165, -0.244 -0.1848 0.2165, -0.2563 -0.1836 0.2165, -0.2381 -0.1841 0.2165, -0.2362 -0.1842 0.2165, -0.2314 -0.185 0.2165, -0.2296 -0.1858 0.2165, -0.2557 -0.1954 0.2165, -0.254 -0.1919 0.2165, -0.2563 -0.1858 0.2165, -0.2515 -0.1889 0.2165, -0.2511 -0.1885 0.2165, -0.2479 -0.1863 0.2165, -0.2563 -0.1984 0.2165, -0.2671 -0.1858 0.2165, -0.2565 -0.1994 0.2165, -0.2566 -0.2016 0.2165, -0.2671 -0.2172 0.2165, -0.2671 0.2636 0.2165, -0.2699 0.2615 0.2165, -0.2782 0.2581 0.2165, -0.2871 0.2569 0.2165, -0.296 0.2581 0.2165, -0.3044 0.2615 0.2165, -0.2628 0.267 0.2165, -0.2573 0.2741 0.2165, 0.3937 0.3937 0.2165, -0.2538 0.3003 0.2165, -0.2527 0.2913 0.2165, -0.2538 0.2824 0.2165, -0.2563 0.2765 0.2165, -0.2782 0.3246 0.2165, -0.2699 0.3212 0.2165, -0.2671 0.3937 0.2165, -0.2671 0.3191 0.2165, -0.2628 0.3157 0.2165, -0.3115 0.3157 0.2165, -0.3044 0.3212 0.2165, -0.3151 0.3937 0.2165, -0.296 0.3246 0.2165, -0.2871 0.3258 0.2165, -0.3216 0.2913 0.2165, -0.3204 0.3003 0.2165, -0.3244 0.3937 0.2165, -0.317 0.3086 0.2165, -0.3151 0.311 0.2165, -0.3115 0.267 0.2165, -0.3151 0.2717 0.2165, -0.317 0.2741 0.2165, -0.3204 0.2824 0.2165, -0.2393 -0.2763 0.2165, -0.2436 -0.2754 0.2165, -0.2475 -0.2736 0.2165, -0.2508 -0.2708 0.2165, -0.255 -0.2632 0.2165, -0.2563 -0.2632 0.2165, -0.2537 -0.2667 0.2165, -0.2512 -0.2703 0.2165, -0.2238 -0.2708 0.2165, -0.225 -0.2721 0.2165, 0.3937 -0.2775 0.2165, -0.2282 -0.2744 0.2165, -0.2318 -0.2758 0.2165, -0.237 -0.2764 0.2165, -0.2458 -0.3028 0.2165, -0.256 -0.3065 0.2165, -0.256 -0.3118 0.2165, -0.2563 -0.3937 0.2165, -0.2189 -0.2977 0.2165, 0.3937 -0.3937 0.2165, -0.2189 -0.2926 0.2165, 0.3937 -0.2892 0.2165, -0.2212 -0.2669 0.2165, -0.2553 -0.2625 0.2165, -0.256 -0.2564 0.2165, -0.256 -0.2462 0.2165, -0.2189 -0.2462 0.2165, -0.2189 -0.2568 0.2165, -0.3148 -0.2041 0.2165, -0.3151 -0.1984 0.2165, -0.3148 -0.2087 0.2165, -0.3151 -0.2172 0.2165, -0.3022 -0.1893 0.2165, -0.2947 -0.19 0.2165, -0.3035 -0.1884 0.2165, -0.3051 -0.1878 0.2165, -0.3107 -0.2041 0.2165, -0.3107 -0.204 0.2165, -0.3123 -0.2028 0.2165, -0.315 -0.1927 0.2165, -0.3142 -0.191 0.2165, -0.3151 -0.1858 0.2165, -0.3115 -0.1883 0.2165, -0.31 -0.1877 0.2165, -0.3137 -0.2013 0.2165, -0.3144 -0.2003 0.2165, -0.2883 -0.1944 0.2165, -0.2896 -0.1909 0.2165, -0.2902 -0.19 0.2165, -0.2916 -0.2003 0.2165, -0.2915 -0.1987 0.2165, -0.299 -0.1962 0.2165, -0.3133 -0.1897 0.2165, -0.3129 -0.1893 0.2165, -0.3009 -0.1907 0.2165, -0.2999 -0.1927 0.2165, -0.2926 -0.1933 0.2165, -0.2917 -0.1962 0.2165, -0.2894 -0.2054 0.2165, -0.2906 -0.2067 0.2165, -0.2937 -0.2153 0.2165, -0.2921 -0.2076 0.2165, -0.2942 -0.2084 0.2165, -0.3077 -0.1874 0.2165, -0.3071 -0.1875 0.2165, -0.2877 -0.1992 0.2165, -0.2879 -0.2019 0.2165, -0.2885 -0.2039 0.2165, -0.2979 -0.2041 0.2165, -0.2959 -0.2039 0.2165, -0.2943 -0.2034 0.2165, -0.2933 -0.2029 0.2165, -0.2996 -0.2164 0.2165, -0.2986 -0.2157 0.2165, -0.2977 -0.2087 0.2165, -0.2971 -0.2152 0.2165, -0.2954 -0.215 0.2165, -0.2925 -0.2022 0.2165, -0.292 -0.2014 0.2165, -0.3004 -0.2171 0.2165, -0.309 -0.215 0.2165, -0.3005 -0.2172 0.2165, -0.3101 -0.2167 0.2165, -0.3103 -0.2172 0.2165, -0.3154 -0.1958 0.2165, -0.3154 -0.1948 0.2165, -0.3244 -0.1858 0.2165, -0.3151 -0.1933 0.2165, -0.3138 -0.215 0.2165, -0.3146 -0.2172 0.2165, -0.315 -0.2182 0.2165, -0.3151 -0.2192 0.2165, -0.3154 -0.2222 0.2165, -0.3244 -0.2172 0.2165, -0.2889 -0.2316 0.2165, -0.2934 -0.2316 0.2165, -0.2898 -0.218 0.2165, -0.2891 -0.2191 0.2165, -0.2922 -0.2158 0.2165, -0.2909 -0.2167 0.2165, -0.2905 -0.2172 0.2165, -0.3078 -0.2329 0.2165, -0.3095 -0.2326 0.2165, -0.311 -0.2321 0.2165, -0.3122 -0.2312 0.2165, -0.2882 -0.2216 0.2165, -0.2877 -0.2254 0.2165, -0.2671 -0.2341 0.2165, -0.288 -0.2286 0.2165, -0.3032 -0.2313 0.2165, -0.3034 -0.2315 0.2165, -0.3046 -0.2322 0.2165, -0.3059 -0.2327 0.2165, -0.3076 -0.2329 0.2165, -0.3133 -0.2299 0.2165, -0.3141 -0.2286 0.2165, -0.2915 -0.2249 0.2165, -0.2916 -0.2235 0.2165, -0.295 -0.2198 0.2165, -0.2919 -0.2223 0.2165, -0.2924 -0.2212 0.2165, -0.2956 -0.2199 0.2165, -0.2964 -0.2201 0.2165, -0.297 -0.2204 0.2165, -0.2975 -0.2208 0.2165, -0.2985 -0.2225 0.2165, -0.2919 -0.2282 0.2165, -0.2998 -0.2254 0.2165, -0.2929 -0.2308 0.2165, -0.3003 -0.2268 0.2165, -0.302 -0.23 0.2165, -0.2931 -0.2205 0.2165, -0.2937 -0.2201 0.2165, -0.2943 -0.2199 0.2165, -0.3112 -0.2196 0.2165, -0.3031 -0.2221 0.2165, -0.3019 -0.2193 0.2165, -0.3116 -0.2227 0.2165, -0.3116 -0.2229 0.2165, -0.3044 -0.2251 0.2165, -0.3113 -0.2252 0.2165, -0.308 -0.2281 0.2165, -0.3074 -0.2281 0.2165, -0.3109 -0.2264 0.2165, -0.3106 -0.2269 0.2165, -0.3102 -0.2274 0.2165, -0.3096 -0.2278 0.2165, -0.3089 -0.228 0.2165, -0.3067 -0.2279 0.2165, -0.3061 -0.2275 0.2165, -0.3055 -0.2269 0.2165, -0.2883 -0.2559 0.2165, -0.2883 -0.2607 0.2165, -0.2671 -0.2632 0.2165, -0.3082 -0.2474 0.2165, -0.3104 -0.248 0.2165, -0.3104 -0.2481 0.2165, -0.2671 -0.2427 0.2165, -0.2947 -0.2427 0.2165, -0.3082 -0.2487 0.2165, -0.3095 -0.2483 0.2165, -0.3151 -0.2427 0.2165, -0.3072 -0.2427 0.2165, -0.2883 -0.2353 0.2165, -0.2883 -0.2405 0.2165, -0.3147 -0.2457 0.2165, -0.3151 -0.2455 0.2165, -0.3195 -0.2437 0.2165, -0.3244 -0.2341 0.2165, -0.3244 -0.2363 0.2165, -0.3227 -0.2363 0.2165, -0.3231 -0.2374 0.2165, -0.3233 -0.2389 0.2165, -0.3232 -0.2398 0.2165, -0.3229 -0.2408 0.2165, -0.3223 -0.2417 0.2165, -0.3214 -0.2426 0.2165, -0.3211 -0.2427 0.2165, -0.3937 -0.2427 0.2165, -0.327 -0.2412 0.2165, -0.3272 -0.2393 0.2165, -0.3937 -0.2341 0.2165, -0.3271 -0.2376 0.2165, -0.3269 -0.2363 0.2165, -0.3244 -0.2453 0.2165, -0.3251 -0.2447 0.2165, -0.3937 -0.2632 0.2165, -0.3263 -0.2431 0.2165, -0.3264 -0.2427 0.2165, -0.3151 -0.2502 0.2165, -0.3188 -0.2487 0.2165, -0.3244 -0.2632 0.2165, -0.3229 -0.2466 0.2165, -0.2981 -0.2705 0.2165, -0.3105 -0.2705 0.2165, -0.3105 -0.2775 0.2165, -0.3105 -0.2857 0.2165, -0.3148 -0.2857 0.2165, -0.3151 -0.2892 0.2165, -0.2777 -0.2848 0.2165, -0.282 -0.2848 0.2165, -0.2981 -0.2838 0.2165, -0.2938 -0.2838 0.2165, -0.2938 -0.2775 0.2165, -0.3151 -0.2775 0.2165, -0.282 -0.2775 0.2165, -0.282 -0.2705 0.2165, -0.2938 -0.2705 0.2165, -0.3148 -0.2775 0.2165, -0.3148 -0.2657 0.2165, -0.3151 -0.2632 0.2165, -0.2777 -0.2657 0.2165, -0.2777 -0.2775 0.2165, -0.2671 -0.2775 0.2165, -0.2517 -0.1679 0.2165, -0.2517 -0.1826 0.2165, -0.2189 -0.1679 0.2165, 0.3937 -0.1836 0.2165, -0.2189 -0.1631 0.2165, -0.256 -0.1631 0.2165, -0.256 -0.1826 0.2165, -0.2671 -0.3937 0.2165, -0.2671 -0.1836 0.2165, -0.3148 -0.3029 0.2165, -0.2981 -0.2775 0.2165, -0.3148 -0.3583 0.2165, -0.3151 -0.3937 0.2165, -0.2777 -0.3441 0.2165, -0.2777 -0.339 0.2165, -0.3046 -0.3492 0.2165, -0.3046 -0.3338 0.2165, -0.3148 -0.353 0.2165, -0.3148 -0.3302 0.2165, -0.3148 -0.3249 0.2165, -0.3063 -0.32 0.2165, -0.3096 -0.3173 0.2165, -0.3141 -0.3089 0.2165, -0.2826 -0.3173 0.2165, -0.2838 -0.3185 0.2165, -0.287 -0.3208 0.2165, -0.2906 -0.3222 0.2165, -0.31 -0.3168 0.2165, -0.3125 -0.3132 0.2165, -0.2777 -0.3032 0.2165, -0.2783 -0.3089 0.2165, -0.28 -0.3134 0.2165, -0.2958 -0.3228 0.2165, -0.2981 -0.3227 0.2165, -0.3024 -0.3218 0.2165, -0.3151 -0.1836 0.2165, -0.3148 -0.1631 0.2165, -0.2777 -0.1631 0.2165, -0.2777 -0.1822 0.2165, -0.282 -0.1822 0.2165, -0.2981 -0.1679 0.2165, -0.3105 -0.1679 0.2165, -0.2981 -0.1811 0.2165, -0.3105 -0.183 0.2165, -0.2938 -0.1811 0.2165, -0.282 -0.1679 0.2165, -0.2938 -0.1679 0.2165, -0.3148 -0.183 0.2165, -0.3244 -0.2775 0.2165, -0.3244 -0.2892 0.2165, -0.3244 -0.3937 0.2165, -0.3244 -0.1836 0.2165, -0.3937 -0.2775 0.2165, -0.3937 -0.2892 0.2165, -0.3937 -0.3937 0.2165, -0.3937 -0.1836 0.2165, -0.3937 -0.1858 0.2165, -0.3937 -0.2172 0.2165, -0.3937 0.3937 0.2165, -0.2854 0.3445 0.0, -0.3937 0.3445 0.0, -0.3937 0.3937 0.0, -0.2362 0.2953 0.0, -0.2379 0.308 0.0, -0.1772 0.2695 0.0, -0.3937 -0.3937 0.0, -0.1772 -0.315 0.0, 0.3937 -0.3937 0.0, 0.1772 -0.315 0.0, -0.2379 -0.308 0.0, -0.2428 -0.3199 0.0, -0.2506 -0.3301 0.0, 0.2727 0.3428 0.0, 0.3937 0.3937 0.0, 0.2854 0.3445 0.0, 0.3937 0.3445 0.0, 0.2608 0.3379 0.0, 0.1772 0.315 0.0, -0.2428 0.3199 0.0, -0.2506 0.3301 0.0, -0.1654 0.271 0.0, -0.3937 -0.3445 0.0, -0.2854 -0.3445 0.0, -0.2727 -0.3428 0.0, -0.2608 -0.3379 0.0, -0.2379 0.1112 0.0, -0.2428 0.123 0.0, -0.2727 0.2477 0.0, -0.2506 0.1332 0.0, -0.2608 0.141 0.0, -0.1317 0.315 0.0, -0.2608 0.3379 0.0, -0.2727 0.3428 0.0, -0.2854 0.1476 0.0, -0.3937 0.1476 0.0, -0.3937 0.2461 0.0, -0.2608 -0.141 0.0, -0.2506 -0.1332 0.0, -0.2727 -0.2477 0.0, -0.2608 -0.2527 0.0, -0.1332 0.3032 0.0, -0.1378 0.2922 0.0, -0.2727 0.146 0.0, -0.2854 0.2461 0.0, -0.2362 -0.2953 0.0, -0.2379 -0.2825 0.0, -0.2428 -0.2707 0.0, -0.2506 -0.2605 0.0, -0.2379 -0.0857 0.0, -0.2506 0.0636 0.0, -0.2428 0.0738 0.0, 0.2379 -0.1112 0.0, 0.2428 -0.123 0.0, 0.2727 -0.2477 0.0, 0.2506 -0.1332 0.0, 0.2608 -0.141 0.0, 0.2608 -0.0558 0.0, 0.2506 -0.0636 0.0, 0.2428 0.0738 0.0, 0.2428 -0.0738 0.0, 0.2506 -0.2605 0.0, 0.2428 -0.2707 0.0, 0.2362 -0.2953 0.0, 0.2379 -0.308 0.0, 0.2428 -0.3199 0.0, 0.2506 -0.3301 0.0, -0.2608 0.0558 0.0, -0.2428 -0.0738 0.0, -0.2506 -0.0636 0.0, -0.2379 0.0857 0.0, -0.2362 0.0984 0.0, 0.2854 -0.1476 0.0, 0.3937 -0.1476 0.0, 0.3937 -0.2461 0.0, 0.2608 0.141 0.0, 0.2506 0.1332 0.0, 0.2428 0.2707 0.0, 0.2428 0.123 0.0, -0.145 0.2828 0.0, -0.1544 0.2756 0.0, -0.2854 -0.0492 0.0, -0.3937 -0.0492 0.0, -0.3937 0.0492 0.0, -0.2362 -0.0984 0.0, -0.2379 -0.1112 0.0, -0.2428 -0.123 0.0, -0.2608 0.2527 0.0, -0.2506 0.2605 0.0, -0.2428 0.2707 0.0, -0.2379 0.2825 0.0, 0.2727 -0.146 0.0, 0.2854 -0.2461 0.0, 0.2506 0.3301 0.0, 0.2428 0.3199 0.0, 0.2379 0.308 0.0, 0.2379 -0.2825 0.0, 0.2608 -0.3379 0.0, 0.2727 -0.3428 0.0, 0.2854 -0.3445 0.0, 0.3937 -0.3445 0.0, -0.2608 -0.0558 0.0, -0.2727 -0.0509 0.0, -0.2727 0.0509 0.0, -0.2854 0.0492 0.0, 0.2727 0.146 0.0, 0.2506 0.2605 0.0, 0.2608 0.2527 0.0, 0.2727 -0.0509 0.0, 0.2506 0.0636 0.0, 0.2608 0.0558 0.0, -0.3937 -0.2461 0.0, -0.3937 -0.1476 0.0, -0.2854 -0.2461 0.0, -0.2854 -0.1476 0.0, -0.2727 -0.146 0.0, 0.2362 0.2953 0.0, 0.2379 0.2825 0.0, 0.2854 0.0492 0.0, 0.3937 0.0492 0.0, 0.3937 -0.0492 0.0, 0.2379 -0.0857 0.0, 0.2362 -0.0984 0.0, 0.2379 0.0857 0.0, 0.2362 0.0984 0.0, 0.2727 0.0509 0.0, 0.2854 -0.0492 0.0, 0.2854 0.2461 0.0, 0.3937 0.2461 0.0, 0.3937 0.1476 0.0, 0.2608 -0.2527 0.0, 0.2379 0.1112 0.0, 0.2727 0.2477 0.0, 0.2854 0.1476 0.0, -0.3937 0.0492 0.0512, -0.3937 -0.0492 0.0512, -0.3937 0.3445 0.0512, -0.3937 -0.3445 0.0512, -0.3937 -0.2461 0.0512, -0.3937 0.2461 0.0512, -0.3937 -0.1476 0.0512, -0.3937 0.1476 0.0512, 0.3937 -0.3445 0.0512, 0.3937 -0.1476 0.0512, 0.3937 -0.2461 0.0512, 0.3937 -0.0492 0.0512, 0.3937 0.0492 0.0512, 0.3937 0.1476 0.0512, 0.3937 0.3445 0.0512, 0.3937 0.2461 0.0512, 0.3937 0.2461 0.0512
            ]
        }
        coordIndex [
            0,1,2,-1,3,4,5,-1,6,7,8,-1,9,10,11,-1,12,13,14,-1,15,16,17,-1,18,19,20,-1,20,19,21,-1,20,21,22,-1,23,24,25,-1,22,26,20,-1,20,26,27,-1,20,27,28,-1,15,17,25,-1,25,17,29,-1,25,29,23,-1,30,31,25,-1,31,32,25,-1,25,32,33,-1,25,33,20,-1,20,33,34,-1,20,34,18,-1,24,35,25,-1,25,35,36,-1,25,36,30,-1,30,36,37,-1,30,37,38,-1,39,40,41,-1,39,41,42,-1,40,43,41,-1,41,43,44,-1,41,44,45,-1,45,44,46,-1,46,47,45,-1,45,47,48,-1,45,48,15,-1,15,48,49,-1,15,49,16,-1,50,42,51,-1,51,42,41,-1,51,41,52,-1,52,41,53,-1,54,55,56,-1,56,55,57,-1,56,57,53,-1,53,57,58,-1,53,58,52,-1,59,60,61,-1,61,60,62,-1,62,63,61,-1,61,63,64,-1,61,64,56,-1,56,64,65,-1,56,65,54,-1,66,67,68,-1,68,67,69,-1,68,69,59,-1,70,71,72,-1,73,74,75,-1,76,77,78,-1,79,80,81,-1,81,80,82,-1,81,82,83,-1,84,85,86,-1,86,85,87,-1,88,89,85,-1,85,89,90,-1,85,90,91,-1,73,75,92,-1,76,78,93,-1,74,94,75,-1,75,94,95,-1,75,95,96,-1,72,71,78,-1,78,71,97,-1,78,97,93,-1,98,91,99,-1,99,91,100,-1,99,100,81,-1,81,100,101,-1,81,101,79,-1,77,102,78,-1,78,102,103,-1,78,103,66,-1,66,103,104,-1,66,104,105,-1,105,106,66,-1,66,106,107,-1,66,107,108,-1,109,110,75,-1,75,110,111,-1,75,111,85,-1,85,111,112,-1,85,112,88,-1,98,113,91,-1,91,113,114,-1,91,114,85,-1,85,114,115,-1,85,115,87,-1,116,117,118,-1,118,117,119,-1,118,119,75,-1,75,119,120,-1,75,120,92,-1,96,121,75,-1,75,121,122,-1,75,122,123,-1,108,124,66,-1,66,124,125,-1,66,125,126,-1,126,125,116,-1,126,116,127,-1,127,116,118,-1,123,128,75,-1,75,128,129,-1,75,129,109,-1,130,131,132,-1,131,91,132,-1,132,91,90,-1,132,90,133,-1,133,90,134,-1,134,135,133,-1,133,135,136,-1,133,136,137,-1,138,139,140,-1,139,141,140,-1,140,141,142,-1,140,142,143,-1,144,140,145,-1,130,132,144,-1,144,132,146,-1,144,146,140,-1,140,146,147,-1,140,147,138,-1,145,148,144,-1,144,148,149,-1,144,149,150,-1,143,142,151,-1,151,142,152,-1,151,152,153,-1,153,152,154,-1,153,154,155,-1,156,157,150,-1,150,157,158,-1,150,158,144,-1,159,160,161,-1,161,160,162,-1,161,162,72,-1,72,162,163,-1,72,163,70,-1,164,165,166,-1,166,165,167,-1,166,167,168,-1,168,167,169,-1,168,169,170,-1,171,172,173,-1,174,175,176,-1,177,178,179,-1,176,175,180,-1,174,181,173,-1,173,181,182,-1,173,182,171,-1,179,183,177,-1,177,183,184,-1,177,184,185,-1,175,186,180,-1,180,186,187,-1,180,187,14,-1,14,187,188,-1,189,190,191,-1,192,193,194,-1,194,193,195,-1,194,195,188,-1,188,195,191,-1,188,191,14,-1,14,191,190,-1,14,190,196,-1,12,14,197,-1,198,199,196,-1,196,199,200,-1,196,200,14,-1,14,200,201,-1,14,201,197,-1,202,203,204,-1,204,203,205,-1,204,205,206,-1,206,207,204,-1,204,207,208,-1,204,208,191,-1,191,208,209,-1,191,209,189,-1,210,211,196,-1,196,211,212,-1,196,212,213,-1,213,214,196,-1,196,214,215,-1,196,215,198,-1,216,217,218,-1,218,217,219,-1,218,219,220,-1,216,221,217,-1,217,221,222,-1,217,222,223,-1,223,222,224,-1,223,224,225,-1,220,226,218,-1,218,226,227,-1,218,227,196,-1,196,227,228,-1,196,228,210,-1,229,230,231,-1,231,230,232,-1,233,234,204,-1,204,234,235,-1,204,235,202,-1,236,237,238,-1,237,239,238,-1,238,239,240,-1,238,240,241,-1,236,238,242,-1,242,238,243,-1,242,243,244,-1,244,243,245,-1,245,243,246,-1,245,246,13,-1,45,247,248,-1,248,249,45,-1,45,249,250,-1,45,250,41,-1,41,250,251,-1,41,251,252,-1,247,45,253,-1,253,45,15,-1,253,15,254,-1,11,10,255,-1,10,256,255,-1,255,256,257,-1,255,257,25,-1,25,257,258,-1,25,258,15,-1,15,258,259,-1,15,259,254,-1,260,261,262,-1,262,261,263,-1,262,263,11,-1,11,263,264,-1,11,264,9,-1,265,266,267,-1,267,266,268,-1,267,268,262,-1,262,268,269,-1,262,269,260,-1,270,271,272,-1,272,271,273,-1,272,273,267,-1,267,273,274,-1,267,274,265,-1,252,275,41,-1,41,275,276,-1,41,276,53,-1,53,276,277,-1,53,277,278,-1,279,280,168,-1,168,280,281,-1,168,281,282,-1,283,284,285,-1,285,284,168,-1,285,168,286,-1,286,168,282,-1,287,288,289,-1,288,290,289,-1,289,290,291,-1,289,291,292,-1,293,164,294,-1,294,164,166,-1,294,166,295,-1,295,166,296,-1,295,296,297,-1,297,296,298,-1,297,298,299,-1,299,298,300,-1,299,300,170,-1,170,300,289,-1,170,289,168,-1,168,289,292,-1,168,292,279,-1,8,7,289,-1,289,7,301,-1,289,301,287,-1,283,302,284,-1,284,302,303,-1,284,303,176,-1,176,303,304,-1,176,304,305,-1,178,181,179,-1,179,181,174,-1,179,174,192,-1,192,174,176,-1,192,176,193,-1,193,176,305,-1,193,305,8,-1,8,305,306,-1,8,306,6,-1,307,308,309,-1,309,308,310,-1,311,312,313,-1,313,312,314,-1,315,316,307,-1,307,316,317,-1,318,319,320,-1,320,321,322,-1,317,323,307,-1,307,323,324,-1,307,324,308,-1,325,243,326,-1,326,243,327,-1,328,329,330,-1,319,331,320,-1,320,331,332,-1,320,332,321,-1,311,333,312,-1,312,333,334,-1,312,334,335,-1,335,334,330,-1,335,330,336,-1,336,330,329,-1,337,338,339,-1,339,338,340,-1,339,340,341,-1,322,342,320,-1,320,342,343,-1,320,343,243,-1,243,343,314,-1,243,314,327,-1,327,314,312,-1,325,344,243,-1,243,344,345,-1,243,345,346,-1,347,348,330,-1,330,348,349,-1,330,349,350,-1,351,352,353,-1,353,352,354,-1,353,354,341,-1,341,354,355,-1,341,355,339,-1,350,356,330,-1,330,356,357,-1,330,357,328,-1,358,359,360,-1,360,359,361,-1,360,361,362,-1,363,364,365,-1,365,364,366,-1,358,351,359,-1,359,351,353,-1,359,353,367,-1,367,353,309,-1,367,309,368,-1,368,309,310,-1,368,310,369,-1,369,310,370,-1,371,370,372,-1,372,370,310,-1,372,310,365,-1,365,310,308,-1,365,308,363,-1,373,374,5,-1,375,376,246,-1,337,339,346,-1,346,339,377,-1,346,377,243,-1,243,377,378,-1,243,378,246,-1,246,378,379,-1,246,379,375,-1,380,381,5,-1,5,381,382,-1,5,382,383,-1,376,384,246,-1,246,384,385,-1,246,385,386,-1,386,385,387,-1,386,387,373,-1,374,388,389,-1,389,390,374,-1,374,390,391,-1,374,391,5,-1,5,391,392,-1,5,392,380,-1,383,393,5,-1,5,393,394,-1,5,394,3,-1,395,396,397,-1,397,396,398,-1,397,398,399,-1,397,400,395,-1,395,400,401,-1,395,401,402,-1,402,403,395,-1,395,403,404,-1,395,404,405,-1,405,404,406,-1,405,406,407,-1,407,406,408,-1,407,408,374,-1,374,408,409,-1,374,409,388,-1,410,411,399,-1,399,411,412,-1,399,412,397,-1,413,414,362,-1,362,414,415,-1,362,415,360,-1,413,416,414,-1,414,416,417,-1,414,417,418,-1,418,417,419,-1,418,420,421,-1,419,422,418,-1,418,422,423,-1,418,423,424,-1,424,425,418,-1,418,425,426,-1,418,426,420,-1,421,427,418,-1,418,427,428,-1,418,428,429,-1,430,431,432,-1,433,434,435,-1,432,436,430,-1,430,436,437,-1,430,437,438,-1,438,437,433,-1,438,433,439,-1,439,433,435,-1,440,441,5,-1,5,441,442,-1,373,5,386,-1,386,5,442,-1,386,442,436,-1,436,442,443,-1,436,443,437,-1,444,441,445,-1,445,441,440,-1,445,440,446,-1,447,448,449,-1,371,372,4,-1,4,372,447,-1,4,447,5,-1,5,447,449,-1,5,449,440,-1,440,449,450,-1,440,450,451,-1,451,452,440,-1,440,452,453,-1,440,453,454,-1,454,455,440,-1,440,455,456,-1,440,456,446,-1,457,458,459,-1,457,459,460,-1,460,459,461,-1,460,461,462,-1,463,464,465,-1,465,464,466,-1,465,466,457,-1,457,466,467,-1,457,467,458,-1,468,469,470,-1,470,469,471,-1,470,471,463,-1,472,473,474,-1,475,476,477,-1,2,478,479,-1,480,2,481,-1,481,2,479,-1,481,479,482,-1,477,476,483,-1,479,484,482,-1,482,484,485,-1,482,485,486,-1,476,487,483,-1,483,487,488,-1,483,488,489,-1,489,488,490,-1,478,2,491,-1,491,2,492,-1,491,492,490,-1,490,492,432,-1,490,432,489,-1,489,432,431,-1,489,431,468,-1,493,494,495,-1,495,494,496,-1,495,496,497,-1,497,496,20,-1,28,159,20,-1,20,159,161,-1,20,161,497,-1,497,161,498,-1,233,204,232,-1,232,204,496,-1,232,496,231,-1,231,496,494,-1,231,494,499,-1,13,246,14,-1,14,246,386,-1,14,386,180,-1,180,386,436,-1,180,436,176,-1,176,436,432,-1,176,432,284,-1,284,432,492,-1,284,492,168,-1,168,492,2,-1,168,2,166,-1,166,2,500,-1,166,500,296,-1,499,498,231,-1,231,498,161,-1,231,161,501,-1,501,161,72,-1,502,0,477,-1,477,0,2,-1,477,2,475,-1,475,2,480,-1,475,480,474,-1,474,480,503,-1,474,503,472,-1,504,505,506,-1,506,505,500,-1,506,500,507,-1,507,500,2,-1,508,509,510,-1,510,509,511,-1,512,513,514,-1,515,502,512,-1,512,502,477,-1,512,477,511,-1,511,477,505,-1,511,505,510,-1,510,505,504,-1,516,517,507,-1,507,517,518,-1,507,518,519,-1,514,520,512,-1,512,520,521,-1,512,521,515,-1,1,522,2,-1,2,522,523,-1,2,523,507,-1,507,523,524,-1,507,524,516,-1,519,525,507,-1,507,525,526,-1,507,526,512,-1,512,526,527,-1,512,527,513,-1,241,229,238,-1,238,229,231,-1,238,231,243,-1,243,231,501,-1,243,501,320,-1,320,501,528,-1,529,78,528,-1,78,529,72,-1,72,529,530,-1,72,530,501,-1,501,530,531,-1,501,531,532,-1,533,534,535,-1,535,534,536,-1,535,536,537,-1,538,539,532,-1,532,539,537,-1,532,537,501,-1,501,537,536,-1,501,536,528,-1,528,536,540,-1,528,540,529,-1,468,470,489,-1,489,470,541,-1,489,541,483,-1,483,541,542,-1,483,542,477,-1,477,542,543,-1,477,543,505,-1,66,68,78,-1,78,68,544,-1,78,544,528,-1,528,544,365,-1,528,365,320,-1,320,365,366,-1,320,366,318,-1,463,465,470,-1,470,465,545,-1,470,545,541,-1,541,545,546,-1,541,546,542,-1,542,546,547,-1,542,547,543,-1,59,61,68,-1,68,61,548,-1,68,548,544,-1,544,548,549,-1,544,549,365,-1,365,549,550,-1,365,550,372,-1,372,550,460,-1,372,460,447,-1,447,460,462,-1,447,462,448,-1,278,270,53,-1,53,270,272,-1,53,272,56,-1,56,272,551,-1,552,553,554,-1,555,556,557,-1,558,559,560,-1,560,559,561,-1,562,559,563,-1,563,559,564,-1,565,566,567,-1,567,566,568,-1,565,569,570,-1,556,571,557,-1,557,571,572,-1,557,572,573,-1,574,575,558,-1,558,575,576,-1,558,576,559,-1,559,576,577,-1,559,577,564,-1,578,579,580,-1,580,579,581,-1,580,581,582,-1,583,584,585,-1,565,570,566,-1,566,570,583,-1,566,583,554,-1,554,583,585,-1,554,585,552,-1,586,587,588,-1,589,590,591,-1,591,590,592,-1,584,583,572,-1,572,583,593,-1,572,593,594,-1,582,595,580,-1,580,595,586,-1,580,586,596,-1,596,586,588,-1,562,597,559,-1,559,597,598,-1,559,598,557,-1,557,598,599,-1,557,599,600,-1,601,602,603,-1,604,605,606,-1,606,605,607,-1,606,607,608,-1,609,610,611,-1,611,610,612,-1,570,613,614,-1,615,616,561,-1,561,616,617,-1,561,617,618,-1,602,601,619,-1,619,601,620,-1,619,620,621,-1,622,623,557,-1,624,625,626,-1,627,628,629,-1,629,628,630,-1,594,631,572,-1,572,631,632,-1,572,632,573,-1,633,634,635,-1,603,622,601,-1,601,622,557,-1,601,557,636,-1,636,557,600,-1,636,600,637,-1,637,600,592,-1,637,592,638,-1,638,592,590,-1,580,639,578,-1,578,639,640,-1,578,640,623,-1,623,640,641,-1,623,641,557,-1,557,641,642,-1,557,642,555,-1,608,643,606,-1,606,643,624,-1,606,624,644,-1,644,624,626,-1,569,645,570,-1,570,645,646,-1,570,646,647,-1,570,614,561,-1,561,614,648,-1,561,648,615,-1,618,649,561,-1,561,649,650,-1,561,650,560,-1,560,650,651,-1,560,651,652,-1,621,653,619,-1,619,653,654,-1,619,654,655,-1,655,654,633,-1,655,633,656,-1,656,633,635,-1,627,629,657,-1,657,629,658,-1,657,658,659,-1,609,611,660,-1,660,611,661,-1,660,661,662,-1,663,664,665,-1,665,664,666,-1,665,666,591,-1,591,666,667,-1,591,667,589,-1,647,668,570,-1,570,668,669,-1,570,669,629,-1,670,671,672,-1,612,673,611,-1,611,673,674,-1,611,674,675,-1,675,674,676,-1,662,677,660,-1,660,677,670,-1,660,670,678,-1,678,670,672,-1,679,680,681,-1,606,682,604,-1,604,682,613,-1,604,613,674,-1,674,613,570,-1,674,570,676,-1,676,570,629,-1,676,629,683,-1,683,629,630,-1,659,684,657,-1,657,684,679,-1,657,679,685,-1,685,679,681,-1,686,635,634,-1,61,56,687,-1,554,553,688,-1,574,558,689,-1,689,558,547,-1,689,547,690,-1,690,547,546,-1,691,56,688,-1,688,56,551,-1,688,551,554,-1,664,663,692,-1,692,663,690,-1,546,545,690,-1,690,545,465,-1,690,465,457,-1,588,587,691,-1,691,587,693,-1,691,693,56,-1,56,693,686,-1,56,686,687,-1,687,686,634,-1,457,460,690,-1,690,460,550,-1,690,550,549,-1,687,692,61,-1,61,692,690,-1,61,690,548,-1,548,690,549,-1,560,298,558,-1,558,298,296,-1,558,296,500,-1,500,505,558,-1,558,505,543,-1,558,543,547,-1,560,652,694,-1,626,625,695,-1,25,20,695,-1,695,20,696,-1,695,696,626,-1,20,496,696,-1,696,496,204,-1,696,204,191,-1,672,671,697,-1,697,671,698,-1,191,195,696,-1,696,195,193,-1,696,193,8,-1,699,255,698,-1,698,255,25,-1,698,25,697,-1,697,25,695,-1,568,566,700,-1,700,566,255,-1,700,255,701,-1,701,255,699,-1,701,699,680,-1,680,699,681,-1,8,289,696,-1,696,289,300,-1,696,300,694,-1,694,300,298,-1,694,298,560,-1,551,272,554,-1,554,272,267,-1,255,566,11,-1,11,566,554,-1,11,554,262,-1,262,554,267,-1,
        ]
    }
}
Shape{
    appearance Appearance {
        material  Material 	{
            diffuseColor 0.7529411764705882 0.7529411764705882 0.7529411764705882
            specularColor 0.3764705882352941 0.3764705882352941 0.3764705882352941
            ambientIntensity 0.2
            transparency 0
            shininess 0.5
        }
    }
    geometry IndexedFaceSet {
        ccw TRUE
        solid FALSE
        coord DEF co Coordinate {
            point [
                -0.2699 0.2615 0.2087, -0.2671 0.2636 0.2165, -0.2628 0.267 0.2087, -0.2628 0.267 0.2165, -0.2573 0.2741 0.2087, -0.2573 0.2741 0.2165, -0.2563 0.2765 0.2165, -0.2538 0.2824 0.2087, -0.2538 0.2824 0.2165, -0.2527 0.2913 0.2087, -0.2527 0.2913 0.2165, -0.2538 0.3003 0.2087, -0.2538 0.3003 0.2165, -0.2563 0.3062 0.2165, -0.2573 0.3086 0.2087, -0.2573 0.3086 0.2165, -0.2628 0.3157 0.2087, -0.2628 0.3157 0.2165, -0.2671 0.3191 0.2165, -0.2699 0.3212 0.2087, -0.2699 0.3212 0.2165, -0.2782 0.3246 0.2087, -0.2782 0.3246 0.2165, -0.2871 0.3258 0.2087, -0.2871 0.3258 0.2165, -0.296 0.3246 0.2087, -0.296 0.3246 0.2165, -0.3044 0.3212 0.2087, -0.3044 0.3212 0.2165, -0.3115 0.3157 0.2087, -0.3115 0.3157 0.2165, -0.3151 0.311 0.2165, -0.317 0.3086 0.2087, -0.317 0.3086 0.2165, -0.3204 0.3003 0.2087, -0.3204 0.3003 0.2165, -0.3216 0.2913 0.2087, -0.3216 0.2913 0.2165, -0.3204 0.2824 0.2087, -0.3204 0.2824 0.2165, -0.317 0.2741 0.2087, -0.317 0.2741 0.2165, -0.3151 0.2717 0.2165, -0.3115 0.267 0.2087, -0.3115 0.267 0.2165, -0.3044 0.2615 0.2087, -0.3044 0.2615 0.2165, -0.296 0.2581 0.2087, -0.296 0.2581 0.2165, -0.2871 0.2569 0.2087, -0.2871 0.2569 0.2165, -0.2782 0.2581 0.2087, -0.2782 0.2581 0.2165, -0.2699 0.2615 0.2165, -0.2871 0.2913 0.2087, 0.3937 0.0492 0.0512, 0.3976 0.0492 0.0512, 0.3937 0.1476 0.0512, 0.3976 0.1476 0.0512, 0.3937 0.1476 0.0, 0.3976 0.1476 -0.0079, 0.2854 0.1476 0.0, 0.2854 0.1476 -0.0079, 0.2727 0.146 -0.0079, 0.2727 0.146 0.0, 0.2608 0.141 -0.0079, 0.2608 0.141 0.0, 0.2506 0.1332 -0.0079, 0.2506 0.1332 0.0, 0.2428 0.123 -0.0079, 0.2428 0.123 0.0, 0.2379 0.1112 -0.0079, 0.2379 0.1112 0.0, 0.2362 0.0984 -0.0079, 0.2362 0.0984 0.0, 0.2379 0.0857 -0.0079, 0.2379 0.0857 0.0, 0.2428 0.0738 -0.0079, 0.2428 0.0738 0.0, 0.2506 0.0636 -0.0079, 0.2506 0.0636 0.0, 0.2608 0.0558 -0.0079, 0.2608 0.0558 0.0, 0.2727 0.0509 -0.0079, 0.2727 0.0509 0.0, 0.2854 0.0492 -0.0079, 0.2854 0.0492 0.0, 0.3937 0.0492 0.0, 0.3976 0.0492 -0.0079, 0.3937 -0.1476 0.0512, 0.3976 -0.1476 0.0512, 0.3937 -0.0492 0.0512, 0.3976 -0.0492 0.0512, 0.3937 -0.0492 0.0, 0.3976 -0.0492 -0.0079, 0.2854 -0.0492 0.0, 0.2854 -0.0492 -0.0079, 0.2727 -0.0509 -0.0079, 0.2727 -0.0509 0.0, 0.2608 -0.0558 -0.0079, 0.2608 -0.0558 0.0, 0.2506 -0.0636 -0.0079, 0.2506 -0.0636 0.0, 0.2428 -0.0738 -0.0079, 0.2428 -0.0738 0.0, 0.2379 -0.0857 -0.0079, 0.2379 -0.0857 0.0, 0.2362 -0.0984 -0.0079, 0.2362 -0.0984 0.0, 0.2379 -0.1112 -0.0079, 0.2379 -0.1112 0.0, 0.2428 -0.123 -0.0079, 0.2428 -0.123 0.0, 0.2506 -0.1332 -0.0079, 0.2506 -0.1332 0.0, 0.2608 -0.141 -0.0079, 0.2608 -0.141 0.0, 0.2727 -0.146 -0.0079, 0.2727 -0.146 0.0, 0.2854 -0.1476 -0.0079, 0.2854 -0.1476 0.0, 0.3937 -0.1476 0.0, 0.3976 -0.1476 -0.0079, 0.3937 -0.3445 0.0512, 0.3976 -0.3445 0.0512, 0.3937 -0.2461 0.0512, 0.3976 -0.2461 0.0512, 0.3937 -0.2461 0.0, 0.3976 -0.2461 -0.0079, 0.2854 -0.2461 0.0, 0.2854 -0.2461 -0.0079, 0.2727 -0.2477 -0.0079, 0.2727 -0.2477 0.0, 0.2608 -0.2527 -0.0079, 0.2608 -0.2527 0.0, 0.2506 -0.2605 -0.0079, 0.2506 -0.2605 0.0, 0.2428 -0.2707 -0.0079, 0.2428 -0.2707 0.0, 0.2379 -0.2825 -0.0079, 0.2379 -0.2825 0.0, 0.2362 -0.2953 -0.0079, 0.2362 -0.2953 0.0, 0.2379 -0.308 -0.0079, 0.2379 -0.308 0.0, 0.2428 -0.3199 -0.0079, 0.2428 -0.3199 0.0, 0.2506 -0.3301 -0.0079, 0.2506 -0.3301 0.0, 0.2608 -0.3379 -0.0079, 0.2608 -0.3379 0.0, 0.2727 -0.3428 -0.0079, 0.2727 -0.3428 0.0, 0.2854 -0.3445 -0.0079, 0.2854 -0.3445 0.0, 0.3937 -0.3445 0.0, 0.3976 -0.3445 -0.0079, 0.3937 0.2461 0.0512, 0.3976 0.2461 0.0512, 0.3937 0.3445 0.0512, 0.3976 0.3445 0.0512, 0.3937 0.3445 0.0, 0.3976 0.3445 -0.0079, 0.2854 0.3445 0.0, 0.2854 0.3445 -0.0079, 0.2727 0.3428 -0.0079, 0.2727 0.3428 0.0, 0.2608 0.3379 -0.0079, 0.2608 0.3379 0.0, 0.2506 0.3301 -0.0079, 0.2506 0.3301 0.0, 0.2428 0.3199 -0.0079, 0.2428 0.3199 0.0, 0.2379 0.308 -0.0079, 0.2379 0.308 0.0, 0.2362 0.2953 -0.0079, 0.2362 0.2953 0.0, 0.2379 0.2825 -0.0079, 0.2379 0.2825 0.0, 0.2428 0.2707 -0.0079, 0.2428 0.2707 0.0, 0.2506 0.2605 -0.0079, 0.2506 0.2605 0.0, 0.2608 0.2527 -0.0079, 0.2608 0.2527 0.0, 0.2727 0.2477 -0.0079, 0.2727 0.2477 0.0, 0.2854 0.2461 -0.0079, 0.2854 0.2461 0.0, 0.3937 0.2461 0.0, 0.3976 0.2461 -0.0079, -0.3937 0.1476 0.0512, -0.3976 0.1476 0.0512, -0.3937 0.0492 0.0512, -0.3976 0.0492 0.0512, -0.2854 0.1476 0.0, -0.2854 0.1476 -0.0079, -0.3937 0.1476 0.0, -0.3976 0.1476 -0.0079, -0.3937 0.0492 0.0, -0.3976 0.0492 -0.0079, -0.2854 0.0492 0.0, -0.2854 0.0492 -0.0079, -0.2727 0.0509 -0.0079, -0.2727 0.0509 0.0, -0.2608 0.0558 -0.0079, -0.2608 0.0558 0.0, -0.2506 0.0636 -0.0079, -0.2506 0.0636 0.0, -0.2428 0.0738 -0.0079, -0.2428 0.0738 0.0, -0.2379 0.0857 -0.0079, -0.2379 0.0857 0.0, -0.2362 0.0984 -0.0079, -0.2362 0.0984 0.0, -0.2379 0.1112 -0.0079, -0.2379 0.1112 0.0, -0.2428 0.123 -0.0079, -0.2428 0.123 0.0, -0.2506 0.1332 -0.0079, -0.2506 0.1332 0.0, -0.2608 0.141 -0.0079, -0.2608 0.141 0.0, -0.2727 0.146 -0.0079, -0.2727 0.146 0.0, -0.3937 -0.0492 0.0512, -0.3976 -0.0492 0.0512, -0.3937 -0.1476 0.0512, -0.3976 -0.1476 0.0512, -0.2854 -0.0492 0.0, -0.2854 -0.0492 -0.0079, -0.3937 -0.0492 0.0, -0.3976 -0.0492 -0.0079, -0.3937 -0.1476 0.0, -0.3976 -0.1476 -0.0079, -0.2854 -0.1476 0.0, -0.2854 -0.1476 -0.0079, -0.2727 -0.146 -0.0079, -0.2727 -0.146 0.0, -0.2608 -0.141 -0.0079, -0.2608 -0.141 0.0, -0.2506 -0.1332 -0.0079, -0.2506 -0.1332 0.0, -0.2428 -0.123 -0.0079, -0.2428 -0.123 0.0, -0.2379 -0.1112 -0.0079, -0.2379 -0.1112 0.0, -0.2362 -0.0984 -0.0079, -0.2362 -0.0984 0.0, -0.2379 -0.0857 -0.0079, -0.2379 -0.0857 0.0, -0.2428 -0.0738 -0.0079, -0.2428 -0.0738 0.0, -0.2506 -0.0636 -0.0079, -0.2506 -0.0636 0.0, -0.2608 -0.0558 -0.0079, -0.2608 -0.0558 0.0, -0.2727 -0.0509 -0.0079, -0.2727 -0.0509 0.0, -0.3937 -0.2461 0.0512, -0.3976 -0.2461 0.0512, -0.3937 -0.3445 0.0512, -0.3976 -0.3445 0.0512, -0.2854 -0.2461 0.0, -0.2854 -0.2461 -0.0079, -0.3937 -0.2461 0.0, -0.3976 -0.2461 -0.0079, -0.3937 -0.3445 0.0, -0.3976 -0.3445 -0.0079, -0.2854 -0.3445 0.0, -0.2854 -0.3445 -0.0079, -0.2727 -0.3428 -0.0079, -0.2727 -0.3428 0.0, -0.2608 -0.3379 -0.0079, -0.2608 -0.3379 0.0, -0.2506 -0.3301 -0.0079, -0.2506 -0.3301 0.0, -0.2428 -0.3199 -0.0079, -0.2428 -0.3199 0.0, -0.2379 -0.308 -0.0079, -0.2379 -0.308 0.0, -0.2362 -0.2953 -0.0079, -0.2362 -0.2953 0.0, -0.2379 -0.2825 -0.0079, -0.2379 -0.2825 0.0, -0.2428 -0.2707 -0.0079, -0.2428 -0.2707 0.0, -0.2506 -0.2605 -0.0079, -0.2506 -0.2605 0.0, -0.2608 -0.2527 -0.0079, -0.2608 -0.2527 0.0, -0.2727 -0.2477 -0.0079, -0.2727 -0.2477 0.0, -0.3937 0.3445 0.0512, -0.3976 0.3445 0.0512, -0.3937 0.2461 0.0512, -0.3976 0.2461 0.0512, -0.2854 0.3445 0.0, -0.2854 0.3445 -0.0079, -0.3937 0.3445 0.0, -0.3976 0.3445 -0.0079, -0.3937 0.2461 0.0, -0.3976 0.2461 -0.0079, -0.2854 0.2461 0.0, -0.2854 0.2461 -0.0079, -0.2727 0.2477 -0.0079, -0.2727 0.2477 0.0, -0.2608 0.2527 -0.0079, -0.2608 0.2527 0.0, -0.2506 0.2605 -0.0079, -0.2506 0.2605 0.0, -0.2428 0.2707 -0.0079, -0.2428 0.2707 0.0, -0.2379 0.2825 -0.0079, -0.2379 0.2825 0.0, -0.2362 0.2953 -0.0079, -0.2362 0.2953 0.0, -0.2379 0.308 -0.0079, -0.2379 0.308 0.0, -0.2428 0.3199 -0.0079, -0.2428 0.3199 0.0, -0.2506 0.3301 -0.0079, -0.2506 0.3301 0.0, -0.2608 0.3379 -0.0079, -0.2608 0.3379 0.0, -0.2727 0.3428 -0.0079, -0.2727 0.3428 0.0, -0.1317 0.315 0.0, 0.1772 0.315 0.0, -0.1317 0.315 -0.0079, 0.1772 0.315 -0.0079, 0.1772 -0.315 -0.0079, 0.1772 -0.315 0.0, -0.1772 -0.315 -0.0079, -0.1772 -0.315 0.0, -0.1772 0.2695 -0.0079, -0.1772 0.2695 0.0, -0.1654 0.271 -0.0079, -0.1544 0.2756 -0.0079, -0.145 0.2828 -0.0079, -0.1378 0.2922 -0.0079, -0.1332 0.3032 -0.0079, -0.1332 0.3032 0.0, -0.1378 0.2922 0.0, -0.145 0.2828 0.0, -0.1544 0.2756 0.0, -0.1654 0.271 0.0, -0.1654 0.271 0.0
            ]
        }
        coordIndex [
            0,1,2,-1,2,1,3,-1,2,3,4,-1,3,5,4,-1,4,5,6,-1,4,6,7,-1,7,6,8,-1,7,8,9,-1,9,8,10,-1,9,10,11,-1,10,12,11,-1,11,12,13,-1,11,13,14,-1,14,13,15,-1,14,15,16,-1,15,17,16,-1,16,17,18,-1,16,18,19,-1,19,18,20,-1,19,20,21,-1,21,20,22,-1,21,22,23,-1,23,22,24,-1,23,24,25,-1,25,24,26,-1,25,26,27,-1,27,26,28,-1,27,28,29,-1,28,30,29,-1,29,30,31,-1,29,31,32,-1,32,31,33,-1,32,33,34,-1,34,33,35,-1,34,35,36,-1,36,35,37,-1,36,37,38,-1,38,37,39,-1,38,39,40,-1,39,41,40,-1,40,41,42,-1,40,42,43,-1,43,42,44,-1,43,44,45,-1,45,44,46,-1,45,46,47,-1,47,46,48,-1,47,48,49,-1,49,48,50,-1,49,50,51,-1,51,50,52,-1,51,52,0,-1,0,52,53,-1,0,53,1,-1,45,47,54,-1,54,47,49,-1,54,49,51,-1,38,40,54,-1,54,40,43,-1,54,43,45,-1,32,34,54,-1,54,34,36,-1,54,36,38,-1,25,27,54,-1,54,27,29,-1,54,29,32,-1,19,21,54,-1,54,21,23,-1,54,23,25,-1,11,14,54,-1,54,14,16,-1,54,16,19,-1,4,7,54,-1,54,7,9,-1,54,9,11,-1,51,0,54,-1,54,0,2,-1,54,2,4,-1,55,56,57,-1,57,56,58,-1,57,58,59,-1,59,58,60,-1,59,60,61,-1,61,60,62,-1,61,62,63,-1,61,63,64,-1,64,63,65,-1,64,65,66,-1,66,65,67,-1,66,67,68,-1,68,67,69,-1,68,69,70,-1,70,69,71,-1,70,71,72,-1,72,71,73,-1,72,73,74,-1,74,73,75,-1,74,75,76,-1,76,75,77,-1,76,77,78,-1,78,77,79,-1,78,79,80,-1,80,79,81,-1,80,81,82,-1,82,81,83,-1,82,83,84,-1,84,83,85,-1,84,85,86,-1,86,85,87,-1,87,85,88,-1,87,88,55,-1,55,88,56,-1,60,58,88,-1,88,58,56,-1,62,60,88,-1,88,85,62,-1,62,85,83,-1,62,83,81,-1,81,79,62,-1,62,79,77,-1,62,77,75,-1,73,65,75,-1,75,65,63,-1,75,63,62,-1,73,71,65,-1,65,71,69,-1,65,69,67,-1,89,90,91,-1,91,90,92,-1,91,92,93,-1,93,92,94,-1,93,94,95,-1,95,94,96,-1,95,96,97,-1,95,97,98,-1,98,97,99,-1,98,99,100,-1,100,99,101,-1,100,101,102,-1,102,101,103,-1,102,103,104,-1,104,103,105,-1,104,105,106,-1,106,105,107,-1,106,107,108,-1,108,107,109,-1,108,109,110,-1,110,109,111,-1,110,111,112,-1,112,111,113,-1,112,113,114,-1,114,113,115,-1,114,115,116,-1,116,115,117,-1,116,117,118,-1,118,117,119,-1,118,119,120,-1,120,119,121,-1,121,119,122,-1,121,122,89,-1,89,122,90,-1,94,92,122,-1,122,92,90,-1,96,94,122,-1,122,119,96,-1,96,119,117,-1,96,117,115,-1,115,113,96,-1,96,113,111,-1,96,111,109,-1,107,99,109,-1,109,99,97,-1,109,97,96,-1,107,105,99,-1,99,105,103,-1,99,103,101,-1,123,124,125,-1,125,124,126,-1,125,126,127,-1,127,126,128,-1,127,128,129,-1,129,128,130,-1,129,130,131,-1,129,131,132,-1,132,131,133,-1,132,133,134,-1,134,133,135,-1,134,135,136,-1,136,135,137,-1,136,137,138,-1,138,137,139,-1,138,139,140,-1,140,139,141,-1,140,141,142,-1,142,141,143,-1,142,143,144,-1,144,143,145,-1,144,145,146,-1,146,145,147,-1,146,147,148,-1,148,147,149,-1,148,149,150,-1,150,149,151,-1,150,151,152,-1,152,151,153,-1,152,153,154,-1,154,153,155,-1,155,153,156,-1,155,156,123,-1,123,156,124,-1,128,126,156,-1,156,126,124,-1,151,149,147,-1,139,153,141,-1,141,153,143,-1,139,137,153,-1,153,137,135,-1,153,135,133,-1,151,147,153,-1,153,147,145,-1,153,145,143,-1,128,156,130,-1,130,156,153,-1,130,153,131,-1,131,153,133,-1,157,158,159,-1,159,158,160,-1,159,160,161,-1,161,160,162,-1,161,162,163,-1,163,162,164,-1,163,164,165,-1,163,165,166,-1,166,165,167,-1,166,167,168,-1,168,167,169,-1,168,169,170,-1,170,169,171,-1,170,171,172,-1,172,171,173,-1,172,173,174,-1,174,173,175,-1,174,175,176,-1,176,175,177,-1,176,177,178,-1,178,177,179,-1,178,179,180,-1,180,179,181,-1,180,181,182,-1,182,181,183,-1,182,183,184,-1,184,183,185,-1,184,185,186,-1,186,185,187,-1,186,187,188,-1,188,187,189,-1,189,187,190,-1,189,190,157,-1,157,190,158,-1,162,160,190,-1,190,160,158,-1,185,183,181,-1,173,187,175,-1,175,187,177,-1,173,171,187,-1,187,171,169,-1,187,169,167,-1,185,181,187,-1,187,181,179,-1,187,179,177,-1,162,190,164,-1,164,190,187,-1,164,187,165,-1,165,187,167,-1,191,192,193,-1,193,192,194,-1,195,196,197,-1,197,196,198,-1,197,198,191,-1,191,198,192,-1,193,194,199,-1,199,194,200,-1,199,200,201,-1,201,200,202,-1,201,202,203,-1,201,203,204,-1,204,203,205,-1,204,205,206,-1,206,205,207,-1,206,207,208,-1,208,207,209,-1,208,209,210,-1,210,209,211,-1,210,211,212,-1,212,211,213,-1,212,213,214,-1,214,213,215,-1,214,215,216,-1,216,215,217,-1,216,217,218,-1,218,217,219,-1,218,219,220,-1,220,219,221,-1,220,221,222,-1,222,221,223,-1,222,223,224,-1,224,223,196,-1,224,196,195,-1,200,194,198,-1,198,194,192,-1,200,198,202,-1,202,198,196,-1,202,196,203,-1,203,196,205,-1,215,213,217,-1,217,213,219,-1,223,221,209,-1,209,221,219,-1,209,219,211,-1,211,219,213,-1,223,209,196,-1,196,209,207,-1,196,207,205,-1,225,226,227,-1,227,226,228,-1,229,230,231,-1,231,230,232,-1,231,232,225,-1,225,232,226,-1,227,228,233,-1,233,228,234,-1,233,234,235,-1,235,234,236,-1,235,236,237,-1,235,237,238,-1,238,237,239,-1,238,239,240,-1,240,239,241,-1,240,241,242,-1,242,241,243,-1,242,243,244,-1,244,243,245,-1,244,245,246,-1,246,245,247,-1,246,247,248,-1,248,247,249,-1,248,249,250,-1,250,249,251,-1,250,251,252,-1,252,251,253,-1,252,253,254,-1,254,253,255,-1,254,255,256,-1,256,255,257,-1,256,257,258,-1,258,257,230,-1,258,230,229,-1,234,228,232,-1,232,228,226,-1,234,232,236,-1,236,232,230,-1,236,230,237,-1,237,230,239,-1,257,243,230,-1,230,243,241,-1,230,241,239,-1,249,247,251,-1,251,247,253,-1,257,255,243,-1,243,255,253,-1,243,253,245,-1,245,253,247,-1,259,260,261,-1,261,260,262,-1,263,264,265,-1,265,264,266,-1,265,266,259,-1,259,266,260,-1,261,262,267,-1,267,262,268,-1,267,268,269,-1,269,268,270,-1,269,270,271,-1,269,271,272,-1,272,271,273,-1,272,273,274,-1,274,273,275,-1,274,275,276,-1,276,275,277,-1,276,277,278,-1,278,277,279,-1,278,279,280,-1,280,279,281,-1,280,281,282,-1,282,281,283,-1,282,283,284,-1,284,283,285,-1,284,285,286,-1,286,285,287,-1,286,287,288,-1,288,287,289,-1,288,289,290,-1,290,289,291,-1,290,291,292,-1,292,291,264,-1,292,264,263,-1,268,262,266,-1,266,262,260,-1,268,266,270,-1,270,266,264,-1,270,264,291,-1,291,289,270,-1,270,289,287,-1,270,287,285,-1,279,277,281,-1,281,277,275,-1,281,275,273,-1,285,283,270,-1,270,283,281,-1,270,281,271,-1,271,281,273,-1,293,294,295,-1,295,294,296,-1,297,298,299,-1,299,298,300,-1,299,300,293,-1,293,300,294,-1,295,296,301,-1,301,296,302,-1,301,302,303,-1,303,302,304,-1,303,304,305,-1,303,305,306,-1,306,305,307,-1,306,307,308,-1,308,307,309,-1,308,309,310,-1,310,309,311,-1,310,311,312,-1,312,311,313,-1,312,313,314,-1,314,313,315,-1,314,315,316,-1,316,315,317,-1,316,317,318,-1,318,317,319,-1,318,319,320,-1,320,319,321,-1,320,321,322,-1,322,321,323,-1,322,323,324,-1,324,323,325,-1,324,325,326,-1,326,325,298,-1,326,298,297,-1,302,296,300,-1,300,296,294,-1,302,300,304,-1,304,300,298,-1,304,298,325,-1,325,323,304,-1,304,323,321,-1,304,321,319,-1,313,311,315,-1,315,311,309,-1,315,309,307,-1,319,317,304,-1,304,317,315,-1,304,315,305,-1,305,315,307,-1,327,328,329,-1,329,328,330,-1,331,330,332,-1,332,330,328,-1,333,331,334,-1,334,331,332,-1,335,333,336,-1,336,333,334,-1,333,335,331,-1,331,335,337,-1,331,337,338,-1,338,339,331,-1,331,339,340,-1,331,340,330,-1,330,340,341,-1,330,341,329,-1,327,329,342,-1,342,329,341,-1,342,341,343,-1,343,341,340,-1,343,340,344,-1,344,340,339,-1,344,339,345,-1,345,339,338,-1,345,338,346,-1,346,338,337,-1,346,337,336,-1,336,337,335,-1,
        ]
    }
}
Shape{
    appearance Appearance {
        material  Material 	{
            diffuseColor 1.0 1.0 1.0
            specularColor 0.5019607843137255 0.5019607843137255 0.5019607843137255
            ambientIntensity 0.2
            transparency 0
            shininess 0.5
        }
    }
    geometry IndexedFaceSet {
        ccw TRUE
        solid FALSE
        coord DEF co Coordinate {
            point [
                -0.2517 -0.1826 0.2205, -0.256 -0.1826 0.2205, -0.2517 -0.1826 0.2165, -0.256 -0.1826 0.2165, -0.2517 -0.1679 0.2205, -0.2517 -0.1679 0.2165, -0.2189 -0.1679 0.2205, -0.2189 -0.1679 0.2165, -0.2189 -0.1631 0.2205, -0.2189 -0.1631 0.2165, -0.256 -0.1631 0.2205, -0.256 -0.1631 0.2165, -0.2566 -0.2016 0.2205, -0.2566 -0.2016 0.2165, -0.2561 -0.2073 0.2205, -0.2563 -0.2049 0.2165, -0.2561 -0.2073 0.2165, -0.2547 -0.2113 0.2165, -0.2547 -0.2113 0.2205, -0.2544 -0.2119 0.2165, -0.2544 -0.2119 0.2205, -0.2498 -0.2119 0.2205, -0.2498 -0.2119 0.2165, -0.2515 -0.2083 0.2165, -0.2515 -0.2083 0.2205, -0.2523 -0.2041 0.2165, -0.2523 -0.2041 0.2205, -0.2523 -0.2023 0.2165, -0.2523 -0.2023 0.2205, -0.2519 -0.1985 0.2165, -0.2519 -0.1985 0.2205, -0.2508 -0.1959 0.2165, -0.2508 -0.1959 0.2205, -0.2491 -0.1935 0.2165, -0.2491 -0.1935 0.2205, -0.2484 -0.1928 0.2165, -0.2484 -0.1928 0.2205, -0.2459 -0.191 0.2165, -0.2459 -0.191 0.2205, -0.2429 -0.1898 0.2165, -0.2429 -0.1898 0.2205, -0.2392 -0.1892 0.2165, -0.2392 -0.1892 0.2205, -0.2378 -0.1892 0.2165, -0.2378 -0.1892 0.2205, -0.2332 -0.1897 0.2165, -0.2332 -0.1897 0.2205, -0.2299 -0.1908 0.2165, -0.2299 -0.1908 0.2205, -0.2272 -0.1926 0.2165, -0.2272 -0.1926 0.2205, -0.2267 -0.193 0.2165, -0.2267 -0.193 0.2205, -0.2246 -0.1956 0.2165, -0.2246 -0.1956 0.2205, -0.2233 -0.1985 0.2165, -0.2233 -0.1985 0.2205, -0.2226 -0.2017 0.2165, -0.2226 -0.2017 0.2205, -0.2226 -0.2032 0.2165, -0.2226 -0.2032 0.2205, -0.2231 -0.2077 0.2165, -0.2231 -0.2077 0.2205, -0.2246 -0.2115 0.2165, -0.2246 -0.2115 0.2205, -0.2248 -0.2119 0.2165, -0.2248 -0.2119 0.2205, -0.2198 -0.2119 0.2205, -0.2198 -0.2119 0.2165, -0.2187 -0.2081 0.2165, -0.2187 -0.2081 0.2205, -0.2183 -0.2033 0.2165, -0.2183 -0.2033 0.2205, -0.2183 -0.2031 0.2165, -0.2183 -0.2031 0.2205, -0.2189 -0.1977 0.2165, -0.2189 -0.1977 0.2205, -0.2205 -0.1938 0.2165, -0.2205 -0.1938 0.2205, -0.2229 -0.1903 0.2165, -0.2229 -0.1903 0.2205, -0.2237 -0.1895 0.2165, -0.2237 -0.1895 0.2205, -0.2272 -0.1868 0.2165, -0.2272 -0.1868 0.2205, -0.2296 -0.1858 0.2165, -0.2314 -0.185 0.2205, -0.2314 -0.185 0.2165, -0.2362 -0.1842 0.2165, -0.2362 -0.1842 0.2205, -0.2381 -0.1841 0.2165, -0.2381 -0.1841 0.2205, -0.244 -0.1848 0.2165, -0.244 -0.1848 0.2205, -0.2466 -0.1858 0.2165, -0.2479 -0.1863 0.2205, -0.2479 -0.1863 0.2165, -0.2511 -0.1885 0.2165, -0.2511 -0.1885 0.2205, -0.2515 -0.1889 0.2165, -0.2515 -0.1889 0.2205, -0.2565 -0.1994 0.2205, -0.254 -0.1919 0.2165, -0.254 -0.1919 0.2205, -0.2557 -0.1954 0.2165, -0.2557 -0.1954 0.2205, -0.2563 -0.1984 0.2165, -0.2565 -0.1994 0.2165, -0.2517 -0.2392 0.2205, -0.256 -0.2392 0.2205, -0.2517 -0.2392 0.2165, -0.256 -0.2392 0.2165, -0.2517 -0.2241 0.2165, -0.2517 -0.2241 0.2205, -0.2517 -0.2341 0.2165, -0.2393 -0.2241 0.2205, -0.2393 -0.2241 0.2165, -0.2393 -0.2373 0.2205, -0.2393 -0.2341 0.2165, -0.2393 -0.2373 0.2165, -0.235 -0.2373 0.2205, -0.235 -0.2373 0.2165, -0.235 -0.2241 0.2165, -0.235 -0.2241 0.2205, -0.235 -0.2341 0.2165, -0.2232 -0.2241 0.2205, -0.2232 -0.2241 0.2165, -0.2232 -0.2384 0.2205, -0.2232 -0.2341 0.2165, -0.2232 -0.2384 0.2165, -0.2189 -0.2384 0.2205, -0.2189 -0.2384 0.2165, -0.2189 -0.2193 0.2165, -0.2189 -0.2193 0.2205, -0.2189 -0.2341 0.2165, -0.256 -0.2193 0.2205, -0.256 -0.2193 0.2165, -0.256 -0.2341 0.2165, -0.2394 -0.2713 0.2205, -0.2393 -0.2763 0.2205, -0.2371 -0.2714 0.2205, -0.237 -0.2764 0.2205, -0.2328 -0.2709 0.2205, -0.2318 -0.2758 0.2205, -0.23 -0.2699 0.2205, -0.2282 -0.2744 0.2205, -0.2279 -0.2686 0.2205, -0.225 -0.2721 0.2205, -0.2266 -0.2673 0.2205, -0.2238 -0.2708 0.2205, -0.2249 -0.2646 0.2205, -0.2212 -0.2669 0.2205, -0.2237 -0.2614 0.2205, -0.2195 -0.2625 0.2205, -0.2232 -0.2566 0.2205, -0.2189 -0.2568 0.2205, -0.2232 -0.251 0.2205, -0.2189 -0.2462 0.2205, -0.2517 -0.251 0.2205, -0.256 -0.2462 0.2205, -0.2517 -0.2564 0.2205, -0.256 -0.2564 0.2205, -0.2512 -0.2611 0.2205, -0.2553 -0.2625 0.2205, -0.2501 -0.2643 0.2205, -0.2537 -0.2667 0.2205, -0.2485 -0.2667 0.2205, -0.2512 -0.2703 0.2205, -0.2479 -0.2674 0.2205, -0.2508 -0.2708 0.2205, -0.2456 -0.2693 0.2205, -0.2475 -0.2736 0.2205, -0.2428 -0.2706 0.2205, -0.2436 -0.2754 0.2205, -0.256 -0.2564 0.2165, -0.256 -0.2462 0.2165, -0.2553 -0.2625 0.2165, -0.255 -0.2632 0.2165, -0.2537 -0.2667 0.2165, -0.2512 -0.2703 0.2165, -0.2508 -0.2708 0.2165, -0.2475 -0.2736 0.2165, -0.2436 -0.2754 0.2165, -0.2393 -0.2763 0.2165, -0.237 -0.2764 0.2165, -0.2318 -0.2758 0.2165, -0.2282 -0.2744 0.2165, -0.225 -0.2721 0.2165, -0.2238 -0.2708 0.2165, -0.2189 -0.2568 0.2165, -0.2212 -0.2669 0.2165, -0.2198 -0.2632 0.2165, -0.2195 -0.2625 0.2165, -0.2189 -0.2462 0.2165, -0.2232 -0.2566 0.2165, -0.2232 -0.251 0.2165, -0.2517 -0.251 0.2165, -0.2517 -0.2564 0.2165, -0.2479 -0.2674 0.2165, -0.2485 -0.2667 0.2165, -0.2501 -0.2643 0.2165, -0.2512 -0.2611 0.2165, -0.2371 -0.2714 0.2165, -0.2394 -0.2713 0.2165, -0.2428 -0.2706 0.2165, -0.2456 -0.2693 0.2165, -0.2266 -0.2673 0.2165, -0.2279 -0.2686 0.2165, -0.23 -0.2699 0.2165, -0.2328 -0.2709 0.2165, -0.2237 -0.2614 0.2165, -0.2249 -0.2646 0.2165, -0.2249 -0.2646 0.2165
            ]
        }
        coordIndex [
            0,1,2,-1,2,1,3,-1,4,0,5,-1,5,0,2,-1,6,4,7,-1,7,4,5,-1,8,6,9,-1,9,6,7,-1,10,8,11,-1,11,8,9,-1,1,10,3,-1,3,10,11,-1,6,8,4,-1,4,8,10,-1,4,10,0,-1,0,10,1,-1,12,13,14,-1,14,13,15,-1,15,16,14,-1,14,16,17,-1,14,17,18,-1,18,17,19,-1,18,19,20,-1,21,20,22,-1,22,20,19,-1,21,22,23,-1,21,23,24,-1,24,23,25,-1,24,25,26,-1,26,25,27,-1,26,27,28,-1,28,27,29,-1,28,29,30,-1,30,29,31,-1,30,31,32,-1,32,31,33,-1,32,33,34,-1,34,33,35,-1,34,35,36,-1,36,35,37,-1,36,37,38,-1,38,37,39,-1,38,39,40,-1,40,39,41,-1,40,41,42,-1,42,41,43,-1,42,43,44,-1,44,43,45,-1,44,45,46,-1,46,45,47,-1,46,47,48,-1,48,47,49,-1,48,49,50,-1,50,49,51,-1,50,51,52,-1,52,51,53,-1,52,53,54,-1,54,53,55,-1,54,55,56,-1,56,55,57,-1,56,57,58,-1,58,57,59,-1,58,59,60,-1,60,59,61,-1,60,61,62,-1,62,61,63,-1,62,63,64,-1,64,63,65,-1,64,65,66,-1,67,66,68,-1,68,66,65,-1,67,68,69,-1,67,69,70,-1,70,69,71,-1,70,71,72,-1,72,71,73,-1,72,73,74,-1,74,73,75,-1,74,75,76,-1,76,75,77,-1,76,77,78,-1,78,77,79,-1,78,79,80,-1,80,79,81,-1,80,81,82,-1,82,81,83,-1,82,83,84,-1,84,83,85,-1,84,85,86,-1,85,87,86,-1,86,87,88,-1,86,88,89,-1,89,88,90,-1,89,90,91,-1,91,90,92,-1,91,92,93,-1,93,92,94,-1,93,94,95,-1,94,96,95,-1,95,96,97,-1,95,97,98,-1,98,97,99,-1,98,99,100,-1,13,12,101,-1,100,99,102,-1,100,102,103,-1,103,102,104,-1,103,104,105,-1,105,104,106,-1,105,106,101,-1,101,106,107,-1,101,107,13,-1,64,66,67,-1,46,48,84,-1,64,67,62,-1,62,67,70,-1,62,70,60,-1,60,70,72,-1,60,72,58,-1,58,72,74,-1,58,74,56,-1,56,74,76,-1,56,76,54,-1,20,21,18,-1,18,21,24,-1,18,24,14,-1,14,24,26,-1,14,26,12,-1,12,26,28,-1,12,28,101,-1,101,28,30,-1,101,30,105,-1,105,30,32,-1,105,32,103,-1,103,32,34,-1,103,34,100,-1,100,34,36,-1,100,36,98,-1,98,36,38,-1,98,38,95,-1,84,48,82,-1,76,78,54,-1,54,78,80,-1,54,80,52,-1,52,80,82,-1,52,82,50,-1,50,82,48,-1,91,44,89,-1,89,44,46,-1,89,46,86,-1,86,46,84,-1,95,38,93,-1,93,38,40,-1,93,40,91,-1,91,40,42,-1,91,42,44,-1,108,109,110,-1,110,109,111,-1,112,113,114,-1,114,113,108,-1,114,108,110,-1,115,113,116,-1,116,113,112,-1,115,116,117,-1,117,116,118,-1,117,118,119,-1,120,117,121,-1,121,117,119,-1,122,123,124,-1,124,123,120,-1,124,120,121,-1,125,123,126,-1,126,123,122,-1,125,126,127,-1,127,126,128,-1,127,128,129,-1,130,127,131,-1,131,127,129,-1,132,133,134,-1,134,133,130,-1,134,130,131,-1,135,133,136,-1,136,133,132,-1,135,136,109,-1,109,136,137,-1,109,137,111,-1,135,109,108,-1,108,113,135,-1,135,113,115,-1,135,115,133,-1,127,130,125,-1,125,130,133,-1,125,133,123,-1,123,133,115,-1,123,115,120,-1,120,115,117,-1,138,139,140,-1,140,139,141,-1,140,141,142,-1,142,141,143,-1,142,143,144,-1,144,143,145,-1,144,145,146,-1,146,145,147,-1,146,147,148,-1,148,147,149,-1,148,149,150,-1,150,149,151,-1,150,151,152,-1,152,151,153,-1,152,153,154,-1,154,153,155,-1,154,155,156,-1,156,155,157,-1,156,157,158,-1,158,157,159,-1,158,159,160,-1,160,159,161,-1,160,161,162,-1,162,161,163,-1,162,163,164,-1,164,163,165,-1,164,165,166,-1,166,165,167,-1,166,167,168,-1,168,167,169,-1,168,169,170,-1,170,169,171,-1,170,171,172,-1,172,171,173,-1,172,173,138,-1,138,173,139,-1,161,159,174,-1,174,159,175,-1,161,174,176,-1,161,176,163,-1,163,176,177,-1,163,177,165,-1,177,178,165,-1,165,178,179,-1,165,179,167,-1,167,179,180,-1,167,180,169,-1,169,180,181,-1,169,181,171,-1,171,181,182,-1,171,182,173,-1,173,182,183,-1,173,183,139,-1,139,183,184,-1,139,184,141,-1,141,184,185,-1,141,185,143,-1,143,185,186,-1,143,186,145,-1,145,186,187,-1,145,187,147,-1,147,187,188,-1,147,188,149,-1,189,155,153,-1,149,188,190,-1,149,190,151,-1,151,190,191,-1,151,191,153,-1,153,191,192,-1,153,192,189,-1,157,155,193,-1,193,155,189,-1,159,157,175,-1,175,157,193,-1,154,156,194,-1,194,156,195,-1,156,158,195,-1,195,158,196,-1,158,160,196,-1,196,160,197,-1,168,198,199,-1,168,199,166,-1,166,199,200,-1,166,200,164,-1,164,200,201,-1,164,201,162,-1,162,201,197,-1,162,197,160,-1,140,202,203,-1,140,203,138,-1,138,203,204,-1,138,204,172,-1,172,204,205,-1,172,205,170,-1,170,205,198,-1,170,198,168,-1,148,206,207,-1,148,207,146,-1,146,207,208,-1,146,208,144,-1,144,208,209,-1,144,209,142,-1,142,209,202,-1,142,202,140,-1,154,194,210,-1,154,210,152,-1,152,210,211,-1,152,211,150,-1,150,211,206,-1,150,206,148,-1,
        ]
    }
}
Shape{
    appearance Appearance {
        material  Material 	{
            diffuseColor 0.2235294117647059 0.2235294117647059 0.2235294117647059
            specularColor 0.11372549019607843 0.11372549019607843 0.11372549019607843
            ambientIntensity 0.2
            transparency 0
            shininess 0.5
        }
    }
    geometry IndexedFaceSet {
        ccw TRUE
        solid FALSE
        coord DEF co Coordinate {
            point [
                -0.2232 -0.251 0.2165, -0.2517 -0.251 0.2165, -0.2232 -0.2566 0.2165, -0.2517 -0.2564 0.2165, -0.2512 -0.2611 0.2165, -0.2501 -0.2643 0.2165, -0.2485 -0.2667 0.2165, -0.2479 -0.2674 0.2165, -0.2456 -0.2693 0.2165, -0.2428 -0.2706 0.2165, -0.2394 -0.2713 0.2165, -0.2371 -0.2714 0.2165, -0.2328 -0.2709 0.2165, -0.23 -0.2699 0.2165, -0.2279 -0.2686 0.2165, -0.2266 -0.2673 0.2165, -0.2237 -0.2614 0.2165, -0.2249 -0.2646 0.2165, -0.2249 -0.2646 0.2165
            ]
        }
        coordIndex [
            0,1,2,-1,2,1,3,-1,2,3,4,-1,4,5,2,-1,2,5,6,-1,2,6,7,-1,7,8,2,-1,2,8,9,-1,2,9,10,-1,10,11,2,-1,2,11,12,-1,2,12,13,-1,13,14,2,-1,2,14,15,-1,2,15,16,-1,16,15,17,-1,
        ]
    }
}
Shape{
    appearance Appearance {
        material  Material 	{
            diffuseColor 1.0 1.0 1.0
            specularColor 0.5019607843137255 0.5019607843137255 0.5019607843137255
            ambientIntensity 0.2
            transparency 0
            shininess 0.5
        }
    }
    geometry IndexedFaceSet {
        ccw TRUE
        solid FALSE
        coord DEF co Coordinate {
            point [
                -0.2416 -0.2888 0.2205, -0.2262 -0.2944 0.2205, -0.2189 -0.2926 0.2205, -0.256 -0.2785 0.2205, -0.256 -0.2838 0.2205, -0.2458 -0.2873 0.2205, -0.2251 -0.2947 0.2205, -0.2236 -0.295 0.2205, -0.2189 -0.2977 0.2205, -0.2236 -0.2951 0.2205, -0.2252 -0.2954 0.2205, -0.2262 -0.2957 0.2205, -0.2416 -0.3013 0.2205, -0.256 -0.3118 0.2205, -0.256 -0.3065 0.2205, -0.2458 -0.3028 0.2205, -0.2189 -0.2977 0.2165, -0.256 -0.3118 0.2165, -0.2189 -0.2926 0.2165, -0.256 -0.2785 0.2165, -0.2279 -0.2892 0.2165, -0.256 -0.2838 0.2165, -0.2458 -0.2873 0.2165, -0.2458 -0.3028 0.2165, -0.2458 -0.2892 0.2165, -0.256 -0.3065 0.2165, -0.2416 -0.2888 0.2165, -0.2416 -0.3013 0.2165, -0.2262 -0.2957 0.2165, -0.2236 -0.2951 0.2165, -0.2252 -0.2954 0.2165, -0.2236 -0.295 0.2165, -0.2262 -0.2944 0.2165, -0.2251 -0.2947 0.2165, -0.2251 -0.2947 0.2165
            ]
        }
        coordIndex [
            0,1,2,-1,3,4,5,-1,1,6,2,-1,2,6,7,-1,2,7,8,-1,8,7,9,-1,8,9,10,-1,10,11,8,-1,8,11,12,-1,8,12,13,-1,14,13,15,-1,15,13,12,-1,15,12,5,-1,5,12,0,-1,5,0,3,-1,3,0,2,-1,8,13,16,-1,16,13,17,-1,2,8,18,-1,18,8,16,-1,19,3,20,-1,20,3,2,-1,20,2,18,-1,4,3,21,-1,21,3,19,-1,5,4,22,-1,22,4,21,-1,23,15,24,-1,24,15,5,-1,24,5,22,-1,14,15,25,-1,25,15,23,-1,13,14,17,-1,17,14,25,-1,0,12,26,-1,26,12,27,-1,12,11,27,-1,27,11,28,-1,9,29,30,-1,9,30,10,-1,10,30,28,-1,10,28,11,-1,9,7,29,-1,29,7,31,-1,1,32,33,-1,1,33,6,-1,6,33,31,-1,6,31,7,-1,1,0,32,-1,32,0,26,-1,
        ]
    }
}
Shape{
    appearance Appearance {
        material  Material 	{
            diffuseColor 0.2235294117647059 0.2235294117647059 0.2235294117647059
            specularColor 0.11372549019607843 0.11372549019607843 0.11372549019607843
            ambientIntensity 0.2
            transparency 0
            shininess 0.5
        }
    }
    geometry IndexedFaceSet {
        ccw TRUE
        solid FALSE
        coord DEF co Coordinate {
            point [
                -0.2236 -0.2951 0.2165, -0.2236 -0.295 0.2165, -0.2252 -0.2954 0.2165, -0.2251 -0.2947 0.2165, -0.2262 -0.2957 0.2165, -0.2262 -0.2944 0.2165, -0.2416 -0.3013 0.2165, -0.2416 -0.2888 0.2165, -0.2416 -0.2888 0.2165
            ]
        }
        coordIndex [
            0,1,2,-1,2,1,3,-1,2,3,4,-1,4,3,5,-1,4,5,6,-1,6,5,7,-1,
        ]
    }
}
Shape{
    appearance Appearance {
        material  Material 	{
            diffuseColor 1.0 1.0 1.0
            specularColor 0.5019607843137255 0.5019607843137255 0.5019607843137255
            ambientIntensity 0.2
            transparency 0
            shininess 0.5
        }
    }
    geometry IndexedFaceSet {
        ccw TRUE
        solid FALSE
        coord DEF co Coordinate {
            point [
                -0.3105 -0.183 0.2205, -0.3148 -0.183 0.2205, -0.3105 -0.183 0.2165, -0.3148 -0.183 0.2165, -0.3105 -0.1679 0.2205, -0.3105 -0.1679 0.2165, -0.2981 -0.1679 0.2205, -0.2981 -0.1679 0.2165, -0.2981 -0.1811 0.2205, -0.2981 -0.1811 0.2165, -0.2938 -0.1811 0.2205, -0.2938 -0.1811 0.2165, -0.2938 -0.1679 0.2205, -0.2938 -0.1679 0.2165, -0.282 -0.1679 0.2205, -0.282 -0.1679 0.2165, -0.282 -0.1822 0.2205, -0.282 -0.1822 0.2165, -0.2777 -0.1822 0.2205, -0.2777 -0.1822 0.2165, -0.2777 -0.1631 0.2205, -0.2777 -0.1631 0.2165, -0.3148 -0.1631 0.2205, -0.3148 -0.1631 0.2165, -0.3148 -0.2041 0.2205, -0.3148 -0.2087 0.2205, -0.3107 -0.2041 0.2205, -0.2977 -0.2087 0.2205, -0.2979 -0.2041 0.2205, -0.3035 -0.194 0.2205, -0.303 -0.1951 0.2205, -0.3023 -0.1979 0.2205, -0.3015 -0.2041 0.2205, -0.304 -0.2041 0.2205, -0.3107 -0.204 0.2205, -0.3101 -0.2014 0.2205, -0.3123 -0.2028 0.2205, -0.3109 -0.2001 0.2205, -0.3047 -0.2041 0.2205, -0.3065 -0.2037 0.2205, -0.3082 -0.203 0.2205, -0.3094 -0.2021 0.2205, -0.31 -0.1931 0.2205, -0.3133 -0.1897 0.2205, -0.3104 -0.1935 0.2205, -0.3142 -0.191 0.2205, -0.311 -0.1944 0.2205, -0.315 -0.1927 0.2205, -0.3114 -0.1955 0.2205, -0.3154 -0.1948 0.2205, -0.3116 -0.197 0.2205, -0.2959 -0.2039 0.2205, -0.2942 -0.2084 0.2205, -0.2943 -0.2034 0.2205, -0.2921 -0.2076 0.2205, -0.2933 -0.2029 0.2205, -0.2906 -0.2067 0.2205, -0.2925 -0.2022 0.2205, -0.2894 -0.2054 0.2205, -0.292 -0.2014 0.2205, -0.2885 -0.2039 0.2205, -0.2916 -0.2003 0.2205, -0.2879 -0.2019 0.2205, -0.2915 -0.1987 0.2205, -0.2877 -0.1992 0.2205, -0.2917 -0.1962 0.2205, -0.2883 -0.1944 0.2205, -0.2926 -0.1933 0.2205, -0.2896 -0.1909 0.2205, -0.2947 -0.19 0.2205, -0.2902 -0.19 0.2205, -0.3154 -0.1958 0.2205, -0.3151 -0.1984 0.2205, -0.3114 -0.1987 0.2205, -0.3144 -0.2003 0.2205, -0.3137 -0.2013 0.2205, -0.3066 -0.1922 0.2205, -0.3071 -0.1875 0.2205, -0.3073 -0.1922 0.2205, -0.3077 -0.1874 0.2205, -0.3084 -0.1923 0.2205, -0.31 -0.1877 0.2205, -0.3092 -0.1926 0.2205, -0.3115 -0.1883 0.2205, -0.3129 -0.1893 0.2205, -0.299 -0.1962 0.2205, -0.2999 -0.1927 0.2205, -0.304 -0.1934 0.2205, -0.3009 -0.1907 0.2205, -0.3046 -0.1928 0.2205, -0.3022 -0.1893 0.2205, -0.3055 -0.1924 0.2205, -0.3035 -0.1884 0.2205, -0.3051 -0.1878 0.2205, -0.2877 -0.1992 0.2165, -0.2883 -0.1944 0.2165, -0.2896 -0.1909 0.2165, -0.2902 -0.19 0.2165, -0.2947 -0.19 0.2165, -0.2926 -0.1933 0.2165, -0.2917 -0.1962 0.2165, -0.2915 -0.1987 0.2165, -0.2916 -0.2003 0.2165, -0.292 -0.2014 0.2165, -0.2925 -0.2022 0.2165, -0.2933 -0.2029 0.2165, -0.2943 -0.2034 0.2165, -0.2959 -0.2039 0.2165, -0.2979 -0.2041 0.2165, -0.299 -0.1962 0.2165, -0.2999 -0.1927 0.2165, -0.3009 -0.1907 0.2165, -0.3022 -0.1893 0.2165, -0.3035 -0.1884 0.2165, -0.3051 -0.1878 0.2165, -0.3071 -0.1875 0.2165, -0.3077 -0.1874 0.2165, -0.31 -0.1877 0.2165, -0.3115 -0.1883 0.2165, -0.3129 -0.1893 0.2165, -0.3133 -0.1897 0.2165, -0.3154 -0.1958 0.2165, -0.3142 -0.191 0.2165, -0.315 -0.1927 0.2165, -0.3151 -0.1933 0.2165, -0.3154 -0.1948 0.2165, -0.3151 -0.1984 0.2165, -0.3144 -0.2003 0.2165, -0.3137 -0.2013 0.2165, -0.3123 -0.2028 0.2165, -0.3107 -0.204 0.2165, -0.3107 -0.2041 0.2165, -0.3148 -0.2041 0.2165, -0.3148 -0.2087 0.2165, -0.2977 -0.2087 0.2165, -0.2942 -0.2084 0.2165, -0.2921 -0.2076 0.2165, -0.2906 -0.2067 0.2165, -0.2894 -0.2054 0.2165, -0.2885 -0.2039 0.2165, -0.2879 -0.2019 0.2165, -0.304 -0.1934 0.2165, -0.3035 -0.194 0.2165, -0.303 -0.1951 0.2165, -0.3023 -0.1979 0.2165, -0.3073 -0.1922 0.2165, -0.3066 -0.1922 0.2165, -0.3055 -0.1924 0.2165, -0.3046 -0.1928 0.2165, -0.3104 -0.1935 0.2165, -0.31 -0.1931 0.2165, -0.3092 -0.1926 0.2165, -0.3084 -0.1923 0.2165, -0.3116 -0.197 0.2165, -0.3114 -0.1955 0.2165, -0.311 -0.1944 0.2165, -0.3094 -0.2021 0.2165, -0.3101 -0.2014 0.2165, -0.3109 -0.2001 0.2165, -0.3114 -0.1987 0.2165, -0.304 -0.2041 0.2165, -0.3047 -0.2041 0.2165, -0.3065 -0.2037 0.2165, -0.3082 -0.203 0.2165, -0.3015 -0.2041 0.2165, -0.3015 -0.2041 0.2165
            ]
        }
        coordIndex [
            0,1,2,-1,2,1,3,-1,4,0,5,-1,5,0,2,-1,6,4,7,-1,7,4,5,-1,8,6,9,-1,9,6,7,-1,10,8,11,-1,11,8,9,-1,12,10,13,-1,13,10,11,-1,14,12,15,-1,15,12,13,-1,16,14,17,-1,17,14,15,-1,18,16,19,-1,19,16,17,-1,20,18,21,-1,21,18,19,-1,22,20,23,-1,23,20,21,-1,1,22,3,-1,3,22,23,-1,22,1,0,-1,0,4,22,-1,22,4,6,-1,22,6,20,-1,16,18,14,-1,14,18,20,-1,14,20,12,-1,12,20,6,-1,12,6,10,-1,10,6,8,-1,24,25,26,-1,26,25,27,-1,28,29,30,-1,31,32,27,-1,27,32,33,-1,34,35,36,-1,36,35,37,-1,33,38,27,-1,27,38,39,-1,27,39,26,-1,26,39,40,-1,26,40,34,-1,34,40,41,-1,34,41,35,-1,42,43,44,-1,44,43,45,-1,44,45,46,-1,46,45,47,-1,46,47,48,-1,48,47,49,-1,48,49,50,-1,30,31,28,-1,28,31,27,-1,28,27,51,-1,51,27,52,-1,51,52,53,-1,53,52,54,-1,53,54,55,-1,55,54,56,-1,55,56,57,-1,57,56,58,-1,57,58,59,-1,59,58,60,-1,59,60,61,-1,61,60,62,-1,61,62,63,-1,63,62,64,-1,63,64,65,-1,65,64,66,-1,65,66,67,-1,67,66,68,-1,67,68,69,-1,69,68,70,-1,49,71,50,-1,50,71,72,-1,50,72,73,-1,73,72,74,-1,73,74,37,-1,37,74,75,-1,37,75,36,-1,76,77,78,-1,78,77,79,-1,78,79,80,-1,80,79,81,-1,80,81,82,-1,82,81,83,-1,82,83,42,-1,42,83,84,-1,42,84,43,-1,28,85,29,-1,29,85,86,-1,29,86,87,-1,87,86,88,-1,87,88,89,-1,89,88,90,-1,89,90,91,-1,91,90,92,-1,91,92,76,-1,76,92,93,-1,76,93,77,-1,64,94,95,-1,64,95,66,-1,66,95,96,-1,66,96,68,-1,68,96,97,-1,68,97,70,-1,69,70,98,-1,98,70,97,-1,69,98,99,-1,69,99,67,-1,67,99,100,-1,67,100,65,-1,65,100,101,-1,65,101,63,-1,63,101,102,-1,63,102,61,-1,61,102,103,-1,61,103,59,-1,59,103,104,-1,59,104,57,-1,57,104,105,-1,57,105,55,-1,55,105,106,-1,55,106,53,-1,53,106,107,-1,53,107,51,-1,51,107,108,-1,51,108,28,-1,85,28,109,-1,109,28,108,-1,85,109,110,-1,85,110,86,-1,86,110,111,-1,86,111,88,-1,88,111,112,-1,88,112,90,-1,90,112,113,-1,90,113,92,-1,92,113,114,-1,92,114,93,-1,93,114,115,-1,93,115,77,-1,77,115,116,-1,77,116,79,-1,79,116,117,-1,79,117,81,-1,81,117,118,-1,81,118,83,-1,83,118,119,-1,83,119,84,-1,84,119,120,-1,84,120,43,-1,121,71,49,-1,43,120,122,-1,43,122,45,-1,45,122,123,-1,45,123,47,-1,47,123,124,-1,47,124,49,-1,49,124,125,-1,49,125,121,-1,71,121,126,-1,71,126,72,-1,72,126,127,-1,72,127,74,-1,74,127,128,-1,74,128,75,-1,75,128,129,-1,75,129,36,-1,36,129,130,-1,36,130,34,-1,26,34,131,-1,131,34,130,-1,24,26,132,-1,132,26,131,-1,25,24,133,-1,133,24,132,-1,27,25,134,-1,134,25,133,-1,27,134,135,-1,27,135,52,-1,52,135,136,-1,52,136,54,-1,54,136,137,-1,54,137,56,-1,56,137,138,-1,56,138,58,-1,58,138,139,-1,58,139,60,-1,60,139,140,-1,60,140,62,-1,62,140,94,-1,62,94,64,-1,87,141,142,-1,87,142,29,-1,29,142,143,-1,29,143,30,-1,30,143,144,-1,30,144,31,-1,78,145,146,-1,78,146,76,-1,76,146,147,-1,76,147,91,-1,91,147,148,-1,91,148,89,-1,89,148,141,-1,89,141,87,-1,44,149,150,-1,44,150,42,-1,42,150,151,-1,42,151,82,-1,82,151,152,-1,82,152,80,-1,80,152,145,-1,80,145,78,-1,50,153,154,-1,50,154,48,-1,48,154,155,-1,48,155,46,-1,46,155,149,-1,46,149,44,-1,41,156,157,-1,41,157,35,-1,35,157,158,-1,35,158,37,-1,37,158,159,-1,37,159,73,-1,73,159,153,-1,73,153,50,-1,33,160,161,-1,33,161,38,-1,38,161,162,-1,38,162,39,-1,39,162,163,-1,39,163,40,-1,40,163,156,-1,40,156,41,-1,33,32,160,-1,160,32,164,-1,32,31,164,-1,164,31,144,-1,
        ]
    }
}
Shape{
    appearance Appearance {
        material  Material 	{
            diffuseColor 0.2235294117647059 0.2235294117647059 0.2235294117647059
            specularColor 0.11372549019607843 0.11372549019607843 0.11372549019607843
            ambientIntensity 0.2
            transparency 0
            shininess 0.5
        }
    }
    geometry IndexedFaceSet {
        ccw TRUE
        solid FALSE
        coord DEF co Coordinate {
            point [
                -0.3094 -0.2021 0.2165, -0.3082 -0.203 0.2165, -0.3066 -0.1922 0.2165, -0.304 -0.2041 0.2165, -0.3015 -0.2041 0.2165, -0.3023 -0.1979 0.2165, -0.3055 -0.1924 0.2165, -0.303 -0.1951 0.2165, -0.3035 -0.194 0.2165, -0.304 -0.1934 0.2165, -0.3046 -0.1928 0.2165, -0.3065 -0.2037 0.2165, -0.3047 -0.2041 0.2165, -0.3073 -0.1922 0.2165, -0.3084 -0.1923 0.2165, -0.3092 -0.1926 0.2165, -0.3114 -0.1955 0.2165, -0.3116 -0.197 0.2165, -0.3101 -0.2014 0.2165, -0.3114 -0.1987 0.2165, -0.3109 -0.2001 0.2165, -0.31 -0.1931 0.2165, -0.3104 -0.1935 0.2165, -0.311 -0.1944 0.2165, -0.311 -0.1944 0.2165
            ]
        }
        coordIndex [
            0,1,2,-1,3,4,5,-1,2,1,6,-1,5,7,3,-1,3,7,8,-1,3,8,9,-1,6,1,10,-1,10,1,11,-1,10,11,9,-1,9,11,12,-1,9,12,3,-1,2,13,0,-1,0,13,14,-1,0,14,15,-1,16,17,18,-1,18,17,19,-1,18,19,20,-1,15,21,0,-1,0,21,22,-1,0,22,18,-1,18,22,23,-1,18,23,16,-1,
        ]
    }
}
Shape{
    appearance Appearance {
        material  Material 	{
            diffuseColor 1.0 1.0 1.0
            specularColor 0.5019607843137255 0.5019607843137255 0.5019607843137255
            ambientIntensity 0.2
            transparency 0
            shininess 0.5
        }
    }
    geometry IndexedFaceSet {
        ccw TRUE
        solid FALSE
        coord DEF co Coordinate {
            point [
                -0.309 -0.215 0.2165, -0.309 -0.215 0.2205, -0.3101 -0.2167 0.2205, -0.3116 -0.2227 0.2205, -0.3116 -0.2227 0.2165, -0.3112 -0.2196 0.2165, -0.3112 -0.2196 0.2205, -0.3103 -0.2172 0.2165, -0.3101 -0.2167 0.2165, -0.3138 -0.215 0.2205, -0.3138 -0.215 0.2165, -0.3146 -0.2172 0.2165, -0.315 -0.2182 0.2205, -0.3154 -0.2222 0.2165, -0.3154 -0.2222 0.2205, -0.3151 -0.2192 0.2165, -0.315 -0.2182 0.2165, -0.3151 -0.2251 0.2165, -0.315 -0.226 0.2205, -0.315 -0.226 0.2165, -0.3141 -0.2286 0.2165, -0.3141 -0.2286 0.2205, -0.3133 -0.2299 0.2165, -0.3133 -0.2299 0.2205, -0.3122 -0.2312 0.2165, -0.3122 -0.2312 0.2205, -0.311 -0.2321 0.2165, -0.311 -0.2321 0.2205, -0.3095 -0.2326 0.2165, -0.3095 -0.2326 0.2205, -0.3078 -0.2329 0.2165, -0.3078 -0.2329 0.2205, -0.3076 -0.2329 0.2165, -0.3076 -0.2329 0.2205, -0.3059 -0.2327 0.2165, -0.3059 -0.2327 0.2205, -0.3046 -0.2322 0.2165, -0.3046 -0.2322 0.2205, -0.3034 -0.2315 0.2165, -0.3034 -0.2315 0.2205, -0.3032 -0.2313 0.2165, -0.3032 -0.2313 0.2205, -0.302 -0.23 0.2165, -0.302 -0.23 0.2205, -0.3003 -0.2268 0.2165, -0.3003 -0.2268 0.2205, -0.2998 -0.2254 0.2165, -0.2998 -0.2254 0.2205, -0.2985 -0.2225 0.2165, -0.2985 -0.2225 0.2205, -0.2975 -0.2208 0.2165, -0.2975 -0.2208 0.2205, -0.297 -0.2204 0.2165, -0.297 -0.2204 0.2205, -0.2964 -0.2201 0.2165, -0.2964 -0.2201 0.2205, -0.2956 -0.2199 0.2165, -0.2956 -0.2199 0.2205, -0.295 -0.2198 0.2165, -0.295 -0.2198 0.2205, -0.2943 -0.2199 0.2165, -0.2943 -0.2199 0.2205, -0.2937 -0.2201 0.2165, -0.2937 -0.2201 0.2205, -0.2931 -0.2205 0.2165, -0.2931 -0.2205 0.2205, -0.2924 -0.2212 0.2165, -0.2924 -0.2212 0.2205, -0.2919 -0.2223 0.2165, -0.2919 -0.2223 0.2205, -0.2916 -0.2235 0.2165, -0.2916 -0.2235 0.2205, -0.2915 -0.2249 0.2165, -0.2915 -0.2249 0.2205, -0.2919 -0.2282 0.2165, -0.2919 -0.2282 0.2205, -0.2929 -0.2308 0.2165, -0.2929 -0.2308 0.2205, -0.2934 -0.2316 0.2165, -0.2934 -0.2316 0.2205, -0.2889 -0.2316 0.2205, -0.2889 -0.2316 0.2165, -0.288 -0.2286 0.2165, -0.288 -0.2286 0.2205, -0.2877 -0.2254 0.2165, -0.2877 -0.2254 0.2205, -0.2882 -0.2216 0.2165, -0.2882 -0.2216 0.2205, -0.2891 -0.2191 0.2165, -0.2891 -0.2191 0.2205, -0.2898 -0.218 0.2165, -0.2898 -0.218 0.2205, -0.2905 -0.2172 0.2165, -0.2909 -0.2167 0.2205, -0.2909 -0.2167 0.2165, -0.2922 -0.2158 0.2165, -0.2922 -0.2158 0.2205, -0.2937 -0.2153 0.2165, -0.2937 -0.2153 0.2205, -0.2954 -0.215 0.2165, -0.2954 -0.215 0.2205, -0.2971 -0.2152 0.2165, -0.2971 -0.2152 0.2205, -0.2986 -0.2157 0.2165, -0.2986 -0.2157 0.2205, -0.2996 -0.2164 0.2165, -0.2996 -0.2164 0.2205, -0.3031 -0.2221 0.2165, -0.3031 -0.2221 0.2205, -0.3019 -0.2193 0.2205, -0.3004 -0.2171 0.2165, -0.3004 -0.2171 0.2205, -0.3005 -0.2172 0.2165, -0.3019 -0.2193 0.2165, -0.3044 -0.2251 0.2165, -0.3044 -0.2251 0.2205, -0.3055 -0.2269 0.2165, -0.3055 -0.2269 0.2205, -0.3061 -0.2275 0.2165, -0.3061 -0.2275 0.2205, -0.3067 -0.2279 0.2165, -0.3067 -0.2279 0.2205, -0.3074 -0.2281 0.2165, -0.3074 -0.2281 0.2205, -0.308 -0.2281 0.2165, -0.308 -0.2281 0.2205, -0.3089 -0.228 0.2165, -0.3089 -0.228 0.2205, -0.3096 -0.2278 0.2165, -0.3096 -0.2278 0.2205, -0.3102 -0.2274 0.2165, -0.3102 -0.2274 0.2205, -0.3106 -0.2269 0.2165, -0.3106 -0.2269 0.2205, -0.3109 -0.2264 0.2165, -0.3109 -0.2264 0.2205, -0.3113 -0.2252 0.2165, -0.3113 -0.2252 0.2205, -0.3116 -0.2229 0.2165, -0.3116 -0.2229 0.2205, -0.2883 -0.2559 0.2205, -0.2883 -0.2607 0.2205, -0.2883 -0.2559 0.2165, -0.2883 -0.2607 0.2165, -0.3082 -0.2487 0.2205, -0.3082 -0.2487 0.2165, -0.3095 -0.2483 0.2165, -0.3095 -0.2483 0.2205, -0.3104 -0.2481 0.2165, -0.3104 -0.2481 0.2205, -0.3104 -0.248 0.2205, -0.3104 -0.248 0.2165, -0.3082 -0.2474 0.2205, -0.3082 -0.2474 0.2165, -0.2883 -0.2405 0.2205, -0.2947 -0.2427 0.2165, -0.2883 -0.2405 0.2165, -0.2883 -0.2353 0.2205, -0.2883 -0.2353 0.2165, -0.3147 -0.2457 0.2205, -0.3072 -0.2427 0.2165, -0.3147 -0.2457 0.2165, -0.3195 -0.2437 0.2165, -0.3195 -0.2437 0.2205, -0.3151 -0.2455 0.2165, -0.3211 -0.2427 0.2165, -0.3214 -0.2426 0.2205, -0.3214 -0.2426 0.2165, -0.3223 -0.2417 0.2165, -0.3223 -0.2417 0.2205, -0.3229 -0.2408 0.2165, -0.3229 -0.2408 0.2205, -0.3232 -0.2398 0.2165, -0.3232 -0.2398 0.2205, -0.3233 -0.2389 0.2165, -0.3233 -0.2389 0.2205, -0.3231 -0.2374 0.2165, -0.3231 -0.2374 0.2205, -0.3227 -0.2363 0.2165, -0.3227 -0.2363 0.2205, -0.3269 -0.2363 0.2165, -0.3269 -0.2363 0.2205, -0.3244 -0.2363 0.2165, -0.3271 -0.2376 0.2165, -0.3271 -0.2376 0.2205, -0.3272 -0.2393 0.2165, -0.3272 -0.2393 0.2205, -0.3188 -0.2487 0.2165, -0.3188 -0.2487 0.2205, -0.3229 -0.2466 0.2205, -0.327 -0.2412 0.2165, -0.327 -0.2412 0.2205, -0.3264 -0.2427 0.2165, -0.3263 -0.2431 0.2205, -0.3263 -0.2431 0.2165, -0.3251 -0.2447 0.2165, -0.3251 -0.2447 0.2205, -0.3244 -0.2453 0.2165, -0.3229 -0.2466 0.2165, -0.3151 -0.2502 0.2165, -0.3105 -0.2857 0.2205, -0.3148 -0.2857 0.2205, -0.3105 -0.2857 0.2165, -0.3148 -0.2857 0.2165, -0.3105 -0.2705 0.2205, -0.3105 -0.2775 0.2165, -0.3105 -0.2705 0.2165, -0.2981 -0.2705 0.2205, -0.2981 -0.2705 0.2165, -0.2981 -0.2838 0.2205, -0.2981 -0.2775 0.2165, -0.2981 -0.2838 0.2165, -0.2938 -0.2838 0.2205, -0.2938 -0.2838 0.2165, -0.2938 -0.2705 0.2165, -0.2938 -0.2705 0.2205, -0.2938 -0.2775 0.2165, -0.282 -0.2705 0.2205, -0.282 -0.2705 0.2165, -0.282 -0.2848 0.2165, -0.282 -0.2848 0.2205, -0.282 -0.2775 0.2165, -0.2777 -0.2848 0.2205, -0.2777 -0.2848 0.2165, -0.2777 -0.2657 0.2165, -0.2777 -0.2657 0.2205, -0.2777 -0.2775 0.2165, -0.3148 -0.2657 0.2205, -0.3148 -0.2657 0.2165, -0.3148 -0.2775 0.2165, -0.2982 -0.3177 0.2205, -0.2981 -0.3227 0.2205, -0.2959 -0.3178 0.2205, -0.2958 -0.3228 0.2205, -0.2916 -0.3174 0.2205, -0.2906 -0.3222 0.2205, -0.2888 -0.3164 0.2205, -0.287 -0.3208 0.2205, -0.2867 -0.315 0.2205, -0.2838 -0.3185 0.2205, -0.2855 -0.3138 0.2205, -0.2826 -0.3173 0.2205, -0.2837 -0.311 0.2205, -0.28 -0.3134 0.2205, -0.2825 -0.3078 0.2205, -0.2783 -0.3089 0.2205, -0.282 -0.3031 0.2205, -0.2777 -0.3032 0.2205, -0.282 -0.2975 0.2205, -0.2777 -0.2927 0.2205, -0.3105 -0.2975 0.2205, -0.3148 -0.2927 0.2205, -0.3105 -0.3028 0.2205, -0.3148 -0.3029 0.2205, -0.31 -0.3075 0.2205, -0.3141 -0.3089 0.2205, -0.3089 -0.3107 0.2205, -0.3125 -0.3132 0.2205, -0.3073 -0.3132 0.2205, -0.31 -0.3168 0.2205, -0.3067 -0.3139 0.2205, -0.3096 -0.3173 0.2205, -0.3044 -0.3157 0.2205, -0.3063 -0.32 0.2205, -0.3016 -0.317 0.2205, -0.3024 -0.3218 0.2205, -0.3148 -0.3029 0.2165, -0.3148 -0.2927 0.2165, -0.3141 -0.3089 0.2165, -0.3125 -0.3132 0.2165, -0.31 -0.3168 0.2165, -0.3096 -0.3173 0.2165, -0.3063 -0.32 0.2165, -0.3024 -0.3218 0.2165, -0.2981 -0.3227 0.2165, -0.2958 -0.3228 0.2165, -0.2906 -0.3222 0.2165, -0.287 -0.3208 0.2165, -0.2838 -0.3185 0.2165, -0.2826 -0.3173 0.2165, -0.28 -0.3134 0.2165, -0.2783 -0.3089 0.2165, -0.2777 -0.3032 0.2165, -0.2777 -0.2927 0.2165, -0.282 -0.3031 0.2165, -0.282 -0.2975 0.2165, -0.3105 -0.2975 0.2165, -0.3105 -0.3028 0.2165, -0.3067 -0.3139 0.2165, -0.3073 -0.3132 0.2165, -0.3089 -0.3107 0.2165, -0.31 -0.3075 0.2165, -0.2959 -0.3178 0.2165, -0.2982 -0.3177 0.2165, -0.3016 -0.317 0.2165, -0.3044 -0.3157 0.2165, -0.2855 -0.3138 0.2165, -0.2867 -0.315 0.2165, -0.2888 -0.3164 0.2165, -0.2916 -0.3174 0.2165, -0.2825 -0.3078 0.2165, -0.2837 -0.311 0.2165, -0.2837 -0.311 0.2165
            ]
        }
        coordIndex [
            0,1,2,-1,3,4,5,-1,3,5,6,-1,6,5,7,-1,6,7,2,-1,2,7,8,-1,2,8,0,-1,9,1,10,-1,10,1,0,-1,10,11,9,-1,9,11,12,-1,13,14,15,-1,15,14,12,-1,15,12,16,-1,16,12,11,-1,13,17,14,-1,14,17,18,-1,17,19,18,-1,18,19,20,-1,18,20,21,-1,21,20,22,-1,21,22,23,-1,23,22,24,-1,23,24,25,-1,25,24,26,-1,25,26,27,-1,27,26,28,-1,27,28,29,-1,29,28,30,-1,29,30,31,-1,31,30,32,-1,31,32,33,-1,33,32,34,-1,33,34,35,-1,35,34,36,-1,35,36,37,-1,37,36,38,-1,37,38,39,-1,39,38,40,-1,39,40,41,-1,41,40,42,-1,41,42,43,-1,43,42,44,-1,43,44,45,-1,45,44,46,-1,45,46,47,-1,47,46,48,-1,47,48,49,-1,49,48,50,-1,49,50,51,-1,51,50,52,-1,51,52,53,-1,53,52,54,-1,53,54,55,-1,55,54,56,-1,55,56,57,-1,57,56,58,-1,57,58,59,-1,59,58,60,-1,59,60,61,-1,61,60,62,-1,61,62,63,-1,63,62,64,-1,63,64,65,-1,65,64,66,-1,65,66,67,-1,67,66,68,-1,67,68,69,-1,69,68,70,-1,69,70,71,-1,71,70,72,-1,71,72,73,-1,73,72,74,-1,73,74,75,-1,75,74,76,-1,75,76,77,-1,77,76,78,-1,77,78,79,-1,80,79,81,-1,81,79,78,-1,80,81,82,-1,80,82,83,-1,83,82,84,-1,83,84,85,-1,85,84,86,-1,85,86,87,-1,87,86,88,-1,87,88,89,-1,89,88,90,-1,89,90,91,-1,90,92,91,-1,91,92,93,-1,92,94,93,-1,93,94,95,-1,93,95,96,-1,96,95,97,-1,96,97,98,-1,98,97,99,-1,98,99,100,-1,100,99,101,-1,100,101,102,-1,102,101,103,-1,102,103,104,-1,104,103,105,-1,104,105,106,-1,107,108,109,-1,106,105,110,-1,106,110,111,-1,111,110,112,-1,111,112,109,-1,109,112,113,-1,109,113,107,-1,108,107,114,-1,108,114,115,-1,115,114,116,-1,115,116,117,-1,117,116,118,-1,117,118,119,-1,119,118,120,-1,119,120,121,-1,121,120,122,-1,121,122,123,-1,123,122,124,-1,123,124,125,-1,125,124,126,-1,125,126,127,-1,127,126,128,-1,127,128,129,-1,129,128,130,-1,129,130,131,-1,131,130,132,-1,131,132,133,-1,133,132,134,-1,133,134,135,-1,135,134,136,-1,135,136,137,-1,137,136,138,-1,137,138,139,-1,139,138,4,-1,139,4,3,-1,65,67,89,-1,89,67,87,-1,121,39,119,-1,119,39,41,-1,119,41,117,-1,117,41,43,-1,117,43,115,-1,43,45,115,-1,115,45,47,-1,115,47,108,-1,108,47,49,-1,21,23,131,-1,131,23,25,-1,131,25,129,-1,129,25,27,-1,129,27,127,-1,127,27,29,-1,127,29,125,-1,14,3,12,-1,12,3,6,-1,12,6,9,-1,9,6,2,-1,9,2,1,-1,67,69,87,-1,87,69,71,-1,87,71,85,-1,85,71,73,-1,85,73,83,-1,83,73,75,-1,83,75,80,-1,80,75,77,-1,80,77,79,-1,29,31,125,-1,125,31,33,-1,125,33,123,-1,123,33,35,-1,123,35,121,-1,121,35,37,-1,121,37,39,-1,131,133,21,-1,21,133,135,-1,21,135,18,-1,18,135,137,-1,18,137,14,-1,14,137,139,-1,14,139,3,-1,89,91,65,-1,65,91,93,-1,65,93,63,-1,63,93,96,-1,63,96,61,-1,61,96,98,-1,61,98,59,-1,59,98,100,-1,59,100,57,-1,57,100,102,-1,57,102,55,-1,55,102,104,-1,55,104,53,-1,53,104,106,-1,53,106,51,-1,51,106,111,-1,51,111,49,-1,49,111,109,-1,49,109,108,-1,140,141,142,-1,142,141,143,-1,144,140,145,-1,145,140,142,-1,144,145,146,-1,144,146,147,-1,147,146,148,-1,147,148,149,-1,150,149,151,-1,151,149,148,-1,152,150,153,-1,153,150,151,-1,152,153,154,-1,154,153,155,-1,154,155,156,-1,157,154,158,-1,158,154,156,-1,157,158,159,-1,159,158,160,-1,159,160,161,-1,162,163,164,-1,164,163,159,-1,164,159,161,-1,162,165,163,-1,163,165,166,-1,165,167,166,-1,166,167,168,-1,166,168,169,-1,169,168,170,-1,169,170,171,-1,171,170,172,-1,171,172,173,-1,173,172,174,-1,173,174,175,-1,175,174,176,-1,175,176,177,-1,177,176,178,-1,177,178,179,-1,180,181,182,-1,182,181,179,-1,182,179,178,-1,181,180,183,-1,181,183,184,-1,184,183,185,-1,184,185,186,-1,187,188,189,-1,186,185,190,-1,186,190,191,-1,191,190,192,-1,191,192,193,-1,192,194,193,-1,193,194,195,-1,193,195,196,-1,196,195,197,-1,196,197,189,-1,189,197,198,-1,189,198,187,-1,143,141,199,-1,199,141,188,-1,199,188,187,-1,147,149,188,-1,141,140,188,-1,188,140,144,-1,188,144,147,-1,154,157,152,-1,152,157,159,-1,152,159,150,-1,149,150,188,-1,188,150,159,-1,188,159,189,-1,159,163,189,-1,189,163,166,-1,189,166,196,-1,196,166,169,-1,196,169,193,-1,193,169,171,-1,193,171,191,-1,191,171,173,-1,191,173,186,-1,186,173,175,-1,186,175,184,-1,184,175,177,-1,184,177,181,-1,181,177,179,-1,200,201,202,-1,202,201,203,-1,200,202,204,-1,204,202,205,-1,204,205,206,-1,207,204,208,-1,208,204,206,-1,207,208,209,-1,209,208,210,-1,209,210,211,-1,212,209,213,-1,213,209,211,-1,214,215,216,-1,216,215,212,-1,216,212,213,-1,217,215,218,-1,218,215,214,-1,219,220,221,-1,221,220,217,-1,221,217,218,-1,222,220,223,-1,223,220,219,-1,224,225,226,-1,226,225,222,-1,226,222,223,-1,227,225,228,-1,228,225,224,-1,227,228,201,-1,201,228,229,-1,201,229,203,-1,220,222,217,-1,217,222,225,-1,217,225,215,-1,201,200,227,-1,227,200,204,-1,227,204,207,-1,209,212,207,-1,207,212,215,-1,207,215,227,-1,227,215,225,-1,230,231,232,-1,232,231,233,-1,232,233,234,-1,234,233,235,-1,234,235,236,-1,236,235,237,-1,236,237,238,-1,238,237,239,-1,238,239,240,-1,240,239,241,-1,240,241,242,-1,242,241,243,-1,242,243,244,-1,244,243,245,-1,244,245,246,-1,246,245,247,-1,246,247,248,-1,248,247,249,-1,248,249,250,-1,250,249,251,-1,250,251,252,-1,252,251,253,-1,252,253,254,-1,254,253,255,-1,254,255,256,-1,256,255,257,-1,256,257,258,-1,258,257,259,-1,258,259,260,-1,260,259,261,-1,260,261,262,-1,262,261,263,-1,262,263,264,-1,264,263,265,-1,264,265,230,-1,230,265,231,-1,253,251,266,-1,266,251,267,-1,253,266,268,-1,253,268,255,-1,255,268,269,-1,255,269,257,-1,257,269,270,-1,257,270,259,-1,259,270,271,-1,259,271,261,-1,261,271,272,-1,261,272,263,-1,263,272,273,-1,263,273,265,-1,265,273,274,-1,265,274,231,-1,231,274,275,-1,231,275,233,-1,233,275,276,-1,233,276,235,-1,235,276,277,-1,235,277,237,-1,237,277,278,-1,237,278,239,-1,239,278,279,-1,239,279,241,-1,241,279,280,-1,241,280,243,-1,243,280,281,-1,243,281,245,-1,245,281,282,-1,245,282,247,-1,249,247,283,-1,283,247,282,-1,251,249,267,-1,267,249,283,-1,246,248,284,-1,284,248,285,-1,248,250,285,-1,285,250,286,-1,250,252,286,-1,286,252,287,-1,260,288,289,-1,260,289,258,-1,258,289,290,-1,258,290,256,-1,256,290,291,-1,256,291,254,-1,254,291,287,-1,254,287,252,-1,232,292,293,-1,232,293,230,-1,230,293,294,-1,230,294,264,-1,264,294,295,-1,264,295,262,-1,262,295,288,-1,262,288,260,-1,240,296,297,-1,240,297,238,-1,238,297,298,-1,238,298,236,-1,236,298,299,-1,236,299,234,-1,234,299,292,-1,234,292,232,-1,246,284,300,-1,246,300,244,-1,244,300,301,-1,244,301,242,-1,242,301,296,-1,242,296,240,-1,
        ]
    }
}
Shape{
    appearance Appearance {
        material  Material 	{
            diffuseColor 0.2235294117647059 0.2235294117647059 0.2235294117647059
            specularColor 0.11372549019607843 0.11372549019607843 0.11372549019607843
            ambientIntensity 0.2
            transparency 0
            shininess 0.5
        }
    }
    geometry IndexedFaceSet {
        ccw TRUE
        solid FALSE
        coord DEF co Coordinate {
            point [
                -0.282 -0.2975 0.2165, -0.3105 -0.2975 0.2165, -0.282 -0.3031 0.2165, -0.3105 -0.3028 0.2165, -0.31 -0.3075 0.2165, -0.3089 -0.3107 0.2165, -0.3073 -0.3132 0.2165, -0.3067 -0.3139 0.2165, -0.3044 -0.3157 0.2165, -0.3016 -0.317 0.2165, -0.2982 -0.3177 0.2165, -0.2959 -0.3178 0.2165, -0.2916 -0.3174 0.2165, -0.2888 -0.3164 0.2165, -0.2867 -0.315 0.2165, -0.2855 -0.3138 0.2165, -0.2825 -0.3078 0.2165, -0.2837 -0.311 0.2165, -0.2837 -0.311 0.2165
            ]
        }
        coordIndex [
            0,1,2,-1,2,1,3,-1,2,3,4,-1,4,5,2,-1,2,5,6,-1,2,6,7,-1,7,8,2,-1,2,8,9,-1,2,9,10,-1,10,11,2,-1,2,11,12,-1,2,12,13,-1,13,14,2,-1,2,14,15,-1,2,15,16,-1,16,15,17,-1,
        ]
    }
}
Shape{
    appearance Appearance {
        material  Material 	{
            diffuseColor 1.0 1.0 1.0
            specularColor 0.5019607843137255 0.5019607843137255 0.5019607843137255
            ambientIntensity 0.2
            transparency 0
            shininess 0.5
        }
    }
    geometry IndexedFaceSet {
        ccw TRUE
        solid FALSE
        coord DEF co Coordinate {
            point [
                -0.3004 -0.3353 0.2205, -0.285 -0.3408 0.2205, -0.2777 -0.339 0.2205, -0.3148 -0.3249 0.2205, -0.3148 -0.3302 0.2205, -0.3046 -0.3338 0.2205, -0.2839 -0.3411 0.2205, -0.2824 -0.3414 0.2205, -0.2777 -0.3441 0.2205, -0.2824 -0.3415 0.2205, -0.284 -0.3418 0.2205, -0.285 -0.3421 0.2205, -0.3004 -0.3477 0.2205, -0.3148 -0.3583 0.2205, -0.3148 -0.353 0.2205, -0.3046 -0.3492 0.2205, -0.2777 -0.3441 0.2165, -0.3148 -0.3583 0.2165, -0.2777 -0.339 0.2165, -0.3148 -0.3249 0.2165, -0.3148 -0.3302 0.2165, -0.3046 -0.3338 0.2165, -0.3046 -0.3492 0.2165, -0.3148 -0.353 0.2165, -0.3004 -0.3353 0.2165, -0.3004 -0.3477 0.2165, -0.285 -0.3421 0.2165, -0.2824 -0.3415 0.2165, -0.284 -0.3418 0.2165, -0.2824 -0.3414 0.2165, -0.285 -0.3408 0.2165, -0.2839 -0.3411 0.2165, -0.2839 -0.3411 0.2165
            ]
        }
        coordIndex [
            0,1,2,-1,3,4,5,-1,1,6,2,-1,2,6,7,-1,2,7,8,-1,8,7,9,-1,8,9,10,-1,10,11,8,-1,8,11,12,-1,8,12,13,-1,14,13,15,-1,15,13,12,-1,15,12,5,-1,5,12,0,-1,5,0,3,-1,3,0,2,-1,8,13,16,-1,16,13,17,-1,2,8,18,-1,18,8,16,-1,3,2,19,-1,19,2,18,-1,4,3,20,-1,20,3,19,-1,5,4,21,-1,21,4,20,-1,15,5,22,-1,22,5,21,-1,14,15,23,-1,23,15,22,-1,13,14,17,-1,17,14,23,-1,0,12,24,-1,24,12,25,-1,12,11,25,-1,25,11,26,-1,9,27,28,-1,9,28,10,-1,10,28,26,-1,10,26,11,-1,9,7,27,-1,27,7,29,-1,1,30,31,-1,1,31,6,-1,6,31,29,-1,6,29,7,-1,1,0,30,-1,30,0,24,-1,
        ]
    }
}
Shape{
    appearance Appearance {
        material  Material 	{
            diffuseColor 0.2235294117647059 0.2235294117647059 0.2235294117647059
            specularColor 0.11372549019607843 0.11372549019607843 0.11372549019607843
            ambientIntensity 0.2
            transparency 0
            shininess 0.5
        }
    }
    geometry IndexedFaceSet {
        ccw TRUE
        solid FALSE
        coord DEF co Coordinate {
            point [
                -0.2824 -0.3415 0.2165, -0.2824 -0.3414 0.2165, -0.284 -0.3418 0.2165, -0.2839 -0.3411 0.2165, -0.285 -0.3421 0.2165, -0.285 -0.3408 0.2165, -0.3004 -0.3477 0.2165, -0.3004 -0.3353 0.2165, -0.3004 -0.3353 0.2165
            ]
        }
        coordIndex [
            0,1,2,-1,2,1,3,-1,2,3,4,-1,4,3,5,-1,4,5,6,-1,6,5,7,-1,
        ]
    }
}
Shape{
    appearance Appearance {
        material  Material 	{
            diffuseColor 1.0 1.0 1.0
            specularColor 0.5019607843137255 0.5019607843137255 0.5019607843137255
            ambientIntensity 0.2
            transparency 0
            shininess 0.5
        }
    }
    geometry IndexedFaceSet {
        ccw TRUE
        solid FALSE
        coord DEF co Coordinate {
            point [
                -0.3197 0.0008 0.2205, -0.3246 -0.003 0.2205, -0.2967 0.003 0.2205, -0.2838 -0.085 0.2205, -0.2698 -0.0768 0.2205, -0.2883 -0.0415 0.2205, -0.2961 -0.0233 0.2205, -0.2969 -0.0258 0.2205, -0.2509 0.0076 0.2205, -0.2478 0.0017 0.2205, -0.2316 0.0032 0.2205, -0.2308 -0.0133 0.2205, -0.2501 -0.0215 0.2205, -0.2417 -0.0255 0.2205, -0.2303 -0.0073 0.2205, -0.2982 -0.0279 0.2205, -0.3 -0.0297 0.2205, -0.3033 -0.0481 0.2205, -0.3021 -0.0309 0.2205, -0.3045 -0.0316 0.2205, -0.3059 -0.0481 0.2205, -0.3071 -0.0317 0.2205, -0.2962 -0.019 0.2205, -0.28 -0.0159 0.2205, -0.2971 -0.0167 0.2205, -0.2821 -0.01 0.2205, -0.2986 -0.0146 0.2205, -0.2858 -0.0046 0.2205, -0.3 -0.0133 0.2205, -0.2907 -0.0002 0.2205, -0.3022 -0.012 0.2205, -0.3047 -0.0113 0.2205, -0.2812 -0.0316 0.2205, -0.2796 -0.0253 0.2205, -0.2793 -0.0218 0.2205, -0.2577 -0.0937 0.2205, -0.2577 -0.0958 0.2205, -0.2435 -0.1066 0.2205, -0.2583 -0.1008 0.2205, -0.2439 -0.1078 0.2205, -0.2601 -0.1054 0.2205, -0.2478 -0.1157 0.2205, -0.2538 -0.1229 0.2205, -0.2245 -0.0187 0.2205, -0.2346 -0.0315 0.2205, -0.2192 -0.0249 0.2205, -0.2295 -0.0385 0.2205, -0.2153 -0.0313 0.2205, -0.2936 0.0083 0.2205, -0.3134 0.0067 0.2205, -0.3144 0.0033 0.2205, -0.2463 -0.0048 0.2205, -0.2461 -0.0075 0.2205, -0.2305 -0.0103 0.2205, -0.2468 -0.0132 0.2205, -0.2488 -0.0191 0.2205, -0.3138 -0.0146 0.2205, -0.3153 -0.0167 0.2205, -0.3286 -0.0081 0.2205, -0.3162 -0.0191 0.2205, -0.2629 -0.1095 0.2205, -0.2664 -0.1126 0.2205, -0.2613 -0.1283 0.2205, -0.271 -0.115 0.2205, -0.2693 -0.1315 0.2205, -0.278 -0.1327 0.2205, -0.276 -0.1162 0.2205, -0.2783 -0.1164 0.2205, -0.2874 -0.1315 0.2205, -0.2834 -0.1157 0.2205, -0.2957 -0.1282 0.2205, -0.2881 -0.1139 0.2205, -0.303 -0.123 0.2205, -0.2354 0.0129 0.2205, -0.2413 0.0213 0.2205, -0.2553 0.0125 0.2205, -0.2429 0.0231 0.2205, -0.2607 0.016 0.2205, -0.2511 0.0294 0.2205, -0.2666 0.0182 0.2205, -0.2959 -0.0215 0.2205, -0.2843 -0.0372 0.2205, -0.2922 -0.111 0.2205, -0.2926 -0.1106 0.2205, -0.3091 -0.1158 0.2205, -0.2958 -0.1067 0.2205, -0.313 -0.1078 0.2205, -0.2979 -0.1021 0.2205, -0.3149 -0.099 0.2205, -0.2988 -0.0974 0.2205, -0.3149 -0.0834 0.2205, -0.2988 -0.0855 0.2205, -0.3147 -0.0821 0.2205, -0.2227 -0.0924 0.2205, -0.2347 -0.082 0.2205, -0.2327 -0.1011 0.2205, -0.2417 -0.0879 0.2205, -0.2502 -0.092 0.2205, -0.3119 -0.0129 0.2205, -0.3097 -0.0118 0.2205, -0.3073 -0.0113 0.2205, -0.2106 -0.0435 0.2205, -0.226 -0.0471 0.2205, -0.209 -0.0565 0.2205, -0.2248 -0.0568 0.2205, -0.2101 -0.0674 0.2205, -0.2259 -0.0658 0.2205, -0.2148 -0.0806 0.2205, -0.2291 -0.0741 0.2205, -0.2342 -0.0815 0.2205, -0.3312 -0.0141 0.2205, -0.3323 -0.0203 0.2205, -0.3165 -0.0215 0.2205, -0.3323 -0.0218 0.2205, -0.3162 -0.024 0.2205, -0.3316 -0.0277 0.2205, -0.3153 -0.0263 0.2205, -0.3295 -0.0336 0.2205, -0.3139 -0.0283 0.2205, -0.3259 -0.0389 0.2205, -0.312 -0.03 0.2205, -0.3211 -0.0433 0.2205, -0.3096 -0.0312 0.2205, -0.3152 -0.0464 0.2205, -0.3087 -0.048 0.2205, -0.2606 0.0336 0.2205, -0.2705 0.0354 0.2205, -0.2725 0.0188 0.2205, -0.273 0.0354 0.2205, -0.2767 0.0185 0.2205, -0.2834 0.0342 0.2205, -0.2832 0.0165 0.2205, -0.2932 0.0304 0.2205, -0.2888 0.0131 0.2205, -0.3017 0.0244 0.2205, -0.3087 0.0162 0.2205, -0.2986 -0.0842 0.2205, -0.3121 -0.0778 0.2205, -0.3129 -0.0786 0.2205, -0.3067 -0.0758 0.2205, -0.3086 -0.076 0.2205, -0.3104 -0.0767 0.2205, -0.2988 -0.085 0.2205, -0.314 -0.0803 0.2205, -0.2988 -0.082 0.2205, -0.2995 -0.0802 0.2205, -0.3059 -0.0758 0.2205, -0.3006 -0.0785 0.2205, -0.3021 -0.0773 0.2205, -0.3039 -0.0763 0.2205, -0.2986 -0.084 0.2205, -0.2563 -0.1246 0.2165, -0.2613 -0.1283 0.2165, -0.2671 -0.1306 0.2165, -0.2693 -0.1315 0.2165, -0.278 -0.1327 0.2165, -0.2538 -0.1229 0.2165, -0.2478 -0.1157 0.2165, -0.2439 -0.1078 0.2165, -0.2435 -0.1066 0.2165, -0.2327 -0.1011 0.2165, -0.2227 -0.0924 0.2165, -0.2148 -0.0806 0.2165, -0.2101 -0.0674 0.2165, -0.209 -0.0565 0.2165, -0.2106 -0.0435 0.2165, -0.2153 -0.0313 0.2165, -0.2192 -0.0249 0.2165, -0.2245 -0.0187 0.2165, -0.2308 -0.0133 0.2165, -0.2305 -0.0103 0.2165, -0.2303 -0.0073 0.2165, -0.2316 0.0032 0.2165, -0.2354 0.0129 0.2165, -0.2413 0.0213 0.2165, -0.2429 0.0231 0.2165, -0.2511 0.0294 0.2165, -0.2563 0.0317 0.2165, -0.2606 0.0336 0.2165, -0.2671 0.0348 0.2165, -0.2705 0.0354 0.2165, -0.273 0.0354 0.2165, -0.2834 0.0342 0.2165, -0.2932 0.0304 0.2165, -0.3017 0.0244 0.2165, -0.3087 0.0162 0.2165, -0.3134 0.0067 0.2165, -0.3144 0.0033 0.2165, -0.3151 0.003 0.2165, -0.3197 0.0008 0.2165, -0.3244 -0.0029 0.2165, -0.3246 -0.003 0.2165, -0.3286 -0.0081 0.2165, -0.3312 -0.0141 0.2165, -0.3323 -0.0203 0.2165, -0.3323 -0.0218 0.2165, -0.3059 -0.0481 0.2165, -0.3316 -0.0277 0.2165, -0.3295 -0.0336 0.2165, -0.3259 -0.0389 0.2165, -0.3244 -0.0403 0.2165, -0.3211 -0.0433 0.2165, -0.3152 -0.0464 0.2165, -0.3151 -0.0464 0.2165, -0.3087 -0.048 0.2165, -0.3033 -0.0481 0.2165, -0.2838 -0.085 0.2165, -0.2698 -0.0768 0.2165, -0.2883 -0.0415 0.2165, -0.2843 -0.0372 0.2165, -0.2812 -0.0316 0.2165, -0.2796 -0.0253 0.2165, -0.2793 -0.0218 0.2165, -0.28 -0.0159 0.2165, -0.2821 -0.01 0.2165, -0.2858 -0.0046 0.2165, -0.2907 -0.0002 0.2165, -0.2967 0.003 0.2165, -0.2936 0.0083 0.2165, -0.2888 0.0131 0.2165, -0.2832 0.0165 0.2165, -0.2767 0.0185 0.2165, -0.2725 0.0188 0.2165, -0.2671 0.0182 0.2165, -0.2666 0.0182 0.2165, -0.2607 0.016 0.2165, -0.2563 0.0131 0.2165, -0.2553 0.0125 0.2165, -0.2509 0.0076 0.2165, -0.2478 0.0017 0.2165, -0.2463 -0.0048 0.2165, -0.2461 -0.0075 0.2165, -0.2468 -0.0132 0.2165, -0.2488 -0.0191 0.2165, -0.2501 -0.0215 0.2165, -0.2417 -0.0255 0.2165, -0.2346 -0.0315 0.2165, -0.2295 -0.0385 0.2165, -0.226 -0.0471 0.2165, -0.2248 -0.0568 0.2165, -0.2577 -0.0937 0.2165, -0.2563 -0.0934 0.2165, -0.2502 -0.092 0.2165, -0.2417 -0.0879 0.2165, -0.2347 -0.082 0.2165, -0.2342 -0.0815 0.2165, -0.2291 -0.0741 0.2165, -0.2259 -0.0658 0.2165, -0.2577 -0.0958 0.2165, -0.2583 -0.1008 0.2165, -0.2601 -0.1054 0.2165, -0.2629 -0.1095 0.2165, -0.2664 -0.1126 0.2165, -0.2671 -0.113 0.2165, -0.271 -0.115 0.2165, -0.276 -0.1162 0.2165, -0.2783 -0.1164 0.2165, -0.2834 -0.1157 0.2165, -0.2881 -0.1139 0.2165, -0.2922 -0.111 0.2165, -0.2926 -0.1106 0.2165, -0.2958 -0.1067 0.2165, -0.2979 -0.1021 0.2165, -0.2988 -0.0974 0.2165, -0.2988 -0.0855 0.2165, -0.2988 -0.085 0.2165, -0.2986 -0.0842 0.2165, -0.2986 -0.084 0.2165, -0.2988 -0.082 0.2165, -0.2995 -0.0802 0.2165, -0.3006 -0.0785 0.2165, -0.3021 -0.0773 0.2165, -0.3039 -0.0763 0.2165, -0.3059 -0.0758 0.2165, -0.3067 -0.0758 0.2165, -0.3086 -0.076 0.2165, -0.3104 -0.0767 0.2165, -0.3121 -0.0778 0.2165, -0.3129 -0.0786 0.2165, -0.314 -0.0803 0.2165, -0.3147 -0.0821 0.2165, -0.3149 -0.0834 0.2165, -0.3149 -0.099 0.2165, -0.313 -0.1078 0.2165, -0.3091 -0.1158 0.2165, -0.303 -0.123 0.2165, -0.2957 -0.1282 0.2165, -0.2874 -0.1315 0.2165, -0.2959 -0.0215 0.2165, -0.2961 -0.0233 0.2165, -0.2969 -0.0258 0.2165, -0.2982 -0.0279 0.2165, -0.3 -0.0297 0.2165, -0.3021 -0.0309 0.2165, -0.3045 -0.0316 0.2165, -0.3071 -0.0317 0.2165, -0.3096 -0.0312 0.2165, -0.312 -0.03 0.2165, -0.3139 -0.0283 0.2165, -0.3153 -0.0263 0.2165, -0.3162 -0.024 0.2165, -0.3165 -0.0215 0.2165, -0.3162 -0.0191 0.2165, -0.3153 -0.0167 0.2165, -0.3138 -0.0146 0.2165, -0.3119 -0.0129 0.2165, -0.3097 -0.0118 0.2165, -0.3073 -0.0113 0.2165, -0.3047 -0.0113 0.2165, -0.3022 -0.012 0.2165, -0.3 -0.0133 0.2165, -0.2986 -0.0146 0.2165, -0.2971 -0.0167 0.2165, -0.2962 -0.019 0.2165, -0.2962 -0.019 0.2165
            ]
        }
        coordIndex [
            0,1,2,-1,3,4,5,-1,6,7,3,-1,8,9,10,-1,11,12,13,-1,10,9,14,-1,7,15,3,-1,3,15,16,-1,3,16,17,-1,16,18,17,-1,17,18,19,-1,17,19,20,-1,20,19,21,-1,22,23,24,-1,24,23,25,-1,24,25,26,-1,26,25,27,-1,26,27,28,-1,28,27,29,-1,28,29,30,-1,30,29,2,-1,30,2,31,-1,32,33,22,-1,22,33,34,-1,22,34,23,-1,35,36,37,-1,37,36,38,-1,37,38,39,-1,39,38,40,-1,39,40,41,-1,41,40,42,-1,11,13,43,-1,43,13,44,-1,43,44,45,-1,45,44,46,-1,45,46,47,-1,48,49,2,-1,2,49,50,-1,2,50,0,-1,9,51,14,-1,14,51,52,-1,14,52,53,-1,53,52,54,-1,53,54,11,-1,11,54,55,-1,11,55,12,-1,56,1,57,-1,57,1,58,-1,57,58,59,-1,40,60,42,-1,42,60,61,-1,42,61,62,-1,62,61,63,-1,62,63,64,-1,64,63,65,-1,63,66,65,-1,65,66,67,-1,65,67,68,-1,68,67,69,-1,68,69,70,-1,70,69,71,-1,70,71,72,-1,10,73,8,-1,8,73,74,-1,8,74,75,-1,75,74,76,-1,75,76,77,-1,77,76,78,-1,77,78,79,-1,6,3,80,-1,80,3,5,-1,80,5,22,-1,22,5,81,-1,22,81,32,-1,71,82,72,-1,72,82,83,-1,72,83,84,-1,84,83,85,-1,84,85,86,-1,86,85,87,-1,86,87,88,-1,88,87,89,-1,88,89,90,-1,90,89,91,-1,90,91,92,-1,93,94,95,-1,95,94,96,-1,95,96,37,-1,37,96,97,-1,37,97,35,-1,56,98,1,-1,1,98,99,-1,1,99,2,-1,2,99,100,-1,2,100,31,-1,47,46,101,-1,101,46,102,-1,101,102,103,-1,103,102,104,-1,103,104,105,-1,105,104,106,-1,105,106,107,-1,107,106,108,-1,107,108,93,-1,93,108,109,-1,93,109,94,-1,58,110,59,-1,59,110,111,-1,59,111,112,-1,112,111,113,-1,112,113,114,-1,114,113,115,-1,114,115,116,-1,116,115,117,-1,116,117,118,-1,118,117,119,-1,118,119,120,-1,120,119,121,-1,120,121,122,-1,122,121,123,-1,122,123,21,-1,21,123,124,-1,21,124,20,-1,78,125,79,-1,79,125,126,-1,79,126,127,-1,127,126,128,-1,127,128,129,-1,129,128,130,-1,129,130,131,-1,131,130,132,-1,131,132,133,-1,133,132,134,-1,133,134,48,-1,48,134,135,-1,48,135,49,-1,136,137,138,-1,139,140,136,-1,136,140,141,-1,136,141,137,-1,91,142,92,-1,92,142,136,-1,92,136,143,-1,143,136,138,-1,144,145,146,-1,145,147,146,-1,146,147,148,-1,146,148,149,-1,139,136,146,-1,146,136,150,-1,146,150,144,-1,151,42,152,-1,152,42,62,-1,152,62,153,-1,153,62,64,-1,153,64,154,-1,154,64,65,-1,154,65,155,-1,151,156,42,-1,42,156,157,-1,42,157,41,-1,41,157,158,-1,41,158,39,-1,39,158,159,-1,39,159,37,-1,37,159,160,-1,37,160,95,-1,95,160,161,-1,95,161,93,-1,93,161,162,-1,93,162,107,-1,107,162,163,-1,107,163,105,-1,105,163,164,-1,105,164,103,-1,103,164,165,-1,103,165,101,-1,101,165,166,-1,101,166,47,-1,47,166,167,-1,47,167,45,-1,45,167,168,-1,45,168,43,-1,43,168,169,-1,43,169,11,-1,11,169,170,-1,11,170,53,-1,53,170,171,-1,53,171,14,-1,14,171,172,-1,14,172,10,-1,10,172,173,-1,10,173,73,-1,73,173,174,-1,73,174,74,-1,74,174,175,-1,74,175,76,-1,125,78,176,-1,176,78,76,-1,176,76,175,-1,176,177,125,-1,125,177,178,-1,125,178,126,-1,126,178,179,-1,179,180,126,-1,126,180,181,-1,126,181,128,-1,128,181,182,-1,128,182,130,-1,130,182,183,-1,130,183,132,-1,132,183,184,-1,132,184,134,-1,134,184,185,-1,134,185,135,-1,135,185,186,-1,135,186,49,-1,49,186,187,-1,49,187,50,-1,50,187,188,-1,50,188,0,-1,188,189,0,-1,0,189,190,-1,0,190,1,-1,190,191,1,-1,1,191,192,-1,1,192,58,-1,58,192,193,-1,58,193,110,-1,110,193,194,-1,110,194,111,-1,111,194,195,-1,111,195,113,-1,196,20,124,-1,113,195,197,-1,113,197,115,-1,115,197,198,-1,115,198,117,-1,117,198,199,-1,117,199,119,-1,119,199,200,-1,119,200,121,-1,200,201,121,-1,121,201,202,-1,121,202,123,-1,123,202,203,-1,123,203,124,-1,124,203,204,-1,124,204,196,-1,17,20,205,-1,205,20,196,-1,3,17,206,-1,206,17,205,-1,4,3,207,-1,207,3,206,-1,5,4,208,-1,208,4,207,-1,5,208,209,-1,5,209,81,-1,81,209,210,-1,81,210,32,-1,32,210,211,-1,32,211,33,-1,33,211,212,-1,33,212,34,-1,34,212,213,-1,34,213,23,-1,23,213,214,-1,23,214,25,-1,25,214,215,-1,25,215,27,-1,27,215,216,-1,27,216,29,-1,29,216,217,-1,29,217,2,-1,2,217,218,-1,2,218,48,-1,48,218,219,-1,48,219,133,-1,133,219,220,-1,133,220,131,-1,131,220,221,-1,131,221,129,-1,129,221,222,-1,129,222,127,-1,222,223,127,-1,127,223,79,-1,223,224,79,-1,79,224,225,-1,79,225,77,-1,77,225,226,-1,77,226,75,-1,226,227,75,-1,75,227,228,-1,75,228,8,-1,8,228,229,-1,8,229,9,-1,9,229,230,-1,9,230,51,-1,51,230,231,-1,51,231,52,-1,52,231,232,-1,52,232,54,-1,54,232,233,-1,54,233,55,-1,55,233,234,-1,55,234,12,-1,12,234,235,-1,12,235,13,-1,13,235,236,-1,13,236,44,-1,44,236,237,-1,44,237,46,-1,46,237,238,-1,46,238,102,-1,102,238,239,-1,102,239,104,-1,240,35,241,-1,241,35,97,-1,241,97,242,-1,242,97,96,-1,242,96,243,-1,243,96,94,-1,243,94,244,-1,244,94,109,-1,244,109,245,-1,245,109,108,-1,245,108,246,-1,246,108,106,-1,246,106,247,-1,247,106,104,-1,247,104,239,-1,36,35,248,-1,248,35,240,-1,36,248,249,-1,36,249,38,-1,38,249,250,-1,38,250,40,-1,40,250,251,-1,40,251,60,-1,60,251,252,-1,60,252,61,-1,61,252,253,-1,61,253,63,-1,253,254,63,-1,63,254,255,-1,63,255,66,-1,66,255,256,-1,66,256,67,-1,67,256,257,-1,67,257,69,-1,69,257,258,-1,69,258,71,-1,71,258,259,-1,71,259,82,-1,82,259,260,-1,82,260,83,-1,83,260,261,-1,83,261,85,-1,85,261,262,-1,85,262,87,-1,87,262,263,-1,87,263,89,-1,91,89,264,-1,264,89,263,-1,91,264,265,-1,91,265,142,-1,142,265,266,-1,142,266,136,-1,136,266,267,-1,136,267,150,-1,150,267,268,-1,150,268,144,-1,144,268,269,-1,144,269,145,-1,145,269,270,-1,145,270,147,-1,147,270,271,-1,147,271,148,-1,148,271,272,-1,148,272,149,-1,149,272,273,-1,149,273,146,-1,146,273,274,-1,146,274,139,-1,139,274,275,-1,139,275,140,-1,140,275,276,-1,140,276,141,-1,141,276,277,-1,141,277,137,-1,137,277,278,-1,137,278,138,-1,138,278,279,-1,138,279,143,-1,143,279,280,-1,143,280,92,-1,92,280,281,-1,92,281,90,-1,88,90,282,-1,282,90,281,-1,88,282,283,-1,88,283,86,-1,86,283,284,-1,86,284,84,-1,84,284,285,-1,84,285,72,-1,72,285,286,-1,72,286,70,-1,70,286,287,-1,70,287,68,-1,68,287,155,-1,68,155,65,-1,80,288,289,-1,80,289,6,-1,6,289,290,-1,6,290,7,-1,7,290,291,-1,7,291,15,-1,15,291,292,-1,15,292,16,-1,16,292,293,-1,16,293,18,-1,18,293,294,-1,18,294,19,-1,19,294,295,-1,19,295,21,-1,21,295,296,-1,21,296,122,-1,122,296,297,-1,122,297,120,-1,120,297,298,-1,120,298,118,-1,118,298,299,-1,118,299,116,-1,116,299,300,-1,116,300,114,-1,114,300,301,-1,114,301,112,-1,112,301,302,-1,112,302,59,-1,59,302,303,-1,59,303,57,-1,57,303,304,-1,57,304,56,-1,56,304,305,-1,56,305,98,-1,98,305,306,-1,98,306,99,-1,99,306,307,-1,99,307,100,-1,100,307,308,-1,100,308,31,-1,31,308,309,-1,31,309,30,-1,30,309,310,-1,30,310,28,-1,28,310,311,-1,28,311,26,-1,26,311,312,-1,26,312,24,-1,24,312,313,-1,24,313,22,-1,22,313,288,-1,22,288,80,-1,
        ]
    }
}
Shape{
    appearance Appearance {
        material  Material 	{
            diffuseColor 0.2235294117647059 0.2235294117647059 0.2235294117647059
            specularColor 0.11372549019607843 0.11372549019607843 0.11372549019607843
            ambientIntensity 0.2
            transparency 0
            shininess 0.5
        }
    }
    geometry IndexedFaceSet {
        ccw TRUE
        solid FALSE
        coord DEF co Coordinate {
            point [
                -0.3165 -0.0215 0.2165, -0.2986 -0.0146 0.2165, -0.3 -0.0133 0.2165, -0.2959 -0.0215 0.2165, -0.2961 -0.0233 0.2165, -0.3162 -0.024 0.2165, -0.2962 -0.019 0.2165, -0.2971 -0.0167 0.2165, -0.3139 -0.0283 0.2165, -0.3 -0.0297 0.2165, -0.2982 -0.0279 0.2165, -0.3097 -0.0118 0.2165, -0.3119 -0.0129 0.2165, -0.3138 -0.0146 0.2165, -0.3153 -0.0263 0.2165, -0.2969 -0.0258 0.2165, -0.3022 -0.012 0.2165, -0.3047 -0.0113 0.2165, -0.3073 -0.0113 0.2165, -0.3153 -0.0167 0.2165, -0.3162 -0.0191 0.2165, -0.3096 -0.0312 0.2165, -0.3071 -0.0317 0.2165, -0.312 -0.03 0.2165, -0.3045 -0.0316 0.2165, -0.3021 -0.0309 0.2165, -0.3021 -0.0309 0.2165
            ]
        }
        coordIndex [
            0,1,2,-1,3,0,4,-1,4,0,5,-1,3,6,0,-1,0,6,7,-1,0,7,1,-1,8,9,10,-1,11,12,2,-1,2,12,13,-1,5,14,4,-1,4,14,8,-1,4,8,15,-1,15,8,10,-1,16,17,2,-1,2,17,18,-1,2,18,11,-1,13,19,2,-1,2,19,20,-1,2,20,0,-1,21,22,23,-1,23,22,24,-1,23,24,8,-1,8,24,25,-1,8,25,9,-1,
        ]
    }
}