#VRML V2.0 utf8
# 3D model generated by easyeda2kicad.py (https://github.com/uPesy/easyeda2kicad.py)

Shape{
    appearance Appearance {
        material  Material 	{
            diffuseColor 0.5019607843137255 0.5019607843137255 0.5019607843137255
            specularColor 0.25098039215686274 0.25098039215686274 0.25098039215686274
            ambientIntensity 0.2
            transparency 0
            shininess 0.5
        }
    }
    geometry IndexedFaceSet {
        ccw TRUE
        solid FALSE
        coord DEF co Coordinate {
            point [
                -0.3543 -0.1181 0.0, -0.3543 -0.0198 0.0, -0.0118 -0.0198 0.0, -0.7349 -0.6905 0.0, -0.748 -0.689 0.0, -0.748 -0.6181 0.0, -0.057 -0.7327 0.0, -0.0591 -0.748 0.0, -0.3543 -0.6181 0.0, -0.748 -0.3819 0.0, -0.748 -0.1181 0.0, -0.3543 -0.3819 0.0, -0.689 -0.748 0.0, -0.6905 -0.7349 0.0, -0.6948 -0.7224 0.0, -0.7019 -0.7112 0.0, -0.7112 -0.7019 0.0, -0.7224 -0.6948 0.0, -0.0295 -0.6969 0.0, -0.0418 -0.7063 0.0, -0.0511 -0.7185 0.0, 0.029 -0.0198 0.0, 0.0306 -0.02 0.0, -0.0118 -0.6905 0.0, 0.748 -0.1181 0.0, 0.748 -0.3819 0.0, 0.3543 -0.1181 0.0, 0.3543 -0.3819 0.0, 0.3543 -0.6181 0.0, 0.7185 -0.6969 0.0, 0.7063 -0.7063 0.0, 0.0317 -0.02 0.0, 0.3543 -0.0198 0.0, 0.7327 -0.691 0.0, 0.748 -0.6181 0.0, 0.748 -0.689 0.0, 0.689 -0.748 0.0, 0.0591 -0.748 0.0, 0.691 -0.7327 0.0, 0.6969 -0.7185 0.0, 0.0153 -0.691 0.0, 0.0 -0.689 0.0, 0.057 -0.7327 0.0, 0.0511 -0.7185 0.0, 0.0418 -0.7063 0.0, 0.0295 -0.6969 0.0, 0.057 0.7327 0.0, 0.0591 0.748 0.0, 0.689 0.748 0.0, -0.0118 0.3819 0.0, -0.008 -0.0152 0.0, -0.008 -0.0196 0.0, 0.0131 -0.0196 0.0, 0.3543 0.3819 0.0, 0.748 0.3819 0.0, 0.748 0.1181 0.0, -0.007 0.0155 0.0, 0.0079 0.0155 0.0, 0.0079 0.0025 0.0, 0.0208 -0.0175 0.0, 0.0208 -0.0132 0.0, 0.0131 0.0198 0.0, 0.025 -0.0193 0.0, -0.0153 -0.691 0.0, 0.0511 0.7185 0.0, 0.0079 -0.0018 0.0, 0.0079 -0.0152 0.0, -0.0061 -0.0018 0.0, -0.0061 0.0025 0.0, -0.0153 0.691 0.0, -0.0118 0.6905 0.0, -0.0118 0.6181 0.0, 0.0 0.689 0.0, 0.0394 0.6181 0.0, 0.0736 -0.0196 0.0, 0.034 -0.0198 0.0, 0.0535 -0.0196 0.0, 0.0365 -0.0195 0.0, 0.0403 -0.0182 0.0, 0.0394 0.3819 0.0, 0.3543 0.1181 0.0, -0.007 0.0198 0.0, 0.691 0.7327 0.0, 0.3543 0.6181 0.0, 0.6969 0.7185 0.0, 0.0153 0.691 0.0, 0.0295 0.6969 0.0, 0.0418 0.7063 0.0, 0.0339 0.0155 0.0, 0.0369 0.0145 0.0, 0.0215 -0.0136 0.0, 0.0396 0.0126 0.0, 0.042 0.01 0.0, 0.0448 -0.0003 0.0, 0.0444 -0.0046 0.0, 0.0434 -0.008 0.0, 0.0346 -0.0153 0.0, 0.0309 -0.0157 0.0, 0.0375 -0.0143 0.0, 0.0399 -0.0126 0.0, 0.0417 -0.0107 0.0, 0.0257 -0.0151 0.0, 0.0684 0.0198 0.0, 0.0736 0.0198 0.0, 0.0436 0.007 0.0, 0.0446 0.0028 0.0, 0.7063 0.7063 0.0, 0.7185 0.6969 0.0, 0.748 0.6181 0.0, 0.7327 0.691 0.0, 0.748 0.689 0.0, 0.0422 0.0165 0.0, 0.0457 0.0131 0.0, 0.048 0.0094 0.0, 0.0435 -0.0162 0.0, 0.0465 -0.0131 0.0, 0.0535 -0.0152 0.0, 0.0485 -0.0094 0.0, 0.0684 -0.0152 0.0, 0.0497 -0.0052 0.0, 0.0501 -0.0006 0.0, 0.0495 0.005 0.0, 0.0384 0.0187 0.0, 0.034 0.02 0.0, 0.0301 0.0203 0.0, 0.0254 0.02 0.0, 0.0208 0.0187 0.0, 0.0208 0.0134 0.0, 0.0253 0.0153 0.0, 0.03 0.016 0.0, -0.748 0.6181 0.0, -0.748 0.689 0.0, -0.7327 0.691 0.0, -0.057 0.7327 0.0, -0.0511 0.7185 0.0, -0.7063 0.7063 0.0, -0.0418 0.7063 0.0, -0.7185 0.6969 0.0, -0.0295 0.6969 0.0, -0.689 0.748 0.0, -0.0591 0.748 0.0, -0.691 0.7327 0.0, -0.6969 0.7185 0.0, -0.748 0.1181 0.0, -0.748 0.3819 0.0, -0.3543 0.1181 0.0, -0.0502 -0.0196 0.0, -0.0454 -0.0088 0.0, -0.0431 -0.0123 0.0, -0.0399 -0.0154 0.0, -0.0358 -0.0178 0.0, -0.0312 -0.0191 0.0, -0.08 -0.0196 0.0, -0.0858 -0.0196 0.0, -0.0704 0.0198 0.0, -0.0651 0.0198 0.0, -0.0264 -0.0196 0.0, -0.0157 -0.0196 0.0, -0.0157 0.0198 0.0, -0.0268 0.0198 0.0, -0.0414 0.0147 0.0, -0.0442 0.0116 0.0, -0.046 0.0082 0.0, -0.056 -0.0196 0.0, -0.0598 -0.0085 0.0, -0.076 -0.0085 0.0, -0.0325 0.0192 0.0, -0.0371 0.0176 0.0, -0.0414 0.0147 0.0, -0.0471 0.0043 0.0, -0.0474 0.0006 0.0, -0.0468 -0.0047 0.0, -0.748 -0.6181 0.3543, -0.748 -0.689 0.4921, -0.748 -0.5591 0.3543, -0.748 -0.5591 0.4921, -0.748 -0.4409 0.4921, -0.748 -0.4409 0.3543, -0.7339 -0.4427 0.4921, -0.7339 -0.4427 0.3543, -0.7206 -0.4477 0.4921, -0.7206 -0.4477 0.3543, -0.7089 -0.4558 0.4921, -0.7089 -0.4558 0.3543, -0.7087 -0.456 0.4921, -0.6994 -0.4665 0.4927, -0.6994 -0.4665 0.3543, -0.6928 -0.4791 0.3543, -0.6928 -0.4791 0.4937, -0.6911 -0.4858 0.4941, -0.6894 -0.4929 0.3543, -0.6894 -0.4929 0.4945, -0.6894 -0.5071 0.4945, -0.6894 -0.5071 0.3543, -0.6911 -0.5142 0.4941, -0.6928 -0.5209 0.3543, -0.6928 -0.5209 0.4937, -0.6994 -0.5335 0.3543, -0.6994 -0.5335 0.4927, -0.7339 -0.5573 0.3543, -0.7339 -0.5573 0.4921, -0.7206 -0.5523 0.3543, -0.7206 -0.5523 0.4921, -0.7089 -0.5442 0.3543, -0.7089 -0.5442 0.4921, -0.7087 -0.544 0.4921, -0.748 -0.0591 0.4921, -0.748 -0.0591 0.3543, -0.748 -0.1181 0.3543, -0.748 -0.3819 0.3543, -0.748 0.0591 0.4921, -0.748 0.0591 0.3543, -0.7327 0.057 0.4921, -0.7327 0.057 0.3543, -0.7185 0.0511 0.4921, -0.7185 0.0511 0.3543, -0.7087 0.044 0.4921, -0.7063 0.0418 0.3543, -0.7063 0.0418 0.4922, -0.7012 0.036 0.4925, -0.6969 0.0295 0.3543, -0.6969 0.0295 0.493, -0.6911 0.0158 0.4941, -0.691 0.0153 0.3543, -0.691 0.0153 0.4941, -0.6895 0.0077 0.4945, -0.689 -0.0 0.3543, -0.689 -0.0 0.4946, -0.6895 -0.0077 0.4945, -0.691 -0.0153 0.3543, -0.691 -0.0153 0.4941, -0.6911 -0.0158 0.4941, -0.6969 -0.0295 0.3543, -0.6969 -0.0295 0.493, -0.7063 -0.0418 0.3543, -0.7064 -0.0416 0.4922, -0.7012 -0.0359 0.4925, -0.7327 -0.057 0.3543, -0.7327 -0.057 0.4921, -0.7185 -0.0511 0.3543, -0.7185 -0.0511 0.4921, -0.7087 -0.044 0.4921, -0.748 0.1181 0.3543, -0.748 0.4409 0.4921, -0.748 0.4409 0.3543, -0.748 0.3819 0.3543, -0.748 0.5591 0.4921, -0.748 0.5591 0.3543, -0.7327 0.557 0.4921, -0.7327 0.557 0.3543, -0.7185 0.5511 0.4921, -0.7185 0.5511 0.3543, -0.7087 0.544 0.4921, -0.7063 0.5418 0.3543, -0.7063 0.5418 0.4922, -0.7012 0.536 0.4925, -0.6969 0.5295 0.3543, -0.6969 0.5295 0.493, -0.6911 0.5158 0.4941, -0.691 0.5153 0.3543, -0.691 0.5153 0.4941, -0.6895 0.5077 0.4945, -0.689 0.5 0.3543, -0.689 0.5 0.4946, -0.6895 0.4923 0.4945, -0.691 0.4847 0.3543, -0.691 0.4847 0.4941, -0.6911 0.4842 0.4941, -0.6969 0.4705 0.3543, -0.6969 0.4705 0.493, -0.7063 0.4582 0.3543, -0.7064 0.4584 0.4922, -0.7012 0.4641 0.4925, -0.7327 0.443 0.3543, -0.7327 0.443 0.4921, -0.7185 0.4489 0.3543, -0.7185 0.4489 0.4921, -0.7087 0.456 0.4921, 0.748 0.6181 0.3543, 0.748 0.689 0.4921, 0.748 0.5591 0.3543, 0.748 0.5591 0.4921, 0.748 0.4409 0.4921, 0.748 0.4409 0.3543, 0.7327 0.443 0.4921, 0.7327 0.443 0.3543, 0.7185 0.4489 0.4921, 0.7185 0.4489 0.3543, 0.7087 0.456 0.4921, 0.7063 0.4582 0.3543, 0.7063 0.4582 0.4922, 0.7012 0.464 0.4925, 0.6969 0.4705 0.3543, 0.6969 0.4705 0.493, 0.6911 0.4842 0.4941, 0.691 0.4847 0.3543, 0.691 0.4847 0.4941, 0.6895 0.4923 0.4945, 0.689 0.5 0.3543, 0.689 0.5 0.4946, 0.6895 0.5077 0.4945, 0.691 0.5153 0.3543, 0.691 0.5153 0.4941, 0.6911 0.5158 0.4941, 0.6969 0.5295 0.3543, 0.6969 0.5295 0.493, 0.7063 0.5418 0.3543, 0.7064 0.5416 0.4922, 0.7012 0.5359 0.4925, 0.7327 0.557 0.3543, 0.7327 0.557 0.4921, 0.7185 0.5511 0.3543, 0.7185 0.5511 0.4921, 0.7087 0.544 0.4921, 0.748 0.3819 0.3543, 0.748 0.0591 0.4921, 0.748 0.0591 0.3543, 0.748 0.1181 0.3543, 0.748 -0.0591 0.4921, 0.748 -0.0591 0.3543, 0.7327 -0.057 0.4921, 0.7327 -0.057 0.3543, 0.7185 -0.0511 0.4921, 0.7185 -0.0511 0.3543, 0.7087 -0.044 0.4921, 0.7063 -0.0418 0.3543, 0.7063 -0.0418 0.4922, 0.7012 -0.036 0.4925, 0.6969 -0.0295 0.3543, 0.6969 -0.0295 0.493, 0.6911 -0.0158 0.4941, 0.691 -0.0153 0.3543, 0.691 -0.0153 0.4941, 0.6895 -0.0077 0.4945, 0.689 -0.0 0.3543, 0.689 -0.0 0.4946, 0.6895 0.0077 0.4945, 0.691 0.0153 0.3543, 0.691 0.0153 0.4941, 0.6911 0.0158 0.4941, 0.6969 0.0295 0.3543, 0.6969 0.0295 0.493, 0.7063 0.0418 0.3543, 0.7064 0.0416 0.4922, 0.7012 0.0359 0.4925, 0.7327 0.057 0.3543, 0.7327 0.057 0.4921, 0.7185 0.0511 0.3543, 0.7185 0.0511 0.4921, 0.7087 0.044 0.4921, 0.748 -0.1181 0.3543, 0.748 -0.4409 0.4921, 0.748 -0.4409 0.3543, 0.748 -0.3819 0.3543, 0.748 -0.5591 0.4921, 0.748 -0.5591 0.3543, 0.7339 -0.5573 0.4921, 0.7339 -0.5573 0.3543, 0.7206 -0.5523 0.4921, 0.7206 -0.5523 0.3543, 0.7089 -0.5442 0.4921, 0.7089 -0.5442 0.3543, 0.7087 -0.544 0.4921, 0.6994 -0.5335 0.4927, 0.6994 -0.5335 0.3543, 0.6928 -0.5209 0.3543, 0.6928 -0.5209 0.4937, 0.6911 -0.5142 0.4941, 0.6894 -0.5071 0.3543, 0.6894 -0.5071 0.4945, 0.6894 -0.4929 0.4945, 0.6894 -0.4929 0.3543, 0.6911 -0.4858 0.4941, 0.6928 -0.4791 0.3543, 0.6928 -0.4791 0.4937, 0.6994 -0.4665 0.3543, 0.6994 -0.4665 0.4927, 0.7339 -0.4427 0.3543, 0.7339 -0.4427 0.4921, 0.7206 -0.4477 0.3543, 0.7206 -0.4477 0.4921, 0.7089 -0.4558 0.3543, 0.7089 -0.4558 0.4921, 0.7087 -0.456 0.4921, -0.689 0.748 0.4921, -0.0591 0.748 0.4921, 0.689 -0.748 0.4921, 0.0591 -0.748 0.4921, 0.691 0.7327 0.4921, 0.689 0.748 0.4921, 0.0591 0.748 0.4921, 0.7087 0.5512 0.4921, 0.7327 0.691 0.4921, 0.7185 0.6969 0.4921, 0.7063 0.7063 0.4921, 0.6969 0.7185 0.4921, 0.057 0.7327 0.4921, 0.0511 0.7185 0.4921, 0.5512 0.7087 0.4921, 0.044 0.7087 0.4921, 0.5785 0.7063 0.4921, 0.605 0.6992 0.4921, 0.6299 0.6876 0.4921, 0.6876 0.6299 0.4921, 0.6992 0.605 0.4921, 0.6524 0.6718 0.4921, 0.6718 0.6524 0.4921, 0.7063 0.5785 0.4921, -0.748 0.689 0.4921, -0.7327 0.691 0.4921, -0.057 0.7327 0.4921, -0.5512 0.7087 0.4921, -0.0511 0.7185 0.4921, -0.044 0.7087 0.4921, -0.7087 0.5512 0.4921, -0.7063 0.5785 0.4921, -0.691 0.7327 0.4921, -0.6969 0.7185 0.4921, -0.6299 0.6876 0.4921, -0.5785 0.7063 0.4921, -0.605 0.6992 0.4921, -0.6992 0.605 0.4921, -0.7185 0.6969 0.4921, -0.6876 0.6299 0.4921, -0.7063 0.7063 0.4921, -0.6718 0.6524 0.4921, -0.6524 0.6718 0.4921, -0.0511 -0.7185 0.4921, -0.044 -0.7087 0.4921, -0.5512 -0.7087 0.4921, -0.5785 -0.7063 0.4921, -0.689 -0.748 0.4921, -0.7349 -0.6905 0.4921, -0.7224 -0.6948 0.4921, -0.7112 -0.7019 0.4921, -0.7019 -0.7112 0.4921, -0.6948 -0.7224 0.4921, -0.6905 -0.7349 0.4921, -0.7087 -0.5512 0.4921, -0.7063 -0.5785 0.4921, -0.6992 -0.605 0.4921, -0.6876 -0.6299 0.4921, -0.6718 -0.6524 0.4921, -0.057 -0.7327 0.4921, -0.0591 -0.748 0.4921, -0.605 -0.6992 0.4921, -0.6299 -0.6876 0.4921, -0.6524 -0.6718 0.4921, 0.057 -0.7327 0.4921, 0.5512 -0.7087 0.4921, 0.0511 -0.7185 0.4921, 0.044 -0.7087 0.4921, 0.7327 -0.691 0.4921, 0.7063 -0.5785 0.4921, 0.6992 -0.605 0.4921, 0.691 -0.7327 0.4921, 0.6969 -0.7185 0.4921, 0.6299 -0.6876 0.4921, 0.5785 -0.7063 0.4921, 0.605 -0.6992 0.4921, 0.7185 -0.6969 0.4921, 0.6876 -0.6299 0.4921, 0.7063 -0.7063 0.4921, 0.6718 -0.6524 0.4921, 0.6524 -0.6718 0.4921, 0.748 -0.689 0.4921, 0.7087 -0.5512 0.4921, 0.748 -0.6181 0.3543, -0.748 0.6181 0.3543, -0.748 0.6181 0.3543
            ]
        }
        coordIndex [
            0,1,2,-1,3,4,5,-1,6,7,8,-1,9,10,11,-1,11,10,0,-1,7,12,8,-1,8,12,13,-1,8,13,14,-1,14,15,8,-1,8,15,16,-1,8,16,5,-1,5,16,17,-1,5,17,3,-1,0,18,11,-1,11,18,19,-1,11,19,8,-1,8,19,20,-1,8,20,6,-1,21,22,23,-1,24,25,26,-1,26,25,27,-1,28,29,30,-1,31,32,26,-1,29,28,33,-1,33,28,34,-1,33,34,35,-1,36,37,38,-1,38,37,28,-1,38,28,39,-1,39,28,30,-1,40,41,26,-1,26,41,23,-1,26,23,31,-1,31,23,22,-1,37,42,28,-1,28,42,43,-1,28,43,27,-1,27,43,44,-1,27,44,26,-1,26,44,45,-1,26,45,40,-1,46,47,48,-1,49,50,2,-1,2,50,51,-1,2,51,52,-1,53,54,55,-1,56,57,58,-1,59,52,60,-1,60,52,61,-1,59,62,52,-1,52,62,21,-1,52,21,2,-1,2,21,23,-1,2,23,0,-1,0,23,63,-1,0,63,18,-1,46,48,64,-1,65,66,67,-1,67,66,50,-1,67,50,68,-1,69,70,71,-1,71,70,72,-1,71,72,73,-1,74,75,76,-1,76,75,77,-1,76,77,78,-1,49,79,80,-1,58,68,56,-1,56,68,50,-1,56,50,81,-1,81,50,49,-1,81,49,61,-1,48,82,83,-1,83,82,84,-1,72,85,73,-1,73,85,86,-1,73,86,87,-1,88,89,90,-1,90,89,91,-1,90,91,92,-1,93,94,90,-1,90,94,95,-1,96,97,98,-1,98,97,99,-1,95,100,90,-1,90,100,99,-1,90,99,101,-1,101,99,97,-1,102,49,103,-1,103,49,80,-1,103,80,74,-1,74,80,32,-1,74,32,75,-1,75,32,31,-1,55,80,53,-1,53,80,79,-1,53,79,83,-1,83,79,73,-1,83,73,48,-1,48,73,87,-1,48,87,64,-1,92,104,90,-1,90,104,105,-1,90,105,93,-1,84,106,83,-1,83,106,107,-1,83,107,108,-1,108,107,109,-1,108,109,110,-1,111,49,112,-1,112,49,102,-1,112,102,113,-1,78,114,76,-1,76,114,115,-1,76,115,116,-1,116,115,117,-1,116,117,118,-1,117,119,118,-1,118,119,120,-1,118,120,102,-1,102,120,121,-1,102,121,113,-1,111,122,49,-1,49,122,123,-1,49,123,124,-1,124,125,49,-1,49,125,126,-1,49,126,61,-1,61,126,127,-1,61,127,60,-1,60,127,128,-1,60,128,90,-1,90,128,129,-1,90,129,88,-1,130,131,132,-1,133,134,135,-1,135,134,136,-1,135,136,137,-1,132,137,130,-1,130,137,136,-1,130,136,71,-1,71,136,138,-1,71,138,69,-1,139,140,141,-1,141,140,133,-1,141,133,142,-1,142,133,135,-1,143,144,145,-1,145,144,49,-1,146,147,148,-1,148,149,146,-1,146,149,150,-1,146,150,151,-1,152,2,153,-1,153,2,1,-1,153,1,154,-1,154,1,145,-1,154,145,155,-1,155,145,49,-1,156,157,2,-1,2,157,158,-1,2,158,49,-1,49,158,159,-1,160,161,155,-1,155,161,162,-1,151,156,146,-1,146,156,2,-1,146,2,163,-1,163,2,152,-1,163,152,164,-1,164,152,165,-1,159,166,49,-1,49,166,167,-1,49,167,155,-1,155,167,168,-1,155,168,160,-1,162,169,155,-1,155,169,170,-1,155,170,146,-1,146,170,171,-1,146,171,147,-1,5,4,172,-1,172,4,173,-1,172,173,174,-1,174,173,175,-1,176,177,178,-1,178,177,179,-1,178,179,180,-1,180,179,181,-1,180,181,182,-1,182,181,183,-1,182,183,184,-1,184,183,185,-1,183,186,185,-1,185,186,187,-1,185,187,188,-1,188,187,189,-1,189,187,190,-1,189,190,191,-1,191,190,192,-1,192,190,193,-1,192,193,194,-1,194,193,195,-1,194,195,196,-1,196,195,197,-1,196,197,198,-1,174,175,199,-1,199,175,200,-1,199,200,201,-1,201,200,202,-1,201,202,203,-1,203,202,204,-1,203,204,197,-1,197,204,205,-1,197,205,198,-1,206,207,176,-1,176,207,208,-1,177,176,209,-1,209,176,208,-1,209,208,9,-1,9,208,10,-1,210,211,212,-1,212,211,213,-1,212,213,214,-1,214,213,215,-1,214,215,216,-1,216,215,217,-1,216,217,218,-1,218,217,219,-1,219,217,220,-1,219,220,221,-1,221,220,222,-1,222,220,223,-1,222,223,224,-1,224,223,225,-1,225,223,226,-1,225,226,227,-1,227,226,228,-1,228,226,229,-1,228,229,230,-1,230,229,231,-1,231,229,232,-1,231,232,233,-1,234,235,232,-1,232,235,236,-1,232,236,233,-1,207,206,237,-1,237,206,238,-1,237,238,239,-1,239,238,240,-1,239,240,234,-1,234,240,241,-1,234,241,235,-1,242,211,210,-1,243,244,245,-1,144,143,245,-1,245,143,242,-1,245,242,243,-1,243,242,210,-1,246,247,248,-1,248,247,249,-1,248,249,250,-1,250,249,251,-1,250,251,252,-1,252,251,253,-1,252,253,254,-1,254,253,255,-1,255,253,256,-1,255,256,257,-1,257,256,258,-1,258,256,259,-1,258,259,260,-1,260,259,261,-1,261,259,262,-1,261,262,263,-1,263,262,264,-1,264,262,265,-1,264,265,266,-1,266,265,267,-1,267,265,268,-1,267,268,269,-1,270,271,268,-1,268,271,272,-1,268,272,269,-1,244,243,273,-1,273,243,274,-1,273,274,275,-1,275,274,276,-1,275,276,270,-1,270,276,277,-1,270,277,271,-1,108,110,278,-1,278,110,279,-1,278,279,280,-1,280,279,281,-1,282,283,284,-1,284,283,285,-1,284,285,286,-1,286,285,287,-1,286,287,288,-1,288,287,289,-1,288,289,290,-1,290,289,291,-1,291,289,292,-1,291,292,293,-1,293,292,294,-1,294,292,295,-1,294,295,296,-1,296,295,297,-1,297,295,298,-1,297,298,299,-1,299,298,300,-1,300,298,301,-1,300,301,302,-1,302,301,303,-1,303,301,304,-1,303,304,305,-1,306,307,304,-1,304,307,308,-1,304,308,305,-1,280,281,309,-1,309,281,310,-1,309,310,311,-1,311,310,312,-1,311,312,306,-1,306,312,313,-1,306,313,307,-1,314,283,282,-1,315,316,317,-1,55,54,317,-1,317,54,314,-1,317,314,315,-1,315,314,282,-1,318,319,320,-1,320,319,321,-1,320,321,322,-1,322,321,323,-1,322,323,324,-1,324,323,325,-1,324,325,326,-1,326,325,327,-1,327,325,328,-1,327,328,329,-1,329,328,330,-1,330,328,331,-1,330,331,332,-1,332,331,333,-1,333,331,334,-1,333,334,335,-1,335,334,336,-1,336,334,337,-1,336,337,338,-1,338,337,339,-1,339,337,340,-1,339,340,341,-1,342,343,340,-1,340,343,344,-1,340,344,341,-1,316,315,345,-1,345,315,346,-1,345,346,347,-1,347,346,348,-1,347,348,342,-1,342,348,349,-1,342,349,343,-1,350,319,318,-1,351,352,353,-1,25,24,353,-1,353,24,350,-1,353,350,351,-1,351,350,318,-1,354,355,356,-1,356,355,357,-1,356,357,358,-1,358,357,359,-1,358,359,360,-1,360,359,361,-1,360,361,362,-1,362,361,363,-1,361,364,363,-1,363,364,365,-1,363,365,366,-1,366,365,367,-1,367,365,368,-1,367,368,369,-1,369,368,370,-1,370,368,371,-1,370,371,372,-1,372,371,373,-1,372,373,374,-1,374,373,375,-1,374,375,376,-1,352,351,377,-1,377,351,378,-1,377,378,379,-1,379,378,380,-1,379,380,381,-1,381,380,382,-1,381,382,375,-1,375,382,383,-1,375,383,376,-1,384,385,139,-1,139,385,140,-1,386,387,36,-1,36,387,37,-1,388,389,390,-1,391,313,312,-1,281,279,310,-1,310,279,392,-1,392,393,310,-1,310,393,394,-1,310,394,395,-1,390,396,388,-1,388,396,397,-1,388,397,398,-1,398,397,399,-1,398,400,388,-1,388,400,401,-1,388,401,402,-1,388,403,404,-1,402,405,388,-1,388,405,406,-1,388,406,403,-1,395,388,310,-1,310,388,404,-1,310,404,312,-1,312,404,407,-1,312,407,391,-1,382,320,383,-1,383,320,322,-1,383,322,324,-1,351,318,378,-1,378,318,320,-1,378,320,380,-1,380,320,382,-1,408,246,409,-1,409,246,248,-1,410,411,412,-1,412,411,413,-1,252,414,250,-1,250,414,415,-1,250,415,248,-1,416,417,418,-1,410,385,411,-1,411,385,384,-1,411,384,419,-1,419,384,416,-1,419,416,420,-1,420,416,418,-1,248,415,409,-1,409,415,421,-1,409,421,422,-1,422,421,423,-1,422,423,424,-1,424,423,425,-1,424,425,417,-1,417,425,426,-1,417,426,418,-1,241,240,184,-1,184,240,238,-1,184,238,182,-1,182,238,180,-1,206,176,238,-1,238,176,178,-1,238,178,180,-1,243,210,274,-1,274,210,212,-1,277,276,216,-1,216,276,274,-1,216,274,214,-1,214,274,212,-1,427,428,429,-1,200,175,173,-1,429,430,431,-1,173,432,200,-1,200,432,433,-1,200,433,434,-1,434,435,200,-1,200,435,436,-1,200,436,437,-1,205,204,438,-1,438,204,202,-1,438,202,439,-1,439,202,200,-1,439,200,440,-1,440,200,437,-1,440,437,441,-1,441,437,442,-1,427,429,443,-1,443,429,431,-1,443,431,444,-1,430,445,431,-1,431,445,446,-1,431,446,437,-1,437,446,447,-1,437,447,442,-1,448,449,450,-1,450,449,451,-1,452,453,454,-1,455,456,457,-1,448,387,449,-1,449,387,386,-1,449,386,458,-1,458,386,455,-1,458,455,459,-1,459,455,457,-1,452,454,460,-1,460,454,461,-1,460,461,462,-1,462,461,463,-1,462,463,456,-1,456,463,464,-1,456,464,457,-1,465,354,452,-1,452,354,356,-1,452,356,453,-1,453,356,358,-1,453,358,466,-1,466,358,360,-1,466,360,362,-1,355,354,467,-1,467,354,465,-1,467,465,34,-1,34,465,35,-1,48,47,389,-1,389,47,390,-1,247,246,468,-1,468,246,408,-1,468,408,130,-1,130,408,131,-1,12,7,431,-1,431,7,444,-1,315,282,346,-1,346,282,284,-1,349,348,288,-1,288,348,346,-1,288,346,286,-1,286,346,284,-1,
        ]
    }
}
Shape{
    appearance Appearance {
        material  Material 	{
            diffuseColor 0.7529411764705882 0.7529411764705882 0.7529411764705882
            specularColor 0.3764705882352941 0.3764705882352941 0.3764705882352941
            ambientIntensity 0.2
            transparency 0
            shininess 0.5
        }
    }
    geometry IndexedFaceSet {
        ccw TRUE
        solid FALSE
        coord DEF co Coordinate {
            point [
                -0.6299 -0.5512 0.5709, -0.6287 -0.5649 0.5709, -0.6299 -0.5512 0.6102, -0.6279 -0.5687 0.6102, -0.6277 -0.5686 0.5709, -0.6252 -0.5781 0.5709, -0.6221 -0.5853 0.6102, -0.6126 -0.6002 0.5709, -0.6127 -0.6003 0.6102, -0.6194 -0.5906 0.5709, -0.6219 -0.5852 0.5709, -0.6115 -0.6018 0.5709, -0.6018 -0.6115 0.5709, -0.6003 -0.6127 0.6102, -0.6002 -0.6126 0.5709, -0.5906 -0.6194 0.5709, -0.5853 -0.6221 0.6102, -0.5852 -0.6219 0.5709, -0.5781 -0.6252 0.5709, -0.5687 -0.6279 0.6102, -0.5512 -0.6299 0.5709, -0.5512 -0.6299 0.6102, -0.5649 -0.6287 0.5709, -0.5686 -0.6277 0.5709, 0.5512 -0.6299 0.5709, 0.5512 -0.6299 0.6102, 0.5649 -0.6287 0.5709, 0.5687 -0.6279 0.6102, 0.5686 -0.6277 0.5709, 0.5781 -0.6252 0.5709, 0.5853 -0.6221 0.6102, 0.6002 -0.6126 0.5709, 0.6003 -0.6127 0.6102, 0.5906 -0.6194 0.5709, 0.5852 -0.6219 0.5709, 0.6018 -0.6115 0.5709, 0.6115 -0.6018 0.5709, 0.6127 -0.6003 0.6102, 0.6126 -0.6002 0.5709, 0.6194 -0.5906 0.5709, 0.6221 -0.5853 0.6102, 0.6219 -0.5852 0.5709, 0.6252 -0.5781 0.5709, 0.6279 -0.5687 0.6102, 0.6299 -0.5512 0.5709, 0.6299 -0.5512 0.6102, 0.6287 -0.5649 0.5709, 0.6277 -0.5686 0.5709, 0.6299 0.5512 0.5709, 0.6299 0.5512 0.6102, 0.6287 0.5649 0.5709, 0.6279 0.5687 0.6102, 0.6277 0.5686 0.5709, 0.6252 0.5781 0.5709, 0.6221 0.5853 0.6102, 0.6126 0.6002 0.5709, 0.6127 0.6003 0.6102, 0.6194 0.5906 0.5709, 0.6219 0.5852 0.5709, 0.6115 0.6018 0.5709, 0.6018 0.6115 0.5709, 0.6003 0.6127 0.6102, 0.6002 0.6126 0.5709, 0.5906 0.6194 0.5709, 0.5853 0.6221 0.6102, 0.5852 0.6219 0.5709, 0.5781 0.6252 0.5709, 0.5687 0.6279 0.6102, 0.5512 0.6299 0.5709, 0.5512 0.6299 0.6102, 0.5649 0.6287 0.5709, 0.5686 0.6277 0.5709, -0.5512 0.6299 0.5709, -0.5512 0.6299 0.6102, -0.5649 0.6287 0.5709, -0.5687 0.6279 0.6102, -0.5686 0.6277 0.5709, -0.5781 0.6252 0.5709, -0.5853 0.6221 0.6102, -0.6002 0.6126 0.5709, -0.6003 0.6127 0.6102, -0.5906 0.6194 0.5709, -0.5852 0.6219 0.5709, -0.6018 0.6115 0.5709, -0.6115 0.6018 0.5709, -0.6127 0.6003 0.6102, -0.6126 0.6002 0.5709, -0.6194 0.5906 0.5709, -0.6221 0.5853 0.6102, -0.6219 0.5852 0.5709, -0.6252 0.5781 0.5709, -0.6279 0.5687 0.6102, -0.6299 0.5512 0.5709, -0.6299 0.5512 0.6102, -0.6287 0.5649 0.5709, -0.6277 0.5686 0.5709, -0.4025 0.5128 0.6102, -0.393 0.5004 0.6102, -0.4149 0.4185 0.6102, -0.4605 0.4125 0.6102, -0.4749 0.4185 0.6102, -0.4025 0.428 0.6102, -0.5029 0.4549 0.6102, -0.4969 0.4404 0.6102, -0.4874 0.428 0.6102, -0.4605 0.5284 0.6102, -0.4749 0.5224 0.6102, -0.4874 0.5128 0.6102, -0.4969 0.5004 0.6102, -0.4449 0.5304 0.6102, -0.4294 0.5284 0.6102, -0.4149 0.5224 0.6102, -0.393 0.4404 0.6102, -0.387 0.4549 0.6102, -0.385 0.4704 0.6102, -0.5049 0.4704 0.6102, -0.5029 0.4859 0.6102, -0.387 0.4859 0.6102, -0.4449 0.4104 0.6102, -0.4294 0.4125 0.6102, -0.4294 0.4125 0.6102
            ]
        }
        coordIndex [
            0,1,2,-1,2,1,3,-1,1,4,3,-1,3,4,5,-1,3,5,6,-1,7,8,9,-1,9,8,6,-1,9,6,10,-1,10,6,5,-1,7,11,8,-1,8,11,12,-1,8,12,13,-1,12,14,13,-1,13,14,15,-1,13,15,16,-1,15,17,16,-1,16,17,18,-1,16,18,19,-1,20,21,22,-1,22,21,19,-1,22,19,23,-1,23,19,18,-1,24,25,20,-1,20,25,21,-1,24,26,25,-1,25,26,27,-1,26,28,27,-1,27,28,29,-1,27,29,30,-1,31,32,33,-1,33,32,30,-1,33,30,34,-1,34,30,29,-1,31,35,32,-1,32,35,36,-1,32,36,37,-1,36,38,37,-1,37,38,39,-1,37,39,40,-1,39,41,40,-1,40,41,42,-1,40,42,43,-1,44,45,46,-1,46,45,43,-1,46,43,47,-1,47,43,42,-1,48,49,44,-1,44,49,45,-1,48,50,49,-1,49,50,51,-1,50,52,51,-1,51,52,53,-1,51,53,54,-1,55,56,57,-1,57,56,54,-1,57,54,58,-1,58,54,53,-1,55,59,56,-1,56,59,60,-1,56,60,61,-1,60,62,61,-1,61,62,63,-1,61,63,64,-1,63,65,64,-1,64,65,66,-1,64,66,67,-1,68,69,70,-1,70,69,67,-1,70,67,71,-1,71,67,66,-1,72,73,68,-1,68,73,69,-1,72,74,73,-1,73,74,75,-1,74,76,75,-1,75,76,77,-1,75,77,78,-1,79,80,81,-1,81,80,78,-1,81,78,82,-1,82,78,77,-1,79,83,80,-1,80,83,84,-1,80,84,85,-1,84,86,85,-1,85,86,87,-1,85,87,88,-1,87,89,88,-1,88,89,90,-1,88,90,91,-1,92,93,94,-1,94,93,91,-1,94,91,95,-1,95,91,90,-1,0,2,92,-1,92,2,93,-1,69,96,97,-1,21,25,98,-1,2,99,100,-1,30,32,101,-1,101,32,37,-1,102,93,103,-1,103,93,2,-1,103,2,104,-1,104,2,100,-1,105,73,106,-1,106,73,75,-1,106,75,107,-1,107,75,78,-1,107,78,108,-1,108,78,80,-1,108,80,85,-1,105,109,73,-1,73,109,110,-1,73,110,69,-1,69,110,111,-1,69,111,96,-1,37,40,101,-1,101,40,43,-1,101,43,112,-1,112,43,45,-1,112,45,113,-1,113,45,49,-1,113,49,114,-1,114,49,51,-1,114,51,54,-1,98,25,101,-1,101,25,27,-1,101,27,30,-1,102,115,93,-1,93,115,116,-1,93,116,91,-1,91,116,108,-1,91,108,88,-1,88,108,85,-1,54,56,114,-1,114,56,61,-1,114,61,64,-1,64,67,114,-1,114,67,69,-1,114,69,117,-1,117,69,97,-1,99,2,118,-1,118,2,3,-1,118,3,6,-1,6,8,118,-1,118,8,13,-1,118,13,16,-1,98,119,21,-1,21,119,118,-1,21,118,19,-1,19,118,16,-1,
        ]
    }
}
Shape{
    appearance Appearance {
        material  Material 	{
            diffuseColor 1.0 1.0 0.0
            specularColor 0.5019607843137255 0.5019607843137255 0.0
            ambientIntensity 0.2
            transparency 0
            shininess 0.5
        }
    }
    geometry IndexedFaceSet {
        ccw TRUE
        solid FALSE
        coord DEF co Coordinate {
            point [
                0.5512 -0.6912 0.4944, 0.5512 -0.7087 0.4921, 0.5785 -0.7063 0.4921, 0.6912 -0.5512 0.4944, 0.6883 -0.5512 0.4948, 0.6862 -0.575 0.4948, 0.5512 -0.6747 0.5004, 0.5512 -0.6883 0.4948, 0.575 -0.6862 0.4948, 0.6747 -0.5512 0.5004, 0.6693 -0.5512 0.5027, 0.6675 -0.5717 0.5027, 0.5512 -0.66 0.5098, 0.5512 -0.6693 0.5027, 0.5717 -0.6675 0.5027, 0.66 -0.5512 0.5098, 0.653 -0.5512 0.5152, 0.6514 -0.5689 0.5152, 0.5512 -0.6476 0.5222, 0.5512 -0.653 0.5152, 0.5689 -0.6514 0.5152, 0.6476 -0.5512 0.5222, 0.6405 -0.5512 0.5315, 0.6391 -0.5667 0.5315, 0.5512 -0.6382 0.5369, 0.5512 -0.6405 0.5315, 0.5667 -0.6391 0.5315, 0.5512 -0.6322 0.5534, 0.5512 -0.6326 0.5505, 0.5653 -0.6314 0.5505, 0.6322 -0.5512 0.5534, 0.6299 -0.5512 0.5709, 0.6287 -0.5649 0.5709, 0.6382 -0.5512 0.5369, 0.6326 -0.5512 0.5505, 0.6314 -0.5653 0.5505, 0.6277 -0.5686 0.5709, 0.6277 -0.579 0.5505, 0.6252 -0.5781 0.5709, 0.6219 -0.5852 0.5709, 0.6217 -0.5919 0.5505, 0.6194 -0.5906 0.5709, 0.6126 -0.6002 0.5709, 0.6136 -0.6035 0.5505, 0.6115 -0.6018 0.5709, 0.6035 -0.6136 0.5505, 0.6018 -0.6115 0.5709, 0.6002 -0.6126 0.5709, 0.5919 -0.6217 0.5505, 0.5906 -0.6194 0.5709, 0.5852 -0.6219 0.5709, 0.579 -0.6277 0.5505, 0.5512 -0.6299 0.5709, 0.5649 -0.6287 0.5709, 0.5686 -0.6277 0.5709, 0.5781 -0.6252 0.5709, 0.5817 -0.6351 0.5315, 0.5958 -0.6285 0.5315, 0.6086 -0.6196 0.5315, 0.6196 -0.6086 0.5315, 0.6285 -0.5958 0.5315, 0.6351 -0.5817 0.5315, 0.586 -0.6468 0.5152, 0.6021 -0.6393 0.5152, 0.6166 -0.6292 0.5152, 0.6292 -0.6166 0.5152, 0.6393 -0.6021 0.5152, 0.6468 -0.586 0.5152, 0.5916 -0.6622 0.5027, 0.6102 -0.6535 0.5027, 0.6271 -0.6417 0.5027, 0.6417 -0.6271 0.5027, 0.6535 -0.6102 0.5027, 0.6622 -0.5916 0.5027, 0.5981 -0.68 0.4948, 0.6197 -0.6699 0.4948, 0.6393 -0.6562 0.4948, 0.6562 -0.6393 0.4948, 0.6699 -0.6197 0.4948, 0.68 -0.5981 0.4948, 0.605 -0.6992 0.4921, 0.6299 -0.6876 0.4921, 0.6524 -0.6718 0.4921, 0.6718 -0.6524 0.4921, 0.6876 -0.6299 0.4921, 0.6992 -0.605 0.4921, 0.7063 -0.5785 0.4921, 0.7087 -0.5512 0.4921, 0.7087 0.044 0.4921, 0.7087 0.456 0.4921, 0.7064 0.0416 0.4922, 0.7063 0.4582 0.4922, 0.7012 0.0359 0.4925, 0.7012 0.464 0.4925, 0.6969 0.4705 0.493, 0.689 -0.0 0.4946, 0.6895 0.0077 0.4945, 0.6747 0.5512 0.5004, 0.691 -0.0153 0.4941, 0.6895 -0.0077 0.4945, 0.6911 -0.4858 0.4941, 0.6894 -0.4929 0.4945, 0.6894 -0.5071 0.4945, 0.6911 -0.5142 0.4941, 0.6928 -0.5209 0.4937, 0.689 0.5 0.4946, 0.6895 0.4923 0.4945, 0.691 0.4847 0.4941, 0.691 0.0153 0.4941, 0.6911 0.4842 0.4941, 0.6911 0.0158 0.4941, 0.6969 0.0295 0.493, 0.7012 -0.036 0.4925, 0.6969 -0.0295 0.493, 0.6911 -0.0158 0.4941, 0.7063 -0.0418 0.4922, 0.6928 -0.4791 0.4937, 0.7087 -0.044 0.4921, 0.6994 -0.4665 0.4927, 0.7087 -0.456 0.4921, 0.7087 -0.544 0.4921, 0.6994 -0.5335 0.4927, 0.6895 0.5077 0.4945, 0.691 0.5153 0.4941, 0.6883 0.5512 0.4948, 0.6911 0.5158 0.4941, 0.6912 0.5512 0.4944, 0.6969 0.5295 0.493, 0.7087 0.544 0.4921, 0.7087 0.5512 0.4921, 0.7064 0.5416 0.4922, 0.7012 0.5359 0.4925, 0.6693 0.5512 0.5027, 0.66 0.5512 0.5098, 0.653 0.5512 0.5152, 0.6476 0.5512 0.5222, 0.6405 0.5512 0.5315, 0.6382 0.5512 0.5369, 0.6326 0.5512 0.5505, 0.6322 0.5512 0.5534, 0.6299 0.5512 0.5709, 0.044 -0.7087 0.4921, 0.0416 -0.7064 0.4922, 0.0359 -0.7012 0.4925, 0.0295 -0.6969 0.493, 0.0 -0.689 0.4946, 0.0077 -0.6895 0.4945, 0.0153 -0.691 0.4941, 0.0158 -0.6911 0.4941, -0.0077 -0.6895 0.4945, -0.5512 -0.6747 0.5004, -0.0153 -0.691 0.4941, -0.5512 -0.6883 0.4948, -0.0158 -0.6911 0.4941, -0.5512 -0.6912 0.4944, -0.0295 -0.6969 0.493, -0.036 -0.7012 0.4925, -0.5512 -0.7087 0.4921, -0.044 -0.7087 0.4921, -0.0418 -0.7063 0.4922, -0.5512 -0.6693 0.5027, -0.5512 -0.66 0.5098, -0.5512 -0.653 0.5152, -0.5512 -0.6476 0.5222, -0.5512 -0.6405 0.5315, -0.5512 -0.6382 0.5369, -0.5512 -0.6326 0.5505, -0.5512 -0.6322 0.5534, -0.5512 -0.6299 0.5709, 0.7063 0.5785 0.4921, 0.5512 0.6912 0.4944, 0.5512 0.6883 0.4948, 0.575 0.6862 0.4948, 0.6862 0.575 0.4948, 0.5512 0.6747 0.5004, 0.5512 0.6693 0.5027, 0.5717 0.6675 0.5027, 0.6675 0.5717 0.5027, 0.5512 0.66 0.5098, 0.5512 0.653 0.5152, 0.5689 0.6514 0.5152, 0.6514 0.5689 0.5152, 0.5512 0.6476 0.5222, 0.5512 0.6405 0.5315, 0.5667 0.6391 0.5315, 0.6391 0.5667 0.5315, 0.6314 0.5653 0.5505, 0.5512 0.6322 0.5534, 0.5512 0.6299 0.5709, 0.5649 0.6287 0.5709, 0.5512 0.6382 0.5369, 0.5512 0.6326 0.5505, 0.5653 0.6314 0.5505, 0.5686 0.6277 0.5709, 0.579 0.6277 0.5505, 0.5781 0.6252 0.5709, 0.5852 0.6219 0.5709, 0.5919 0.6217 0.5505, 0.5906 0.6194 0.5709, 0.6002 0.6126 0.5709, 0.6035 0.6136 0.5505, 0.6018 0.6115 0.5709, 0.6136 0.6035 0.5505, 0.6115 0.6018 0.5709, 0.6126 0.6002 0.5709, 0.6217 0.5919 0.5505, 0.6194 0.5906 0.5709, 0.6219 0.5852 0.5709, 0.6277 0.579 0.5505, 0.6287 0.5649 0.5709, 0.6277 0.5686 0.5709, 0.6252 0.5781 0.5709, 0.6351 0.5817 0.5315, 0.6285 0.5958 0.5315, 0.6196 0.6086 0.5315, 0.6086 0.6196 0.5315, 0.5958 0.6285 0.5315, 0.5817 0.6351 0.5315, 0.6468 0.586 0.5152, 0.6393 0.6021 0.5152, 0.6292 0.6166 0.5152, 0.6166 0.6292 0.5152, 0.6021 0.6393 0.5152, 0.586 0.6468 0.5152, 0.6622 0.5916 0.5027, 0.6535 0.6102 0.5027, 0.6417 0.6271 0.5027, 0.6271 0.6417 0.5027, 0.6102 0.6535 0.5027, 0.5916 0.6622 0.5027, 0.68 0.5981 0.4948, 0.6699 0.6197 0.4948, 0.6562 0.6393 0.4948, 0.6393 0.6562 0.4948, 0.6197 0.6699 0.4948, 0.5981 0.68 0.4948, 0.6992 0.605 0.4921, 0.6876 0.6299 0.4921, 0.6718 0.6524 0.4921, 0.6524 0.6718 0.4921, 0.6299 0.6876 0.4921, 0.605 0.6992 0.4921, 0.5785 0.7063 0.4921, 0.5512 0.7087 0.4921, -0.6912 -0.5512 0.4944, -0.7087 -0.5512 0.4921, -0.7063 -0.5785 0.4921, -0.575 -0.6862 0.4948, -0.6747 -0.5512 0.5004, -0.6883 -0.5512 0.4948, -0.6862 -0.575 0.4948, -0.5717 -0.6675 0.5027, -0.66 -0.5512 0.5098, -0.6693 -0.5512 0.5027, -0.6675 -0.5717 0.5027, -0.5689 -0.6514 0.5152, -0.6476 -0.5512 0.5222, -0.653 -0.5512 0.5152, -0.6514 -0.5689 0.5152, -0.5667 -0.6391 0.5315, -0.6382 -0.5512 0.5369, -0.6405 -0.5512 0.5315, -0.6391 -0.5667 0.5315, -0.6322 -0.5512 0.5534, -0.6326 -0.5512 0.5505, -0.6314 -0.5653 0.5505, -0.5649 -0.6287 0.5709, -0.5653 -0.6314 0.5505, -0.5686 -0.6277 0.5709, -0.579 -0.6277 0.5505, -0.5781 -0.6252 0.5709, -0.5852 -0.6219 0.5709, -0.5919 -0.6217 0.5505, -0.5906 -0.6194 0.5709, -0.6002 -0.6126 0.5709, -0.6035 -0.6136 0.5505, -0.6018 -0.6115 0.5709, -0.6136 -0.6035 0.5505, -0.6115 -0.6018 0.5709, -0.6126 -0.6002 0.5709, -0.6217 -0.5919 0.5505, -0.6194 -0.5906 0.5709, -0.6219 -0.5852 0.5709, -0.6277 -0.579 0.5505, -0.6299 -0.5512 0.5709, -0.6287 -0.5649 0.5709, -0.6277 -0.5686 0.5709, -0.6252 -0.5781 0.5709, -0.6351 -0.5817 0.5315, -0.6285 -0.5958 0.5315, -0.6196 -0.6086 0.5315, -0.6086 -0.6196 0.5315, -0.5958 -0.6285 0.5315, -0.5817 -0.6351 0.5315, -0.6468 -0.586 0.5152, -0.6393 -0.6021 0.5152, -0.6292 -0.6166 0.5152, -0.6166 -0.6292 0.5152, -0.6021 -0.6393 0.5152, -0.586 -0.6468 0.5152, -0.6622 -0.5916 0.5027, -0.6535 -0.6102 0.5027, -0.6417 -0.6271 0.5027, -0.6271 -0.6417 0.5027, -0.6102 -0.6535 0.5027, -0.5916 -0.6622 0.5027, -0.68 -0.5981 0.4948, -0.6699 -0.6197 0.4948, -0.6562 -0.6393 0.4948, -0.6393 -0.6562 0.4948, -0.6197 -0.6699 0.4948, -0.5981 -0.68 0.4948, -0.6992 -0.605 0.4921, -0.6876 -0.6299 0.4921, -0.6718 -0.6524 0.4921, -0.6524 -0.6718 0.4921, -0.6299 -0.6876 0.4921, -0.605 -0.6992 0.4921, -0.5785 -0.7063 0.4921, -0.044 0.7087 0.4921, -0.5512 0.7087 0.4921, -0.0416 0.7064 0.4922, -0.5512 0.6912 0.4944, -0.0359 0.7012 0.4925, -0.0295 0.6969 0.493, 0.0 0.689 0.4946, -0.0077 0.6895 0.4945, -0.5512 0.6747 0.5004, -0.5512 0.6883 0.4948, -0.0153 0.691 0.4941, -0.0158 0.6911 0.4941, 0.0077 0.6895 0.4945, 0.0153 0.691 0.4941, 0.0158 0.6911 0.4941, 0.0295 0.6969 0.493, 0.036 0.7012 0.4925, 0.044 0.7087 0.4921, 0.0418 0.7063 0.4922, -0.5512 0.6693 0.5027, -0.5512 0.66 0.5098, -0.5512 0.653 0.5152, -0.5512 0.6476 0.5222, -0.5512 0.6405 0.5315, -0.5512 0.6382 0.5369, -0.5512 0.6326 0.5505, -0.5512 0.6322 0.5534, -0.5512 0.6299 0.5709, -0.7087 -0.544 0.4921, -0.6994 -0.5335 0.4927, -0.6895 -0.0077 0.4945, -0.689 -0.0 0.4946, -0.6895 0.4923 0.4945, -0.6895 0.0077 0.4945, -0.6911 -0.0158 0.4941, -0.6911 -0.4858 0.4941, -0.691 -0.0153 0.4941, -0.6894 -0.4929 0.4945, -0.6894 -0.5071 0.4945, -0.6911 -0.5142 0.4941, -0.6928 -0.5209 0.4937, -0.6969 -0.0295 0.493, -0.6994 -0.4665 0.4927, -0.6928 -0.4791 0.4937, -0.7087 -0.044 0.4921, -0.7087 -0.456 0.4921, -0.7064 -0.0416 0.4922, -0.7012 -0.0359 0.4925, -0.691 0.0153 0.4941, -0.691 0.4847 0.4941, -0.6911 0.0158 0.4941, -0.6911 0.4842 0.4941, -0.6969 0.0295 0.493, -0.6969 0.4705 0.493, -0.7012 0.4641 0.4925, -0.7087 0.456 0.4921, -0.7087 0.044 0.4921, -0.7064 0.4584 0.4922, -0.7063 0.0418 0.4922, -0.7012 0.036 0.4925, -0.7012 0.536 0.4925, -0.6969 0.5295 0.493, -0.6912 0.5512 0.4944, -0.6911 0.5158 0.4941, -0.6883 0.5512 0.4948, -0.691 0.5153 0.4941, -0.6747 0.5512 0.5004, -0.6895 0.5077 0.4945, -0.689 0.5 0.4946, -0.7087 0.5512 0.4921, -0.7087 0.544 0.4921, -0.7063 0.5418 0.4922, -0.6693 0.5512 0.5027, -0.66 0.5512 0.5098, -0.653 0.5512 0.5152, -0.6476 0.5512 0.5222, -0.6405 0.5512 0.5315, -0.6382 0.5512 0.5369, -0.6326 0.5512 0.5505, -0.6322 0.5512 0.5534, -0.6299 0.5512 0.5709, -0.5785 0.7063 0.4921, -0.6862 0.575 0.4948, -0.575 0.6862 0.4948, -0.6675 0.5717 0.5027, -0.5717 0.6675 0.5027, -0.6514 0.5689 0.5152, -0.5689 0.6514 0.5152, -0.6391 0.5667 0.5315, -0.5667 0.6391 0.5315, -0.5653 0.6314 0.5505, -0.6287 0.5649 0.5709, -0.6314 0.5653 0.5505, -0.6277 0.5686 0.5709, -0.6277 0.579 0.5505, -0.6252 0.5781 0.5709, -0.6219 0.5852 0.5709, -0.6217 0.5919 0.5505, -0.6194 0.5906 0.5709, -0.6126 0.6002 0.5709, -0.6136 0.6035 0.5505, -0.6115 0.6018 0.5709, -0.6035 0.6136 0.5505, -0.6018 0.6115 0.5709, -0.6002 0.6126 0.5709, -0.5919 0.6217 0.5505, -0.5906 0.6194 0.5709, -0.5852 0.6219 0.5709, -0.579 0.6277 0.5505, -0.5649 0.6287 0.5709, -0.5686 0.6277 0.5709, -0.5781 0.6252 0.5709, -0.5817 0.6351 0.5315, -0.5958 0.6285 0.5315, -0.6086 0.6196 0.5315, -0.6196 0.6086 0.5315, -0.6285 0.5958 0.5315, -0.6351 0.5817 0.5315, -0.586 0.6468 0.5152, -0.6021 0.6393 0.5152, -0.6166 0.6292 0.5152, -0.6292 0.6166 0.5152, -0.6393 0.6021 0.5152, -0.6468 0.586 0.5152, -0.5916 0.6622 0.5027, -0.6102 0.6535 0.5027, -0.6271 0.6417 0.5027, -0.6417 0.6271 0.5027, -0.6535 0.6102 0.5027, -0.6622 0.5916 0.5027, -0.5981 0.68 0.4948, -0.6197 0.6699 0.4948, -0.6393 0.6562 0.4948, -0.6562 0.6393 0.4948, -0.6699 0.6197 0.4948, -0.68 0.5981 0.4948, -0.605 0.6992 0.4921, -0.6299 0.6876 0.4921, -0.6524 0.6718 0.4921, -0.6718 0.6524 0.4921, -0.6876 0.6299 0.4921, -0.6992 0.605 0.4921, -0.7063 0.5785 0.4921, -0.7063 0.5785 0.4921
            ]
        }
        coordIndex [
            0,1,2,-1,3,4,5,-1,6,7,8,-1,9,10,11,-1,12,13,14,-1,15,16,17,-1,18,19,20,-1,21,22,23,-1,24,25,26,-1,27,28,29,-1,30,31,32,-1,33,34,35,-1,35,34,30,-1,30,32,35,-1,35,32,36,-1,35,36,37,-1,36,38,37,-1,37,38,39,-1,37,39,40,-1,39,41,40,-1,40,41,42,-1,40,42,43,-1,43,42,44,-1,43,44,45,-1,44,46,45,-1,45,46,47,-1,45,47,48,-1,47,49,48,-1,48,49,50,-1,48,50,51,-1,52,27,53,-1,53,27,29,-1,53,29,54,-1,54,29,51,-1,54,51,55,-1,55,51,50,-1,28,24,29,-1,29,24,26,-1,29,26,51,-1,51,26,56,-1,51,56,48,-1,48,56,57,-1,48,57,45,-1,45,57,58,-1,45,58,43,-1,43,58,59,-1,43,59,40,-1,40,59,60,-1,40,60,37,-1,37,60,61,-1,37,61,35,-1,35,61,23,-1,35,23,33,-1,33,23,22,-1,25,18,26,-1,26,18,20,-1,26,20,56,-1,56,20,62,-1,56,62,57,-1,57,62,63,-1,57,63,58,-1,58,63,64,-1,58,64,59,-1,59,64,65,-1,59,65,60,-1,60,65,66,-1,60,66,61,-1,61,66,67,-1,61,67,23,-1,23,67,17,-1,23,17,21,-1,21,17,16,-1,19,12,20,-1,20,12,14,-1,20,14,62,-1,62,14,68,-1,62,68,63,-1,63,68,69,-1,63,69,64,-1,64,69,70,-1,64,70,65,-1,65,70,71,-1,65,71,66,-1,66,71,72,-1,66,72,67,-1,67,72,73,-1,67,73,17,-1,17,73,11,-1,17,11,15,-1,15,11,10,-1,13,6,14,-1,14,6,8,-1,14,8,68,-1,68,8,74,-1,68,74,69,-1,69,74,75,-1,69,75,70,-1,70,75,76,-1,70,76,71,-1,71,76,77,-1,71,77,72,-1,72,77,78,-1,72,78,73,-1,73,78,79,-1,73,79,11,-1,11,79,5,-1,11,5,9,-1,9,5,4,-1,7,0,8,-1,8,0,2,-1,8,2,74,-1,74,2,80,-1,74,80,75,-1,75,80,81,-1,75,81,76,-1,76,81,82,-1,76,82,77,-1,77,82,83,-1,77,83,78,-1,78,83,84,-1,78,84,79,-1,79,84,85,-1,79,85,5,-1,5,85,86,-1,5,86,3,-1,3,86,87,-1,88,89,90,-1,90,89,91,-1,90,91,92,-1,92,91,93,-1,92,93,94,-1,95,96,97,-1,98,99,9,-1,100,98,101,-1,101,98,9,-1,101,9,102,-1,102,9,4,-1,102,4,103,-1,103,4,3,-1,103,3,104,-1,105,97,106,-1,106,97,96,-1,106,96,107,-1,107,96,108,-1,107,108,109,-1,109,108,110,-1,109,110,94,-1,94,110,111,-1,94,111,92,-1,112,113,100,-1,100,113,114,-1,100,114,98,-1,112,100,115,-1,115,100,116,-1,115,116,117,-1,117,116,118,-1,117,118,119,-1,87,120,3,-1,3,120,121,-1,3,121,104,-1,105,122,97,-1,97,122,123,-1,97,123,124,-1,124,123,125,-1,124,125,126,-1,126,125,127,-1,128,129,130,-1,130,129,126,-1,130,126,131,-1,131,126,127,-1,99,95,9,-1,9,95,97,-1,9,97,10,-1,10,97,132,-1,10,132,15,-1,15,132,133,-1,15,133,16,-1,16,133,134,-1,16,134,21,-1,21,134,135,-1,21,135,22,-1,22,135,136,-1,22,136,33,-1,33,136,137,-1,33,137,34,-1,34,137,138,-1,34,138,30,-1,30,138,139,-1,30,139,31,-1,31,139,140,-1,141,1,142,-1,142,1,0,-1,142,0,143,-1,143,0,144,-1,145,146,6,-1,6,146,7,-1,7,146,147,-1,7,147,0,-1,0,147,148,-1,0,148,144,-1,149,150,151,-1,151,150,152,-1,151,152,153,-1,153,152,154,-1,153,154,155,-1,155,154,156,-1,157,158,154,-1,154,158,159,-1,154,159,156,-1,149,145,150,-1,150,145,6,-1,150,6,160,-1,160,6,13,-1,160,13,161,-1,161,13,12,-1,161,12,162,-1,162,12,19,-1,162,19,163,-1,163,19,18,-1,163,18,164,-1,164,18,25,-1,164,25,165,-1,165,25,24,-1,165,24,166,-1,166,24,28,-1,166,28,167,-1,167,28,27,-1,167,27,168,-1,168,27,52,-1,126,129,169,-1,170,171,172,-1,97,124,173,-1,174,175,176,-1,133,132,177,-1,178,179,180,-1,135,134,181,-1,182,183,184,-1,137,136,185,-1,139,138,186,-1,187,188,189,-1,190,191,192,-1,192,191,187,-1,187,189,192,-1,192,189,193,-1,192,193,194,-1,193,195,194,-1,194,195,196,-1,194,196,197,-1,196,198,197,-1,197,198,199,-1,197,199,200,-1,200,199,201,-1,200,201,202,-1,201,203,202,-1,202,203,204,-1,202,204,205,-1,204,206,205,-1,205,206,207,-1,205,207,208,-1,140,139,209,-1,209,139,186,-1,209,186,210,-1,210,186,208,-1,210,208,211,-1,211,208,207,-1,138,137,186,-1,186,137,185,-1,186,185,208,-1,208,185,212,-1,208,212,205,-1,205,212,213,-1,205,213,202,-1,202,213,214,-1,202,214,200,-1,200,214,215,-1,200,215,197,-1,197,215,216,-1,197,216,194,-1,194,216,217,-1,194,217,192,-1,192,217,184,-1,192,184,190,-1,190,184,183,-1,136,135,185,-1,185,135,181,-1,185,181,212,-1,212,181,218,-1,212,218,213,-1,213,218,219,-1,213,219,214,-1,214,219,220,-1,214,220,215,-1,215,220,221,-1,215,221,216,-1,216,221,222,-1,216,222,217,-1,217,222,223,-1,217,223,184,-1,184,223,180,-1,184,180,182,-1,182,180,179,-1,134,133,181,-1,181,133,177,-1,181,177,218,-1,218,177,224,-1,218,224,219,-1,219,224,225,-1,219,225,220,-1,220,225,226,-1,220,226,221,-1,221,226,227,-1,221,227,222,-1,222,227,228,-1,222,228,223,-1,223,228,229,-1,223,229,180,-1,180,229,176,-1,180,176,178,-1,178,176,175,-1,132,97,177,-1,177,97,173,-1,177,173,224,-1,224,173,230,-1,224,230,225,-1,225,230,231,-1,225,231,226,-1,226,231,232,-1,226,232,227,-1,227,232,233,-1,227,233,228,-1,228,233,234,-1,228,234,229,-1,229,234,235,-1,229,235,176,-1,176,235,172,-1,176,172,174,-1,174,172,171,-1,124,126,173,-1,173,126,169,-1,173,169,230,-1,230,169,236,-1,230,236,231,-1,231,236,237,-1,231,237,232,-1,232,237,238,-1,232,238,233,-1,233,238,239,-1,233,239,234,-1,234,239,240,-1,234,240,235,-1,235,240,241,-1,235,241,172,-1,172,241,242,-1,172,242,170,-1,170,242,243,-1,244,245,246,-1,154,152,247,-1,248,249,250,-1,150,160,251,-1,252,253,254,-1,161,162,255,-1,256,257,258,-1,163,164,259,-1,260,261,262,-1,263,264,265,-1,167,168,266,-1,165,166,267,-1,267,166,167,-1,167,266,267,-1,267,266,268,-1,267,268,269,-1,268,270,269,-1,269,270,271,-1,269,271,272,-1,271,273,272,-1,272,273,274,-1,272,274,275,-1,275,274,276,-1,275,276,277,-1,276,278,277,-1,277,278,279,-1,277,279,280,-1,279,281,280,-1,280,281,282,-1,280,282,283,-1,284,263,285,-1,285,263,265,-1,285,265,286,-1,286,265,283,-1,286,283,287,-1,287,283,282,-1,264,260,265,-1,265,260,262,-1,265,262,283,-1,283,262,288,-1,283,288,280,-1,280,288,289,-1,280,289,277,-1,277,289,290,-1,277,290,275,-1,275,290,291,-1,275,291,272,-1,272,291,292,-1,272,292,269,-1,269,292,293,-1,269,293,267,-1,267,293,259,-1,267,259,165,-1,165,259,164,-1,261,256,262,-1,262,256,258,-1,262,258,288,-1,288,258,294,-1,288,294,289,-1,289,294,295,-1,289,295,290,-1,290,295,296,-1,290,296,291,-1,291,296,297,-1,291,297,292,-1,292,297,298,-1,292,298,293,-1,293,298,299,-1,293,299,259,-1,259,299,255,-1,259,255,163,-1,163,255,162,-1,257,252,258,-1,258,252,254,-1,258,254,294,-1,294,254,300,-1,294,300,295,-1,295,300,301,-1,295,301,296,-1,296,301,302,-1,296,302,297,-1,297,302,303,-1,297,303,298,-1,298,303,304,-1,298,304,299,-1,299,304,305,-1,299,305,255,-1,255,305,251,-1,255,251,161,-1,161,251,160,-1,253,248,254,-1,254,248,250,-1,254,250,300,-1,300,250,306,-1,300,306,301,-1,301,306,307,-1,301,307,302,-1,302,307,308,-1,302,308,303,-1,303,308,309,-1,303,309,304,-1,304,309,310,-1,304,310,305,-1,305,310,311,-1,305,311,251,-1,251,311,247,-1,251,247,150,-1,150,247,152,-1,249,244,250,-1,250,244,246,-1,250,246,306,-1,306,246,312,-1,306,312,307,-1,307,312,313,-1,307,313,308,-1,308,313,314,-1,308,314,309,-1,309,314,315,-1,309,315,310,-1,310,315,316,-1,310,316,311,-1,311,316,317,-1,311,317,247,-1,247,317,318,-1,247,318,154,-1,154,318,157,-1,319,320,321,-1,321,320,322,-1,321,322,323,-1,323,322,324,-1,325,326,327,-1,327,326,328,-1,328,326,329,-1,328,329,322,-1,322,329,330,-1,322,330,324,-1,331,174,332,-1,332,174,171,-1,332,171,333,-1,333,171,170,-1,333,170,334,-1,334,170,335,-1,243,336,170,-1,170,336,337,-1,170,337,335,-1,331,325,174,-1,174,325,327,-1,174,327,175,-1,175,327,338,-1,175,338,178,-1,178,338,339,-1,178,339,179,-1,179,339,340,-1,179,340,182,-1,182,340,341,-1,182,341,183,-1,183,341,342,-1,183,342,190,-1,190,342,343,-1,190,343,191,-1,191,343,344,-1,191,344,187,-1,187,344,345,-1,187,345,188,-1,188,345,346,-1,347,245,348,-1,348,245,244,-1,349,248,350,-1,350,248,351,-1,350,351,352,-1,353,354,355,-1,355,354,356,-1,355,356,349,-1,349,356,248,-1,248,356,357,-1,248,357,249,-1,249,357,358,-1,249,358,244,-1,244,358,359,-1,244,359,348,-1,360,361,353,-1,353,361,362,-1,353,362,354,-1,363,364,365,-1,365,364,361,-1,365,361,366,-1,366,361,360,-1,352,351,367,-1,367,351,368,-1,367,368,369,-1,369,368,370,-1,369,370,371,-1,371,370,372,-1,371,372,373,-1,374,375,376,-1,376,375,377,-1,376,377,373,-1,373,377,378,-1,373,378,371,-1,379,380,381,-1,381,380,382,-1,381,382,383,-1,383,382,384,-1,383,384,385,-1,385,384,386,-1,385,386,387,-1,388,389,381,-1,381,389,390,-1,381,390,379,-1,387,351,385,-1,385,351,248,-1,385,248,391,-1,391,248,253,-1,391,253,392,-1,392,253,252,-1,392,252,393,-1,393,252,257,-1,393,257,394,-1,394,257,256,-1,394,256,395,-1,395,256,261,-1,395,261,396,-1,396,261,260,-1,396,260,397,-1,397,260,264,-1,397,264,398,-1,398,264,263,-1,398,263,399,-1,399,263,284,-1,322,320,400,-1,381,383,401,-1,327,328,402,-1,385,391,403,-1,339,338,404,-1,392,393,405,-1,341,340,406,-1,394,395,407,-1,343,342,408,-1,345,344,409,-1,398,399,410,-1,396,397,411,-1,411,397,398,-1,398,410,411,-1,411,410,412,-1,411,412,413,-1,412,414,413,-1,413,414,415,-1,413,415,416,-1,415,417,416,-1,416,417,418,-1,416,418,419,-1,419,418,420,-1,419,420,421,-1,420,422,421,-1,421,422,423,-1,421,423,424,-1,423,425,424,-1,424,425,426,-1,424,426,427,-1,346,345,428,-1,428,345,409,-1,428,409,429,-1,429,409,427,-1,429,427,430,-1,430,427,426,-1,344,343,409,-1,409,343,408,-1,409,408,427,-1,427,408,431,-1,427,431,424,-1,424,431,432,-1,424,432,421,-1,421,432,433,-1,421,433,419,-1,419,433,434,-1,419,434,416,-1,416,434,435,-1,416,435,413,-1,413,435,436,-1,413,436,411,-1,411,436,407,-1,411,407,396,-1,396,407,395,-1,342,341,408,-1,408,341,406,-1,408,406,431,-1,431,406,437,-1,431,437,432,-1,432,437,438,-1,432,438,433,-1,433,438,439,-1,433,439,434,-1,434,439,440,-1,434,440,435,-1,435,440,441,-1,435,441,436,-1,436,441,442,-1,436,442,407,-1,407,442,405,-1,407,405,394,-1,394,405,393,-1,340,339,406,-1,406,339,404,-1,406,404,437,-1,437,404,443,-1,437,443,438,-1,438,443,444,-1,438,444,439,-1,439,444,445,-1,439,445,440,-1,440,445,446,-1,440,446,441,-1,441,446,447,-1,441,447,442,-1,442,447,448,-1,442,448,405,-1,405,448,403,-1,405,403,392,-1,392,403,391,-1,338,327,404,-1,404,327,402,-1,404,402,443,-1,443,402,449,-1,443,449,444,-1,444,449,450,-1,444,450,445,-1,445,450,451,-1,445,451,446,-1,446,451,452,-1,446,452,447,-1,447,452,453,-1,447,453,448,-1,448,453,454,-1,448,454,403,-1,403,454,401,-1,403,401,385,-1,385,401,383,-1,328,322,402,-1,402,322,400,-1,402,400,449,-1,449,400,455,-1,449,455,450,-1,450,455,456,-1,450,456,451,-1,451,456,457,-1,451,457,452,-1,452,457,458,-1,452,458,453,-1,453,458,459,-1,453,459,454,-1,454,459,460,-1,454,460,401,-1,401,460,461,-1,401,461,381,-1,381,461,388,-1,
        ]
    }
}
Shape{
    appearance Appearance {
        material  Material 	{
            diffuseColor 0.5019607843137255 0.5019607843137255 0.5019607843137255
            specularColor 0.25098039215686274 0.25098039215686274 0.25098039215686274
            ambientIntensity 0.2
            transparency 0
            shininess 0.5
        }
    }
    geometry IndexedFaceSet {
        ccw TRUE
        solid FALSE
        coord DEF co Coordinate {
            point [
                0.0591 0.748 0.4921, 0.0591 0.748 0.0, 0.057 0.7327 0.4921, 0.057 0.7327 0.0, 0.0511 0.7185 0.4921, 0.0511 0.7185 0.0, 0.044 0.7087 0.4921, 0.0418 0.7063 0.0, 0.0418 0.7063 0.4922, 0.036 0.7012 0.4925, 0.0295 0.6969 0.0, 0.0295 0.6969 0.493, 0.0158 0.6911 0.4941, 0.0153 0.691 0.0, 0.0153 0.691 0.4941, 0.0077 0.6895 0.4945, 0.0 0.689 0.0, 0.0 0.689 0.4946, -0.0077 0.6895 0.4945, -0.0118 0.6905 0.0, -0.0153 0.691 0.4941, -0.0153 0.691 0.0, -0.0158 0.6911 0.4941, -0.0295 0.6969 0.0, -0.0295 0.6969 0.493, -0.0418 0.7063 0.0, -0.0416 0.7064 0.4922, -0.0359 0.7012 0.4925, -0.0591 0.748 0.0, -0.0591 0.748 0.4921, -0.057 0.7327 0.0, -0.057 0.7327 0.4921, -0.0511 0.7185 0.0, -0.0511 0.7185 0.4921, -0.044 0.7087 0.4921, -0.0591 -0.748 0.4921, -0.0591 -0.748 0.0, -0.057 -0.7327 0.4921, -0.057 -0.7327 0.0, -0.0511 -0.7185 0.4921, -0.0511 -0.7185 0.0, -0.044 -0.7087 0.4921, -0.0418 -0.7063 0.0, -0.0418 -0.7063 0.4922, -0.036 -0.7012 0.4925, -0.0295 -0.6969 0.0, -0.0295 -0.6969 0.493, -0.0158 -0.6911 0.4941, -0.0153 -0.691 0.0, -0.0153 -0.691 0.4941, -0.0118 -0.6905 0.0, -0.0077 -0.6895 0.4945, 0.0 -0.689 0.0, 0.0 -0.689 0.4946, 0.0077 -0.6895 0.4945, 0.0153 -0.691 0.0, 0.0153 -0.691 0.4941, 0.0158 -0.6911 0.4941, 0.0295 -0.6969 0.0, 0.0295 -0.6969 0.493, 0.0418 -0.7063 0.0, 0.0416 -0.7064 0.4922, 0.0359 -0.7012 0.4925, 0.0591 -0.748 0.0, 0.0591 -0.748 0.4921, 0.057 -0.7327 0.0, 0.057 -0.7327 0.4921, 0.0511 -0.7185 0.0, 0.0511 -0.7185 0.4921, 0.044 -0.7087 0.4921, -0.748 -0.689 0.4921, -0.748 -0.689 0.0, -0.7349 -0.6905 0.4921, -0.7349 -0.6905 0.0, -0.7224 -0.6948 0.4921, -0.7224 -0.6948 0.0, -0.7112 -0.7019 0.4921, -0.7112 -0.7019 0.0, -0.7019 -0.7112 0.4921, -0.7019 -0.7112 0.0, -0.6948 -0.7224 0.4921, -0.6948 -0.7224 0.0, -0.6905 -0.7349 0.4921, -0.6905 -0.7349 0.0, -0.689 -0.748 0.4921, -0.689 -0.748 0.0, -0.689 0.748 0.4921, -0.689 0.748 0.0, -0.691 0.7327 0.4921, -0.691 0.7327 0.0, -0.6969 0.7185 0.4921, -0.6969 0.7185 0.0, -0.7063 0.7063 0.4921, -0.7063 0.7063 0.0, -0.7185 0.6969 0.4921, -0.7185 0.6969 0.0, -0.7327 0.691 0.4921, -0.7327 0.691 0.0, -0.748 0.689 0.4921, -0.748 0.689 0.0, 0.748 0.689 0.4921, 0.748 0.689 0.0, 0.7327 0.691 0.4921, 0.7327 0.691 0.0, 0.7185 0.6969 0.4921, 0.7185 0.6969 0.0, 0.7063 0.7063 0.4921, 0.7063 0.7063 0.0, 0.6969 0.7185 0.4921, 0.6969 0.7185 0.0, 0.691 0.7327 0.4921, 0.691 0.7327 0.0, 0.689 0.748 0.4921, 0.689 0.748 0.0, 0.689 -0.748 0.4921, 0.689 -0.748 0.0, 0.691 -0.7327 0.4921, 0.691 -0.7327 0.0, 0.6969 -0.7185 0.4921, 0.6969 -0.7185 0.0, 0.7063 -0.7063 0.4921, 0.7063 -0.7063 0.0, 0.7185 -0.6969 0.4921, 0.7185 -0.6969 0.0, 0.7327 -0.691 0.4921, 0.7327 -0.691 0.0, 0.748 -0.689 0.4921, 0.748 -0.689 0.0, 0.748 -0.689 0.0
            ]
        }
        coordIndex [
            0,1,2,-1,2,1,3,-1,2,3,4,-1,4,3,5,-1,4,5,6,-1,6,5,7,-1,6,7,8,-1,8,7,9,-1,9,7,10,-1,9,10,11,-1,11,10,12,-1,12,10,13,-1,12,13,14,-1,14,13,15,-1,15,13,16,-1,15,16,17,-1,17,16,18,-1,18,16,19,-1,18,19,20,-1,20,19,21,-1,20,21,22,-1,22,21,23,-1,22,23,24,-1,25,26,23,-1,23,26,27,-1,23,27,24,-1,28,29,30,-1,30,29,31,-1,30,31,32,-1,32,31,33,-1,32,33,25,-1,25,33,34,-1,25,34,26,-1,35,36,37,-1,37,36,38,-1,37,38,39,-1,39,38,40,-1,39,40,41,-1,41,40,42,-1,41,42,43,-1,43,42,44,-1,44,42,45,-1,44,45,46,-1,46,45,47,-1,47,45,48,-1,47,48,49,-1,49,48,50,-1,49,50,51,-1,51,50,52,-1,51,52,53,-1,53,52,54,-1,54,52,55,-1,54,55,56,-1,56,55,57,-1,57,55,58,-1,57,58,59,-1,60,61,58,-1,58,61,62,-1,58,62,59,-1,63,64,65,-1,65,64,66,-1,65,66,67,-1,67,66,68,-1,67,68,60,-1,60,68,69,-1,60,69,61,-1,70,71,72,-1,72,71,73,-1,72,73,74,-1,74,73,75,-1,74,75,76,-1,76,75,77,-1,76,77,78,-1,78,77,79,-1,78,79,80,-1,80,79,81,-1,80,81,82,-1,82,81,83,-1,82,83,84,-1,84,83,85,-1,86,87,88,-1,88,87,89,-1,88,89,90,-1,90,89,91,-1,90,91,92,-1,92,91,93,-1,92,93,94,-1,94,93,95,-1,94,95,96,-1,96,95,97,-1,96,97,98,-1,98,97,99,-1,100,101,102,-1,102,101,103,-1,102,103,104,-1,104,103,105,-1,104,105,106,-1,106,105,107,-1,106,107,108,-1,108,107,109,-1,108,109,110,-1,110,109,111,-1,110,111,112,-1,112,111,113,-1,114,115,116,-1,116,115,117,-1,116,117,118,-1,118,117,119,-1,118,119,120,-1,120,119,121,-1,120,121,122,-1,122,121,123,-1,122,123,124,-1,124,123,125,-1,124,125,126,-1,126,125,127,-1,
        ]
    }
}
Shape{
    appearance Appearance {
        material  Material 	{
            diffuseColor 1.0 1.0 0.0
            specularColor 0.5019607843137255 0.5019607843137255 0.0
            ambientIntensity 0.2
            transparency 0
            shininess 0.5
        }
    }
    geometry IndexedFaceSet {
        ccw TRUE
        solid FALSE
        coord DEF co Coordinate {
            point [
                0.748 -0.3819 0.3543, 0.752 -0.3819 0.3543, 0.748 -0.3819 0.0, 0.752 -0.3819 -0.0039, 0.3543 -0.3819 0.0, 0.3543 -0.3819 -0.0039, 0.3543 -0.6181 -0.0039, 0.3543 -0.6181 0.0, 0.748 -0.6181 0.0, 0.752 -0.6181 -0.0039, 0.748 -0.6181 0.3543, 0.752 -0.6181 0.3543, 0.748 -0.5591 0.3543, 0.752 -0.4449 0.3543, 0.748 -0.4409 0.3543, 0.752 -0.5551 0.3543, 0.748 -0.5551 0.3543, 0.7339 -0.5573 0.3543, 0.7338 -0.5532 0.3543, 0.7206 -0.5523 0.3543, 0.7205 -0.5477 0.3543, 0.7089 -0.5442 0.3543, 0.7091 -0.539 0.3543, 0.6994 -0.5335 0.3543, 0.7003 -0.5276 0.3543, 0.6928 -0.5209 0.3543, 0.6948 -0.5143 0.3543, 0.6894 -0.5071 0.3543, 0.6929 -0.5 0.3543, 0.6894 -0.4929 0.3543, 0.6928 -0.4791 0.3543, 0.6948 -0.4857 0.3543, 0.6994 -0.4665 0.3543, 0.7003 -0.4724 0.3543, 0.7089 -0.4558 0.3543, 0.7091 -0.461 0.3543, 0.7206 -0.4477 0.3543, 0.7205 -0.4523 0.3543, 0.7339 -0.4427 0.3543, 0.7338 -0.4468 0.3543, 0.748 -0.4449 0.3543, 0.752 -0.5551 -0.0039, 0.748 -0.5551 -0.0039, 0.7338 -0.5532 -0.0039, 0.7205 -0.5477 -0.0039, 0.7091 -0.539 -0.0039, 0.7003 -0.5276 -0.0039, 0.6948 -0.5143 -0.0039, 0.6929 -0.5 -0.0039, 0.6948 -0.4857 -0.0039, 0.7003 -0.4724 -0.0039, 0.7091 -0.461 -0.0039, 0.7205 -0.4523 -0.0039, 0.7338 -0.4468 -0.0039, 0.748 -0.4449 -0.0039, 0.752 -0.4449 -0.0039, 0.3543 0.1181 0.0, 0.3543 0.1181 -0.0039, 0.3543 -0.0198 0.0, 0.3543 -0.1181 -0.0039, 0.3543 -0.1181 0.0, 0.748 -0.1181 0.0, 0.752 -0.1181 -0.0039, 0.748 -0.1181 0.3543, 0.752 -0.1181 0.3543, 0.748 0.1181 0.3543, 0.752 0.1181 0.3543, 0.748 0.1181 0.0, 0.752 0.1181 -0.0039, 0.748 -0.0591 0.3543, 0.752 0.0551 0.3543, 0.748 0.0591 0.3543, 0.752 -0.0551 0.3543, 0.748 -0.0551 0.3543, 0.7327 -0.057 0.3543, 0.7338 -0.0532 0.3543, 0.7185 -0.0511 0.3543, 0.7205 -0.0477 0.3543, 0.7063 -0.0418 0.3543, 0.7091 -0.039 0.3543, 0.6969 -0.0295 0.3543, 0.7003 -0.0276 0.3543, 0.691 -0.0153 0.3543, 0.6948 -0.0143 0.3543, 0.689 -0.0 0.3543, 0.6929 -0.0 0.3543, 0.691 0.0153 0.3543, 0.6948 0.0143 0.3543, 0.6969 0.0295 0.3543, 0.7003 0.0276 0.3543, 0.7063 0.0418 0.3543, 0.7091 0.039 0.3543, 0.7185 0.0511 0.3543, 0.7205 0.0477 0.3543, 0.7327 0.057 0.3543, 0.7338 0.0532 0.3543, 0.748 0.0551 0.3543, 0.752 -0.0551 -0.0039, 0.748 -0.0551 -0.0039, 0.7338 -0.0532 -0.0039, 0.7205 -0.0477 -0.0039, 0.7091 -0.039 -0.0039, 0.7003 -0.0276 -0.0039, 0.6948 -0.0143 -0.0039, 0.6929 -0.0 -0.0039, 0.6948 0.0143 -0.0039, 0.7003 0.0276 -0.0039, 0.7091 0.039 -0.0039, 0.7205 0.0477 -0.0039, 0.7338 0.0532 -0.0039, 0.748 0.0551 -0.0039, 0.752 0.0551 -0.0039, 0.3543 0.6181 0.0, 0.3543 0.6181 -0.0039, 0.3543 0.3819 0.0, 0.3543 0.3819 -0.0039, 0.748 0.3819 0.0, 0.752 0.3819 -0.0039, 0.748 0.3819 0.3543, 0.752 0.3819 0.3543, 0.748 0.6181 0.3543, 0.752 0.6181 0.3543, 0.748 0.6181 0.0, 0.752 0.6181 -0.0039, 0.748 0.4409 0.3543, 0.752 0.5551 0.3543, 0.748 0.5591 0.3543, 0.752 0.4449 0.3543, 0.748 0.4449 0.3543, 0.7327 0.443 0.3543, 0.7338 0.4468 0.3543, 0.7185 0.4489 0.3543, 0.7205 0.4523 0.3543, 0.7063 0.4582 0.3543, 0.7091 0.461 0.3543, 0.6969 0.4705 0.3543, 0.7003 0.4724 0.3543, 0.691 0.4847 0.3543, 0.6948 0.4857 0.3543, 0.689 0.5 0.3543, 0.6929 0.5 0.3543, 0.691 0.5153 0.3543, 0.6948 0.5143 0.3543, 0.6969 0.5295 0.3543, 0.7003 0.5276 0.3543, 0.7063 0.5418 0.3543, 0.7091 0.539 0.3543, 0.7185 0.5511 0.3543, 0.7205 0.5477 0.3543, 0.7327 0.557 0.3543, 0.7338 0.5532 0.3543, 0.748 0.5551 0.3543, 0.752 0.4449 -0.0039, 0.748 0.4449 -0.0039, 0.7338 0.4468 -0.0039, 0.7205 0.4523 -0.0039, 0.7091 0.461 -0.0039, 0.7003 0.4724 -0.0039, 0.6948 0.4857 -0.0039, 0.6929 0.5 -0.0039, 0.6948 0.5143 -0.0039, 0.7003 0.5276 -0.0039, 0.7091 0.539 -0.0039, 0.7205 0.5477 -0.0039, 0.7338 0.5532 -0.0039, 0.748 0.5551 -0.0039, 0.752 0.5551 -0.0039, 0.0394 0.3819 -0.0039, 0.0394 0.6181 -0.0039, 0.0394 0.3819 0.0, 0.0394 0.6181 0.0, -0.748 0.3819 0.3543, -0.752 0.3819 0.3543, -0.748 0.3819 0.0, -0.752 0.3819 -0.0039, -0.0118 0.3819 0.0, -0.752 0.6181 -0.0039, -0.752 0.6181 0.3543, -0.748 0.6181 0.3543, -0.748 0.6181 0.0, -0.0118 0.6181 0.0, -0.748 0.5591 0.3543, -0.752 0.4449 0.3543, -0.748 0.4409 0.3543, -0.752 0.5551 0.3543, -0.748 0.5551 0.3543, -0.7327 0.557 0.3543, -0.7338 0.5532 0.3543, -0.7185 0.5511 0.3543, -0.7205 0.5477 0.3543, -0.7063 0.5418 0.3543, -0.7091 0.539 0.3543, -0.6969 0.5295 0.3543, -0.7003 0.5276 0.3543, -0.691 0.5153 0.3543, -0.6948 0.5143 0.3543, -0.689 0.5 0.3543, -0.6929 0.5 0.3543, -0.691 0.4847 0.3543, -0.6948 0.4857 0.3543, -0.6969 0.4705 0.3543, -0.7003 0.4724 0.3543, -0.7063 0.4582 0.3543, -0.7091 0.461 0.3543, -0.7185 0.4489 0.3543, -0.7205 0.4523 0.3543, -0.7327 0.443 0.3543, -0.7338 0.4468 0.3543, -0.748 0.4449 0.3543, -0.752 0.5551 -0.0039, -0.748 0.5551 -0.0039, -0.7338 0.5532 -0.0039, -0.7205 0.5477 -0.0039, -0.7091 0.539 -0.0039, -0.7003 0.5276 -0.0039, -0.6948 0.5143 -0.0039, -0.6929 0.5 -0.0039, -0.6948 0.4857 -0.0039, -0.7003 0.4724 -0.0039, -0.7091 0.461 -0.0039, -0.7205 0.4523 -0.0039, -0.7338 0.4468 -0.0039, -0.748 0.4449 -0.0039, -0.752 0.4449 -0.0039, -0.3543 -0.1181 0.0, -0.3543 -0.1181 -0.0039, -0.3543 -0.0198 0.0, -0.3543 0.1181 -0.0039, -0.3543 0.1181 0.0, -0.748 0.1181 0.0, -0.752 0.1181 -0.0039, -0.748 0.1181 0.3543, -0.752 0.1181 0.3543, -0.748 -0.1181 0.3543, -0.752 -0.1181 0.3543, -0.748 -0.1181 0.0, -0.752 -0.1181 -0.0039, -0.748 0.0591 0.3543, -0.752 -0.0551 0.3543, -0.748 -0.0591 0.3543, -0.752 0.0551 0.3543, -0.748 0.0551 0.3543, -0.7327 0.057 0.3543, -0.7338 0.0532 0.3543, -0.7185 0.0511 0.3543, -0.7205 0.0477 0.3543, -0.7063 0.0418 0.3543, -0.7091 0.039 0.3543, -0.6969 0.0295 0.3543, -0.7003 0.0276 0.3543, -0.691 0.0153 0.3543, -0.6948 0.0143 0.3543, -0.689 -0.0 0.3543, -0.6929 -0.0 0.3543, -0.691 -0.0153 0.3543, -0.6948 -0.0143 0.3543, -0.6969 -0.0295 0.3543, -0.7003 -0.0276 0.3543, -0.7063 -0.0418 0.3543, -0.7091 -0.039 0.3543, -0.7185 -0.0511 0.3543, -0.7205 -0.0477 0.3543, -0.7327 -0.057 0.3543, -0.7338 -0.0532 0.3543, -0.748 -0.0551 0.3543, -0.752 0.0551 -0.0039, -0.748 0.0551 -0.0039, -0.7338 0.0532 -0.0039, -0.7205 0.0477 -0.0039, -0.7091 0.039 -0.0039, -0.7003 0.0276 -0.0039, -0.6948 0.0143 -0.0039, -0.6929 -0.0 -0.0039, -0.6948 -0.0143 -0.0039, -0.7003 -0.0276 -0.0039, -0.7091 -0.039 -0.0039, -0.7205 -0.0477 -0.0039, -0.7338 -0.0532 -0.0039, -0.748 -0.0551 -0.0039, -0.752 -0.0551 -0.0039, -0.3543 -0.6181 0.0, -0.3543 -0.6181 -0.0039, -0.3543 -0.3819 0.0, -0.3543 -0.3819 -0.0039, -0.748 -0.3819 0.0, -0.752 -0.3819 -0.0039, -0.748 -0.3819 0.3543, -0.752 -0.3819 0.3543, -0.748 -0.6181 0.3543, -0.752 -0.6181 0.3543, -0.748 -0.6181 0.0, -0.752 -0.6181 -0.0039, -0.748 -0.4409 0.3543, -0.752 -0.5551 0.3543, -0.748 -0.5591 0.3543, -0.752 -0.4449 0.3543, -0.748 -0.4449 0.3543, -0.7339 -0.4427 0.3543, -0.7338 -0.4468 0.3543, -0.7206 -0.4477 0.3543, -0.7205 -0.4523 0.3543, -0.7089 -0.4558 0.3543, -0.7091 -0.461 0.3543, -0.6994 -0.4665 0.3543, -0.7003 -0.4724 0.3543, -0.6928 -0.4791 0.3543, -0.6948 -0.4857 0.3543, -0.6894 -0.4929 0.3543, -0.6929 -0.5 0.3543, -0.6894 -0.5071 0.3543, -0.6928 -0.5209 0.3543, -0.6948 -0.5143 0.3543, -0.6994 -0.5335 0.3543, -0.7003 -0.5276 0.3543, -0.7089 -0.5442 0.3543, -0.7091 -0.539 0.3543, -0.7206 -0.5523 0.3543, -0.7205 -0.5477 0.3543, -0.7339 -0.5573 0.3543, -0.7338 -0.5532 0.3543, -0.748 -0.5551 0.3543, -0.752 -0.4449 -0.0039, -0.748 -0.4449 -0.0039, -0.7338 -0.4468 -0.0039, -0.7205 -0.4523 -0.0039, -0.7091 -0.461 -0.0039, -0.7003 -0.4724 -0.0039, -0.6948 -0.4857 -0.0039, -0.6929 -0.5 -0.0039, -0.6948 -0.5143 -0.0039, -0.7003 -0.5276 -0.0039, -0.7091 -0.539 -0.0039, -0.7205 -0.5477 -0.0039, -0.7338 -0.5532 -0.0039, -0.748 -0.5551 -0.0039, -0.752 -0.5551 -0.0039, -0.752 -0.5551 -0.0039
            ]
        }
        coordIndex [
            0,1,2,-1,2,1,3,-1,2,3,4,-1,4,3,5,-1,5,6,4,-1,4,6,7,-1,7,6,8,-1,8,6,9,-1,8,9,10,-1,10,9,11,-1,12,10,11,-1,1,0,13,-1,13,0,14,-1,11,15,12,-1,12,15,16,-1,12,16,17,-1,17,16,18,-1,17,18,19,-1,19,18,20,-1,19,20,21,-1,21,20,22,-1,21,22,23,-1,23,22,24,-1,23,24,25,-1,25,24,26,-1,25,26,27,-1,27,26,28,-1,27,28,29,-1,29,28,30,-1,30,28,31,-1,30,31,32,-1,32,31,33,-1,32,33,34,-1,34,33,35,-1,34,35,36,-1,36,35,37,-1,36,37,38,-1,38,37,39,-1,38,39,14,-1,14,39,40,-1,14,40,13,-1,41,15,9,-1,9,15,11,-1,42,16,41,-1,41,16,15,-1,16,42,18,-1,18,42,43,-1,18,43,20,-1,20,43,44,-1,20,44,22,-1,22,44,45,-1,22,45,24,-1,24,45,46,-1,24,46,26,-1,26,46,47,-1,26,47,28,-1,28,47,48,-1,28,48,31,-1,31,48,49,-1,31,49,33,-1,33,49,50,-1,33,50,35,-1,35,50,51,-1,35,51,37,-1,37,51,52,-1,37,52,39,-1,39,52,53,-1,39,53,40,-1,40,53,54,-1,55,13,54,-1,54,13,40,-1,3,1,55,-1,55,1,13,-1,42,41,9,-1,51,50,5,-1,55,54,3,-1,3,54,53,-1,3,53,5,-1,5,53,52,-1,5,52,51,-1,50,49,5,-1,5,49,48,-1,5,48,6,-1,6,48,47,-1,6,47,46,-1,46,45,6,-1,6,45,44,-1,6,44,9,-1,9,44,43,-1,9,43,42,-1,56,57,58,-1,58,57,59,-1,58,59,60,-1,60,59,61,-1,61,59,62,-1,61,62,63,-1,63,62,64,-1,65,66,67,-1,67,66,68,-1,67,68,56,-1,56,68,57,-1,69,63,64,-1,66,65,70,-1,70,65,71,-1,64,72,69,-1,69,72,73,-1,69,73,74,-1,74,73,75,-1,74,75,76,-1,76,75,77,-1,76,77,78,-1,78,77,79,-1,78,79,80,-1,80,79,81,-1,80,81,82,-1,82,81,83,-1,82,83,84,-1,84,83,85,-1,84,85,86,-1,86,85,87,-1,86,87,88,-1,88,87,89,-1,88,89,90,-1,90,89,91,-1,90,91,92,-1,92,91,93,-1,92,93,94,-1,94,93,95,-1,94,95,71,-1,71,95,96,-1,71,96,70,-1,97,72,62,-1,62,72,64,-1,98,73,97,-1,97,73,72,-1,73,98,75,-1,75,98,99,-1,75,99,77,-1,77,99,100,-1,77,100,79,-1,79,100,101,-1,79,101,81,-1,81,101,102,-1,81,102,83,-1,83,102,103,-1,83,103,85,-1,85,103,104,-1,85,104,87,-1,87,104,105,-1,87,105,89,-1,89,105,106,-1,89,106,91,-1,91,106,107,-1,91,107,93,-1,93,107,108,-1,93,108,95,-1,95,108,109,-1,95,109,96,-1,96,109,110,-1,111,70,110,-1,110,70,96,-1,68,66,111,-1,111,66,70,-1,98,97,62,-1,107,106,57,-1,57,106,105,-1,57,105,59,-1,111,110,68,-1,68,110,109,-1,68,109,57,-1,57,109,108,-1,57,108,107,-1,105,104,59,-1,59,104,103,-1,59,103,102,-1,102,101,59,-1,59,101,100,-1,59,100,62,-1,62,100,99,-1,62,99,98,-1,112,113,114,-1,114,113,115,-1,114,115,116,-1,116,115,117,-1,116,117,118,-1,118,117,119,-1,120,121,122,-1,122,121,123,-1,122,123,112,-1,112,123,113,-1,124,118,119,-1,121,120,125,-1,125,120,126,-1,119,127,124,-1,124,127,128,-1,124,128,129,-1,129,128,130,-1,129,130,131,-1,131,130,132,-1,131,132,133,-1,133,132,134,-1,133,134,135,-1,135,134,136,-1,135,136,137,-1,137,136,138,-1,137,138,139,-1,139,138,140,-1,139,140,141,-1,141,140,142,-1,141,142,143,-1,143,142,144,-1,143,144,145,-1,145,144,146,-1,145,146,147,-1,147,146,148,-1,147,148,149,-1,149,148,150,-1,149,150,126,-1,126,150,151,-1,126,151,125,-1,152,127,117,-1,117,127,119,-1,153,128,152,-1,152,128,127,-1,128,153,130,-1,130,153,154,-1,130,154,132,-1,132,154,155,-1,132,155,134,-1,134,155,156,-1,134,156,136,-1,136,156,157,-1,136,157,138,-1,138,157,158,-1,138,158,140,-1,140,158,159,-1,140,159,142,-1,142,159,160,-1,142,160,144,-1,144,160,161,-1,144,161,146,-1,146,161,162,-1,146,162,148,-1,148,162,163,-1,148,163,150,-1,150,163,164,-1,150,164,151,-1,151,164,165,-1,166,125,165,-1,165,125,151,-1,123,121,166,-1,166,121,125,-1,153,152,117,-1,166,165,123,-1,123,165,164,-1,123,164,113,-1,113,164,163,-1,113,163,162,-1,158,157,115,-1,162,161,113,-1,113,161,160,-1,113,160,115,-1,115,160,159,-1,115,159,158,-1,157,156,115,-1,115,156,155,-1,115,155,117,-1,117,155,154,-1,117,154,153,-1,167,168,169,-1,169,168,170,-1,171,172,173,-1,173,172,174,-1,173,174,175,-1,175,174,167,-1,175,167,169,-1,176,177,178,-1,178,179,176,-1,176,179,180,-1,176,180,168,-1,168,180,170,-1,181,178,177,-1,172,171,182,-1,182,171,183,-1,177,184,181,-1,181,184,185,-1,181,185,186,-1,186,185,187,-1,186,187,188,-1,188,187,189,-1,188,189,190,-1,190,189,191,-1,190,191,192,-1,192,191,193,-1,192,193,194,-1,194,193,195,-1,194,195,196,-1,196,195,197,-1,196,197,198,-1,198,197,199,-1,198,199,200,-1,200,199,201,-1,200,201,202,-1,202,201,203,-1,202,203,204,-1,204,203,205,-1,204,205,206,-1,206,205,207,-1,206,207,183,-1,183,207,208,-1,183,208,182,-1,209,184,176,-1,176,184,177,-1,210,185,209,-1,209,185,184,-1,185,210,187,-1,187,210,211,-1,187,211,189,-1,189,211,212,-1,189,212,191,-1,191,212,213,-1,191,213,193,-1,193,213,214,-1,193,214,195,-1,195,214,215,-1,195,215,197,-1,197,215,216,-1,197,216,199,-1,199,216,217,-1,199,217,201,-1,201,217,218,-1,201,218,203,-1,203,218,219,-1,203,219,205,-1,205,219,220,-1,205,220,207,-1,207,220,221,-1,207,221,208,-1,208,221,222,-1,223,182,222,-1,222,182,208,-1,174,172,223,-1,223,172,182,-1,174,223,222,-1,222,221,174,-1,174,221,220,-1,174,220,167,-1,167,220,219,-1,167,219,218,-1,218,217,167,-1,167,217,216,-1,167,216,168,-1,168,216,215,-1,212,176,213,-1,213,176,168,-1,213,168,214,-1,214,168,215,-1,212,211,176,-1,176,211,210,-1,176,210,209,-1,224,225,226,-1,226,225,227,-1,226,227,228,-1,228,227,229,-1,229,227,230,-1,229,230,231,-1,231,230,232,-1,233,234,235,-1,235,234,236,-1,235,236,224,-1,224,236,225,-1,237,231,232,-1,234,233,238,-1,238,233,239,-1,232,240,237,-1,237,240,241,-1,237,241,242,-1,242,241,243,-1,242,243,244,-1,244,243,245,-1,244,245,246,-1,246,245,247,-1,246,247,248,-1,248,247,249,-1,248,249,250,-1,250,249,251,-1,250,251,252,-1,252,251,253,-1,252,253,254,-1,254,253,255,-1,254,255,256,-1,256,255,257,-1,256,257,258,-1,258,257,259,-1,258,259,260,-1,260,259,261,-1,260,261,262,-1,262,261,263,-1,262,263,239,-1,239,263,264,-1,239,264,238,-1,265,240,230,-1,230,240,232,-1,266,241,265,-1,265,241,240,-1,241,266,243,-1,243,266,267,-1,243,267,245,-1,245,267,268,-1,245,268,247,-1,247,268,269,-1,247,269,249,-1,249,269,270,-1,249,270,251,-1,251,270,271,-1,251,271,253,-1,253,271,272,-1,253,272,255,-1,255,272,273,-1,255,273,257,-1,257,273,274,-1,257,274,259,-1,259,274,275,-1,259,275,261,-1,261,275,276,-1,261,276,263,-1,263,276,277,-1,263,277,264,-1,264,277,278,-1,279,238,278,-1,278,238,264,-1,236,234,279,-1,279,234,238,-1,266,265,230,-1,225,275,274,-1,270,269,227,-1,227,269,268,-1,227,268,230,-1,230,268,267,-1,230,267,266,-1,274,273,225,-1,225,273,272,-1,225,272,227,-1,227,272,271,-1,227,271,270,-1,279,278,236,-1,236,278,277,-1,236,277,225,-1,225,277,276,-1,225,276,275,-1,280,281,282,-1,282,281,283,-1,282,283,284,-1,284,283,285,-1,284,285,286,-1,286,285,287,-1,288,289,290,-1,290,289,291,-1,290,291,280,-1,280,291,281,-1,292,286,287,-1,289,288,293,-1,293,288,294,-1,287,295,292,-1,292,295,296,-1,292,296,297,-1,297,296,298,-1,297,298,299,-1,299,298,300,-1,299,300,301,-1,301,300,302,-1,301,302,303,-1,303,302,304,-1,303,304,305,-1,305,304,306,-1,305,306,307,-1,307,306,308,-1,307,308,309,-1,309,308,310,-1,310,308,311,-1,310,311,312,-1,312,311,313,-1,312,313,314,-1,314,313,315,-1,314,315,316,-1,316,315,317,-1,316,317,318,-1,318,317,319,-1,318,319,294,-1,294,319,320,-1,294,320,293,-1,321,295,285,-1,285,295,287,-1,322,296,321,-1,321,296,295,-1,296,322,298,-1,298,322,323,-1,298,323,300,-1,300,323,324,-1,300,324,302,-1,302,324,325,-1,302,325,304,-1,304,325,326,-1,304,326,306,-1,306,326,327,-1,306,327,308,-1,308,327,328,-1,308,328,311,-1,311,328,329,-1,311,329,313,-1,313,329,330,-1,313,330,315,-1,315,330,331,-1,315,331,317,-1,317,331,332,-1,317,332,319,-1,319,332,333,-1,319,333,320,-1,320,333,334,-1,335,293,334,-1,334,293,320,-1,291,289,335,-1,335,289,293,-1,322,321,285,-1,335,334,291,-1,291,334,333,-1,291,333,281,-1,281,333,332,-1,281,332,331,-1,327,326,283,-1,331,330,281,-1,281,330,329,-1,281,329,283,-1,283,329,328,-1,283,328,327,-1,326,325,283,-1,283,325,324,-1,283,324,285,-1,285,324,323,-1,285,323,322,-1,
        ]
    }
}
Shape{
    appearance Appearance {
        material  Material 	{
            diffuseColor 0.5019607843137255 0.5019607843137255 0.5019607843137255
            specularColor 0.25098039215686274 0.25098039215686274 0.25098039215686274
            ambientIntensity 0.2
            transparency 0
            shininess 0.5
        }
    }
    geometry IndexedFaceSet {
        ccw TRUE
        solid FALSE
        coord DEF co Coordinate {
            point [
                -0.385 0.4704 0.6063, -0.385 0.4704 0.6102, -0.387 0.4859 0.6063, -0.387 0.4859 0.6102, -0.393 0.5004 0.6063, -0.393 0.5004 0.6102, -0.4025 0.5128 0.6063, -0.4025 0.5128 0.6102, -0.4149 0.5224 0.6063, -0.4149 0.5224 0.6102, -0.4294 0.5284 0.6063, -0.4294 0.5284 0.6102, -0.4449 0.5304 0.6063, -0.4449 0.5304 0.6102, -0.4605 0.5284 0.6063, -0.4605 0.5284 0.6102, -0.4749 0.5224 0.6063, -0.4749 0.5224 0.6102, -0.4874 0.5128 0.6063, -0.4874 0.5128 0.6102, -0.4969 0.5004 0.6063, -0.4969 0.5004 0.6102, -0.5029 0.4859 0.6063, -0.5029 0.4859 0.6102, -0.5049 0.4704 0.6063, -0.5049 0.4704 0.6102, -0.5029 0.4549 0.6063, -0.5029 0.4549 0.6102, -0.4969 0.4404 0.6063, -0.4969 0.4404 0.6102, -0.4874 0.428 0.6063, -0.4874 0.428 0.6102, -0.4749 0.4185 0.6063, -0.4749 0.4185 0.6102, -0.4605 0.4125 0.6063, -0.4605 0.4125 0.6102, -0.4449 0.4104 0.6063, -0.4449 0.4104 0.6102, -0.4294 0.4125 0.6063, -0.4294 0.4125 0.6102, -0.4149 0.4185 0.6063, -0.4149 0.4185 0.6102, -0.4025 0.428 0.6063, -0.4025 0.428 0.6102, -0.393 0.4404 0.6063, -0.393 0.4404 0.6102, -0.387 0.4549 0.6063, -0.387 0.4549 0.6102, -0.4449 0.4704 0.6063, -0.4449 0.4704 0.6063
            ]
        }
        coordIndex [
            0,1,2,-1,2,1,3,-1,2,3,4,-1,4,3,5,-1,4,5,6,-1,6,5,7,-1,6,7,8,-1,8,7,9,-1,8,9,10,-1,10,9,11,-1,10,11,12,-1,12,11,13,-1,12,13,14,-1,14,13,15,-1,14,15,16,-1,16,15,17,-1,16,17,18,-1,18,17,19,-1,18,19,20,-1,20,19,21,-1,20,21,22,-1,22,21,23,-1,22,23,24,-1,24,23,25,-1,24,25,26,-1,26,25,27,-1,26,27,28,-1,28,27,29,-1,28,29,30,-1,30,29,31,-1,30,31,32,-1,32,31,33,-1,32,33,34,-1,34,33,35,-1,34,35,36,-1,36,35,37,-1,36,37,38,-1,38,37,39,-1,38,39,40,-1,40,39,41,-1,40,41,42,-1,42,41,43,-1,42,43,44,-1,44,43,45,-1,44,45,46,-1,46,45,47,-1,46,47,0,-1,0,47,1,-1,44,46,48,-1,48,46,0,-1,48,0,2,-1,38,40,48,-1,48,40,42,-1,48,42,44,-1,32,34,48,-1,48,34,36,-1,48,36,38,-1,26,28,48,-1,48,28,30,-1,48,30,32,-1,20,22,48,-1,48,22,24,-1,48,24,26,-1,14,16,48,-1,48,16,18,-1,48,18,20,-1,8,10,48,-1,48,10,12,-1,48,12,14,-1,2,4,48,-1,48,4,6,-1,48,6,8,-1,
        ]
    }
}
Shape{
    appearance Appearance {
        material  Material 	{
            diffuseColor 0.0 0.0 0.0
            specularColor 0.0 0.0 0.0
            ambientIntensity 0.2
            transparency 0
            shininess 0.5
        }
    }
    geometry IndexedFaceSet {
        ccw TRUE
        solid FALSE
        coord DEF co Coordinate {
            point [
                -0.0704 0.0198 0.0004, -0.0858 -0.0196 0.0004, -0.0704 0.0198 0.0, -0.0858 -0.0196 0.0, -0.08 -0.0196 0.0004, -0.08 -0.0196 0.0, -0.076 -0.0085 0.0004, -0.076 -0.0085 0.0, -0.0598 -0.0085 0.0004, -0.0598 -0.0085 0.0, -0.056 -0.0196 0.0004, -0.056 -0.0196 0.0, -0.0502 -0.0196 0.0004, -0.0502 -0.0196 0.0, -0.0651 0.0198 0.0004, -0.0651 0.0198 0.0, -0.0611 -0.0042 0.0004, -0.0742 -0.0042 0.0004, -0.067 0.0122 0.0004, -0.0673 0.0136 0.0004, -0.0676 0.015 0.0004, -0.0677 0.015 0.0004, -0.068 0.0136 0.0004, -0.0683 0.0122 0.0004, -0.0611 -0.0042 0.0, -0.0742 -0.0042 0.0, -0.067 0.0122 0.0, -0.0673 0.0136 -0.0, -0.0676 0.015 0.0, -0.0677 0.015 0.0, -0.068 0.0136 0.0, -0.0683 0.0122 0.0, -0.0264 -0.0196 0.0004, -0.0157 -0.0196 0.0004, -0.0264 -0.0196 0.0, -0.0157 -0.0196 0.0, -0.0157 0.0198 0.0004, -0.0157 0.0198 0.0, -0.0268 0.0198 0.0004, -0.0268 0.0198 0.0, -0.0474 0.0006 0.0004, -0.0474 0.0006 0.0, -0.0471 0.0043 0.0, -0.0471 0.0043 0.0004, -0.046 0.0082 0.0, -0.046 0.0082 0.0004, -0.0442 0.0116 0.0, -0.0442 0.0116 0.0004, -0.0414 0.0147 0.0, -0.0414 0.0147 0.0004, -0.0414 0.0147 0.0, -0.0414 0.0147 0.0004, -0.0371 0.0176 0.0, -0.0371 0.0176 0.0004, -0.0325 0.0192 0.0, -0.0325 0.0192 0.0004, -0.0312 -0.0191 0.0, -0.0312 -0.0191 0.0004, -0.0358 -0.0178 0.0, -0.0358 -0.0178 0.0004, -0.0399 -0.0154 0.0, -0.0399 -0.0154 0.0004, -0.0431 -0.0123 0.0, -0.0431 -0.0123 0.0004, -0.0454 -0.0088 0.0, -0.0454 -0.0088 0.0004, -0.0468 -0.0047 0.0, -0.0468 -0.0047 0.0004, -0.0394 0.01 0.0004, -0.0375 0.012 0.0004, -0.0347 0.0138 0.0004, -0.0314 0.015 0.0004, -0.0268 0.0155 0.0004, -0.0209 0.0155 0.0004, -0.0209 -0.0152 0.0004, -0.0265 -0.0152 0.0004, -0.0307 -0.0149 0.0004, -0.034 -0.0138 0.0004, -0.0367 -0.0122 0.0004, -0.0389 -0.0101 0.0004, -0.0406 -0.0073 0.0004, -0.0417 -0.0036 0.0004, -0.0421 0.0005 0.0004, -0.0417 0.0044 0.0004, -0.0408 0.0075 0.0004, -0.0268 0.0155 0.0, -0.0209 0.0155 0.0, -0.0314 0.015 0.0, -0.0347 0.0138 -0.0, -0.0375 0.012 0.0, -0.0394 0.01 0.0, -0.0408 0.0075 0.0, -0.0417 0.0044 0.0, -0.0421 0.0005 0.0, -0.0417 -0.0036 0.0, -0.0406 -0.0073 0.0, -0.0389 -0.0101 0.0, -0.0367 -0.0122 0.0, -0.034 -0.0138 0.0, -0.0307 -0.0149 0.0, -0.0265 -0.0152 0.0, -0.0209 -0.0152 0.0, -0.008 -0.0152 0.0004, -0.008 -0.0196 0.0004, -0.008 -0.0152 0.0, -0.008 -0.0196 0.0, 0.0131 -0.0196 0.0004, 0.0131 -0.0196 0.0, 0.0131 0.0198 0.0004, 0.0131 0.0198 0.0, -0.007 0.0198 0.0004, -0.007 0.0198 0.0, -0.007 0.0155 0.0004, -0.007 0.0155 0.0, 0.0079 0.0155 0.0004, 0.0079 0.0155 0.0, 0.0079 0.0025 0.0004, 0.0079 0.0025 0.0, -0.0061 0.0025 0.0004, -0.0061 0.0025 0.0, -0.0061 -0.0018 0.0004, -0.0061 -0.0018 0.0, 0.0079 -0.0018 0.0004, 0.0079 -0.0018 0.0, 0.0079 -0.0152 0.0004, 0.0079 -0.0152 0.0, 0.0208 -0.0132 0.0004, 0.0208 -0.0175 0.0004, 0.0208 -0.0132 0.0, 0.0208 -0.0175 0.0, 0.025 -0.0193 0.0004, 0.0317 -0.02 0.0004, 0.0317 -0.02 0.0, 0.0306 -0.02 0.0, 0.0306 -0.02 0.0004, 0.029 -0.0198 0.0, 0.025 -0.0193 0.0, 0.034 -0.0198 0.0, 0.0365 -0.0195 0.0004, 0.0365 -0.0195 0.0, 0.0403 -0.0182 0.0004, 0.0403 -0.0182 0.0, 0.0435 -0.0162 0.0004, 0.0435 -0.0162 0.0, 0.0465 -0.0131 0.0004, 0.0465 -0.0131 0.0, 0.0485 -0.0094 0.0004, 0.0485 -0.0094 0.0, 0.0497 -0.0052 0.0004, 0.0497 -0.0052 0.0, 0.0501 -0.0006 0.0004, 0.0501 -0.0006 0.0, 0.0301 0.0203 0.0004, 0.0301 0.0203 0.0, 0.034 0.02 0.0, 0.034 0.02 0.0004, 0.0384 0.0187 0.0, 0.0384 0.0187 0.0004, 0.0422 0.0165 0.0, 0.0422 0.0165 0.0004, 0.0457 0.0131 0.0, 0.0457 0.0131 0.0004, 0.048 0.0094 0.0, 0.048 0.0094 0.0004, 0.0495 0.005 0.0, 0.0495 0.005 0.0004, 0.0208 0.0187 0.0004, 0.0208 0.0187 0.0, 0.0254 0.02 0.0, 0.0254 0.02 0.0004, 0.0208 0.0134 0.0004, 0.0208 0.0134 0.0, 0.03 0.016 0.0004, 0.03 0.016 0.0, 0.0253 0.0153 0.0, 0.0253 0.0153 0.0004, 0.0448 -0.0003 0.0004, 0.0448 -0.0003 0.0, 0.0446 0.0028 0.0, 0.0446 0.0028 0.0004, 0.0436 0.007 0.0, 0.0436 0.007 0.0004, 0.042 0.01 0.0, 0.042 0.01 0.0004, 0.0396 0.0126 0.0, 0.0396 0.0126 0.0004, 0.0369 0.0145 0.0, 0.0369 0.0145 0.0004, 0.0339 0.0155 0.0, 0.0339 0.0155 0.0004, 0.0309 -0.0157 0.0004, 0.0309 -0.0157 0.0, 0.0346 -0.0153 0.0, 0.0346 -0.0153 0.0004, 0.0375 -0.0143 0.0, 0.0375 -0.0143 0.0004, 0.0399 -0.0126 0.0, 0.0399 -0.0126 0.0004, 0.0417 -0.0107 0.0, 0.0417 -0.0107 0.0004, 0.0434 -0.008 0.0, 0.0434 -0.008 0.0004, 0.0444 -0.0046 0.0, 0.0444 -0.0046 0.0004, 0.0215 -0.0136 0.0, 0.0215 -0.0136 0.0004, 0.0257 -0.0151 0.0, 0.0257 -0.0151 0.0004, 0.0535 -0.0152 0.0004, 0.0535 -0.0196 0.0004, 0.0535 -0.0152 0.0, 0.0535 -0.0196 0.0, 0.0736 -0.0196 0.0004, 0.0736 -0.0196 0.0, 0.0736 0.0198 0.0004, 0.0736 0.0198 0.0, 0.0684 0.0198 0.0004, 0.0684 0.0198 0.0, 0.0684 -0.0152 0.0004, 0.0684 -0.0152 0.0, 0.0684 -0.0152 0.0
            ]
        }
        coordIndex [
            0,1,2,-1,2,1,3,-1,1,4,3,-1,3,4,5,-1,4,6,5,-1,5,6,7,-1,6,8,7,-1,7,8,9,-1,8,10,9,-1,9,10,11,-1,10,12,11,-1,11,12,13,-1,12,14,13,-1,13,14,15,-1,14,0,15,-1,15,0,2,-1,16,8,17,-1,17,8,6,-1,18,14,16,-1,16,14,12,-1,16,12,8,-1,8,12,10,-1,18,19,14,-1,14,19,20,-1,14,20,0,-1,0,20,21,-1,0,21,22,-1,22,23,0,-1,0,23,17,-1,0,17,1,-1,1,17,6,-1,1,6,4,-1,16,17,24,-1,24,17,25,-1,18,16,26,-1,26,16,24,-1,18,26,27,-1,18,27,19,-1,19,27,28,-1,19,28,20,-1,21,20,29,-1,29,20,28,-1,21,29,30,-1,21,30,22,-1,22,30,31,-1,22,31,23,-1,17,23,25,-1,25,23,31,-1,32,33,34,-1,34,33,35,-1,33,36,35,-1,35,36,37,-1,36,38,37,-1,37,38,39,-1,40,41,42,-1,40,42,43,-1,43,42,44,-1,43,44,45,-1,45,44,46,-1,45,46,47,-1,47,46,48,-1,47,48,49,-1,49,48,50,-1,49,50,51,-1,51,50,52,-1,51,52,53,-1,53,52,54,-1,53,54,55,-1,55,54,39,-1,55,39,38,-1,32,34,56,-1,32,56,57,-1,57,56,58,-1,57,58,59,-1,59,58,60,-1,59,60,61,-1,61,60,62,-1,61,62,63,-1,63,62,64,-1,63,64,65,-1,65,64,66,-1,65,66,67,-1,67,66,41,-1,67,41,40,-1,45,47,68,-1,68,47,49,-1,68,49,69,-1,69,49,51,-1,69,51,70,-1,70,51,53,-1,70,53,71,-1,71,53,55,-1,71,55,72,-1,72,55,38,-1,72,38,73,-1,73,38,36,-1,73,36,74,-1,74,36,33,-1,74,33,75,-1,75,33,32,-1,75,32,76,-1,76,32,57,-1,76,57,77,-1,77,57,59,-1,77,59,78,-1,78,59,61,-1,78,61,79,-1,79,61,63,-1,79,63,80,-1,80,63,65,-1,80,65,81,-1,81,65,67,-1,81,67,82,-1,82,67,40,-1,82,40,83,-1,83,40,43,-1,83,43,84,-1,84,43,45,-1,84,45,68,-1,72,73,85,-1,85,73,86,-1,72,85,87,-1,72,87,71,-1,71,87,88,-1,71,88,70,-1,70,88,89,-1,70,89,69,-1,69,89,90,-1,69,90,68,-1,68,90,91,-1,68,91,84,-1,84,91,92,-1,84,92,83,-1,83,92,93,-1,83,93,82,-1,82,93,94,-1,82,94,81,-1,81,94,95,-1,81,95,80,-1,80,95,96,-1,80,96,79,-1,79,96,97,-1,79,97,78,-1,78,97,98,-1,78,98,77,-1,77,98,99,-1,77,99,76,-1,76,99,100,-1,76,100,75,-1,74,75,101,-1,101,75,100,-1,73,74,86,-1,86,74,101,-1,102,103,104,-1,104,103,105,-1,103,106,105,-1,105,106,107,-1,106,108,107,-1,107,108,109,-1,108,110,109,-1,109,110,111,-1,110,112,111,-1,111,112,113,-1,112,114,113,-1,113,114,115,-1,114,116,115,-1,115,116,117,-1,116,118,117,-1,117,118,119,-1,118,120,119,-1,119,120,121,-1,120,122,121,-1,121,122,123,-1,122,124,123,-1,123,124,125,-1,124,102,125,-1,125,102,104,-1,106,103,102,-1,102,124,106,-1,106,124,122,-1,106,122,108,-1,112,110,114,-1,114,110,108,-1,114,108,116,-1,116,108,122,-1,116,122,118,-1,118,122,120,-1,126,127,128,-1,128,127,129,-1,129,127,130,-1,131,132,133,-1,131,133,134,-1,134,133,135,-1,134,135,130,-1,130,135,136,-1,130,136,129,-1,132,131,137,-1,137,131,138,-1,137,138,139,-1,139,138,140,-1,139,140,141,-1,141,140,142,-1,141,142,143,-1,143,142,144,-1,143,144,145,-1,145,144,146,-1,145,146,147,-1,147,146,148,-1,147,148,149,-1,149,148,150,-1,149,150,151,-1,152,153,154,-1,152,154,155,-1,155,154,156,-1,155,156,157,-1,157,156,158,-1,157,158,159,-1,159,158,160,-1,159,160,161,-1,161,160,162,-1,161,162,163,-1,163,162,164,-1,163,164,165,-1,165,164,151,-1,165,151,150,-1,166,167,168,-1,166,168,169,-1,169,168,153,-1,169,153,152,-1,166,170,167,-1,167,170,171,-1,172,173,174,-1,172,174,175,-1,175,174,171,-1,175,171,170,-1,176,177,178,-1,176,178,179,-1,179,178,180,-1,179,180,181,-1,181,180,182,-1,181,182,183,-1,183,182,184,-1,183,184,185,-1,185,184,186,-1,185,186,187,-1,187,186,188,-1,187,188,189,-1,189,188,173,-1,189,173,172,-1,190,191,192,-1,190,192,193,-1,193,192,194,-1,193,194,195,-1,195,194,196,-1,195,196,197,-1,197,196,198,-1,197,198,199,-1,199,198,200,-1,199,200,201,-1,201,200,202,-1,201,202,203,-1,203,202,177,-1,203,177,176,-1,126,128,204,-1,126,204,205,-1,205,204,206,-1,205,206,207,-1,207,206,191,-1,207,191,190,-1,193,131,190,-1,190,131,134,-1,190,134,207,-1,207,134,130,-1,207,130,205,-1,205,130,127,-1,205,127,126,-1,170,166,175,-1,175,166,169,-1,175,169,172,-1,172,169,152,-1,172,152,189,-1,189,152,155,-1,189,155,187,-1,187,155,157,-1,187,157,185,-1,185,157,159,-1,185,159,183,-1,183,159,161,-1,183,161,181,-1,181,161,163,-1,181,163,179,-1,179,163,165,-1,179,165,176,-1,176,165,150,-1,176,150,203,-1,203,150,148,-1,203,148,201,-1,201,148,146,-1,201,146,199,-1,199,146,144,-1,199,144,197,-1,197,144,142,-1,197,142,195,-1,195,142,140,-1,195,140,193,-1,193,140,138,-1,193,138,131,-1,208,209,210,-1,210,209,211,-1,209,212,211,-1,211,212,213,-1,212,214,213,-1,213,214,215,-1,214,216,215,-1,215,216,217,-1,216,218,217,-1,217,218,219,-1,218,208,219,-1,219,208,210,-1,216,214,218,-1,218,214,212,-1,218,212,208,-1,208,212,209,-1,
        ]
    }
}
Shape{
    appearance Appearance {
        material  Material 	{
            diffuseColor 0.5019607843137255 0.5019607843137255 0.5019607843137255
            specularColor 0.25098039215686274 0.25098039215686274 0.25098039215686274
            ambientIntensity 0.2
            transparency 0
            shininess 0.5
        }
    }
    geometry IndexedFaceSet {
        ccw TRUE
        solid FALSE
        coord DEF co Coordinate {
            point [
                -0.0611 -0.0042 0.0, -0.0742 -0.0042 0.0, -0.067 0.0122 0.0, -0.0683 0.0122 0.0, -0.0673 0.0136 -0.0, -0.068 0.0136 0.0, -0.0676 0.015 0.0, -0.0677 0.015 0.0, -0.0209 0.0155 0.0, -0.0209 -0.0152 0.0, -0.0268 0.0155 0.0, -0.0265 -0.0152 0.0, -0.0307 -0.0149 0.0, -0.0421 0.0005 0.0, -0.0417 0.0044 0.0, -0.0408 0.0075 0.0, -0.0314 0.015 0.0, -0.034 -0.0138 0.0, -0.0367 -0.0122 0.0, -0.0389 -0.0101 0.0, -0.0406 -0.0073 0.0, -0.0417 -0.0036 0.0, -0.0394 0.01 0.0, -0.0375 0.012 0.0, -0.0347 0.0138 -0.0, -0.0347 0.0138 -0.0
            ]
        }
        coordIndex [
            0,1,2,-1,2,1,3,-1,2,3,4,-1,4,3,5,-1,4,5,6,-1,6,5,7,-1,8,9,10,-1,10,9,11,-1,10,11,12,-1,13,14,10,-1,10,14,15,-1,10,15,16,-1,12,17,10,-1,10,17,18,-1,10,18,19,-1,19,20,10,-1,10,20,21,-1,10,21,13,-1,22,23,15,-1,15,23,24,-1,15,24,16,-1,
        ]
    }
}